NotoAmalgamated-DisplaySemiBoldCondensedItalic.ufo
<glyph name="exclam" format="2">
  <advance width="243"/>
  <unicode hex="0021"/>
  <outline>
    <contour>
      <point x="59" y="226" type="line"/>
      <point x="161" y="226" type="line"/>
      <point x="282" y="714" type="line"/>
      <point x="145" y="714" type="line"/>
    </contour>
    <contour>
      <point x="62" y="-10" type="curve" smooth="yes"/>
      <point x="107" y="-10"/>
      <point x="148" y="31"/>
      <point x="148" y="90" type="curve" smooth="yes"/>
      <point x="148" y="125"/>
      <point x="127" y="146"/>
      <point x="92" y="146" type="curve" smooth="yes"/>
      <point x="33" y="146"/>
      <point x="1" y="98"/>
      <point x="1" y="46" type="curve" smooth="yes"/>
      <point x="1" y="9"/>
      <point x="23" y="-10"/>
    </contour>
  </outline>
</glyph>
<glyph name="quotedbl" format="2">
  <advance width="390"/>
  <unicode hex="0022"/>
  <outline>
    <contour>
      <point x="274" y="456" type="line"/>
      <point x="372" y="456" type="line"/>
      <point x="442" y="714" type="line"/>
      <point x="313" y="714" type="line"/>
    </contour>
    <contour>
      <point x="95" y="456" type="line"/>
      <point x="193" y="456" type="line"/>
      <point x="263" y="714" type="line"/>
      <point x="134" y="714" type="line"/>
    </contour>
  </outline>
</glyph>
<glyph name="numbersign" format="2">
  <advance width="471"/>
  <unicode hex="0023"/>
  <outline>
    <contour>
      <point x="13" y="0" type="line"/>
      <point x="103" y="0" type="line"/>
      <point x="166" y="204" type="line"/>
      <point x="239" y="204" type="line"/>
      <point x="176" y="0" type="line"/>
      <point x="266" y="0" type="line"/>
      <point x="330" y="204" type="line"/>
      <point x="421" y="204" type="line"/>
      <point x="437" y="293" type="line"/>
      <point x="357" y="293" type="line"/>
      <point x="399" y="429" type="line"/>
      <point x="485" y="429" type="line"/>
      <point x="501" y="519" type="line"/>
      <point x="427" y="519" type="line"/>
      <point x="488" y="714" type="line"/>
      <point x="397" y="714" type="line"/>
      <point x="337" y="519" type="line"/>
      <point x="264" y="519" type="line"/>
      <point x="326" y="714" type="line"/>
      <point x="235" y="714" type="line"/>
      <point x="174" y="519" type="line"/>
      <point x="85" y="519" type="line"/>
      <point x="68" y="429" type="line"/>
      <point x="147" y="429" type="line"/>
      <point x="104" y="293" type="line"/>
      <point x="19" y="293" type="line"/>
      <point x="3" y="204" type="line"/>
      <point x="77" y="204" type="line"/>
    </contour>
    <contour>
      <point x="195" y="293" type="line"/>
      <point x="237" y="429" type="line"/>
      <point x="310" y="429" type="line"/>
      <point x="267" y="293" type="line"/>
    </contour>
  </outline>
</glyph>
<glyph name="dollar" format="2">
  <advance width="428"/>
  <unicode hex="0024"/>
  <outline>
    <contour>
      <point x="142" y="41" type="curve"/>
      <point x="121" y="-59" type="line"/>
      <point x="165" y="-58" type="line"/>
      <point x="186" y="41" type="line"/>
      <point x="288" y="50"/>
      <point x="375" y="118"/>
      <point x="375" y="249" type="curve" smooth="yes"/>
      <point x="375" y="337"/>
      <point x="319" y="378"/>
      <point x="266" y="415" type="curve"/>
      <point x="301" y="582" type="line"/>
      <point x="335" y="578"/>
      <point x="366" y="563"/>
      <point x="395" y="540" type="curve"/>
      <point x="449" y="643" type="line"/>
      <point x="419" y="663"/>
      <point x="384" y="681"/>
      <point x="323" y="685" type="curve"/>
      <point x="338" y="759" type="line"/>
      <point x="294" y="759" type="line"/>
      <point x="278" y="685" type="line"/>
      <point x="181" y="678"/>
      <point x="91" y="618"/>
      <point x="91" y="483" type="curve" smooth="yes"/>
      <point x="91" y="399"/>
      <point x="150" y="355"/>
      <point x="201" y="321" type="curve"/>
      <point x="164" y="144" type="line"/>
      <point x="114" y="148"/>
      <point x="66" y="174"/>
      <point x="32" y="204" type="curve"/>
      <point x="8" y="82" type="line"/>
      <point x="39" y="60"/>
      <point x="79" y="43"/>
    </contour>
    <contour>
      <point x="210" y="148" type="curve"/>
      <point x="239" y="292" type="line"/>
      <point x="261" y="270"/>
      <point x="269" y="252"/>
      <point x="269" y="225" type="curve" smooth="yes"/>
      <point x="269" y="185"/>
      <point x="249" y="156"/>
    </contour>
    <contour>
      <point x="256" y="581" type="curve"/>
      <point x="227" y="444" type="line"/>
      <point x="205" y="464"/>
      <point x="196" y="482"/>
      <point x="196" y="504" type="curve" smooth="yes"/>
      <point x="196" y="544"/>
      <point x="215" y="574"/>
    </contour>
  </outline>
</glyph>
<glyph name="percent" format="2">
  <advance width="695"/>
  <unicode hex="0025"/>
  <outline>
    <contour>
      <point x="121" y="0" type="line"/>
      <point x="216" y="0" type="line"/>
      <point x="599" y="714" type="line"/>
      <point x="504" y="714" type="line"/>
    </contour>
    <contour>
      <point x="154" y="276" type="curve" smooth="yes"/>
      <point x="283" y="276"/>
      <point x="336" y="489"/>
      <point x="336" y="592" type="curve" smooth="yes"/>
      <point x="336" y="682"/>
      <point x="297" y="724"/>
      <point x="236" y="724" type="curve" smooth="yes"/>
      <point x="108" y="724"/>
      <point x="53" y="517"/>
      <point x="53" y="407" type="curve" smooth="yes"/>
      <point x="53" y="319"/>
      <point x="88" y="276"/>
    </contour>
    <contour>
      <point x="165" y="361" type="curve" smooth="yes"/>
      <point x="152" y="361"/>
      <point x="143" y="375"/>
      <point x="143" y="406" type="curve" smooth="yes"/>
      <point x="143" y="470"/>
      <point x="177" y="638"/>
      <point x="223" y="638" type="curve" smooth="yes"/>
      <point x="238" y="638"/>
      <point x="244" y="624"/>
      <point x="244" y="594" type="curve" smooth="yes"/>
      <point x="244" y="532"/>
      <point x="211" y="361"/>
    </contour>
    <contour>
      <point x="489" y="-9" type="curve" smooth="yes"/>
      <point x="617" y="-9"/>
      <point x="670" y="201"/>
      <point x="670" y="307" type="curve" smooth="yes"/>
      <point x="670" y="398"/>
      <point x="631" y="439"/>
      <point x="570" y="439" type="curve" smooth="yes"/>
      <point x="454" y="439"/>
      <point x="388" y="256"/>
      <point x="388" y="122" type="curve" smooth="yes"/>
      <point x="388" y="34"/>
      <point x="423" y="-9"/>
    </contour>
    <contour>
      <point x="500" y="77" type="curve" smooth="yes"/>
      <point x="486" y="77"/>
      <point x="478" y="91"/>
      <point x="478" y="121" type="curve" smooth="yes"/>
      <point x="478" y="172"/>
      <point x="507" y="353"/>
      <point x="558" y="353" type="curve" smooth="yes"/>
      <point x="572" y="353"/>
      <point x="580" y="339"/>
      <point x="580" y="309" type="curve" smooth="yes"/>
      <point x="580" y="244"/>
      <point x="547" y="77"/>
    </contour>
  </outline>
</glyph>
<glyph name="ampersand" format="2">
  <advance width="511"/>
  <unicode hex="0026"/>
  <outline>
    <contour>
      <point x="141" y="-10" type="curve" smooth="yes"/>
      <point x="202" y="-10"/>
      <point x="242" y="14"/>
      <point x="290" y="51" type="curve"/>
      <point x="308" y="0" type="line"/>
      <point x="455" y="0" type="line"/>
      <point x="394" y="140" type="line"/>
      <point x="439" y="203"/>
      <point x="484" y="293"/>
      <point x="509" y="371" type="curve"/>
      <point x="386" y="371" type="line"/>
      <point x="372" y="324"/>
      <point x="356" y="285"/>
      <point x="340" y="254" type="curve"/>
      <point x="297" y="376" type="line"/>
      <point x="378" y="440"/>
      <point x="432" y="517"/>
      <point x="432" y="606" type="curve" smooth="yes"/>
      <point x="432" y="686"/>
      <point x="371" y="723"/>
      <point x="306" y="723" type="curve" smooth="yes"/>
      <point x="197" y="723"/>
      <point x="128" y="632"/>
      <point x="128" y="518" type="curve" smooth="yes"/>
      <point x="128" y="469"/>
      <point x="137" y="430"/>
      <point x="152" y="392" type="curve"/>
      <point x="58" y="330"/>
      <point x="-1" y="244"/>
      <point x="-1" y="138" type="curve" smooth="yes"/>
      <point x="-1" y="45"/>
      <point x="53" y="-10"/>
    </contour>
    <contour>
      <point x="171" y="98" type="curve" smooth="yes"/>
      <point x="142" y="98"/>
      <point x="125" y="120"/>
      <point x="125" y="159" type="curve" smooth="yes"/>
      <point x="125" y="220"/>
      <point x="148" y="271"/>
      <point x="190" y="309" type="curve"/>
      <point x="249" y="145" type="line"/>
      <point x="225" y="119"/>
      <point x="202" y="98"/>
    </contour>
    <contour>
      <point x="256" y="457" type="curve"/>
      <point x="248" y="482"/>
      <point x="244" y="506"/>
      <point x="244" y="538" type="curve" smooth="yes"/>
      <point x="244" y="578"/>
      <point x="257" y="633"/>
      <point x="290" y="633" type="curve" smooth="yes"/>
      <point x="312" y="633"/>
      <point x="318" y="612"/>
      <point x="318" y="589" type="curve" smooth="yes"/>
      <point x="318" y="540"/>
      <point x="291" y="490"/>
    </contour>
  </outline>
</glyph>
<glyph name="quotesingle" format="2">
  <advance width="212"/>
  <unicode hex="0027"/>
  <outline>
    <contour>
      <point x="97" y="456" type="line"/>
      <point x="195" y="456" type="line"/>
      <point x="265" y="714" type="line"/>
      <point x="136" y="714" type="line"/>
    </contour>
  </outline>
</glyph>
<glyph name="parenleft" format="2">
  <advance width="266"/>
  <unicode hex="0028"/>
  <outline>
    <contour>
      <point x="54" y="-158" type="curve"/>
      <point x="156" y="-158" type="line"/>
      <point x="133" y="-87"/>
      <point x="126" y="-3"/>
      <point x="126" y="83" type="curve" smooth="yes"/>
      <point x="126" y="310"/>
      <point x="221" y="560"/>
      <point x="344" y="727" type="curve"/>
      <point x="242" y="727" type="line"/>
      <point x="105" y="572"/>
      <point x="15" y="300"/>
      <point x="15" y="82" type="curve" smooth="yes"/>
      <point x="15" y="3"/>
      <point x="27" y="-101"/>
    </contour>
  </outline>
</glyph>
<glyph name="parenright" format="2">
  <advance width="266"/>
  <unicode hex="0029"/>
  <outline>
    <contour>
      <point x="-76" y="-158" type="curve"/>
      <point x="26" y="-158" type="line"/>
      <point x="159" y="-7"/>
      <point x="252" y="257"/>
      <point x="252" y="487" type="curve" smooth="yes"/>
      <point x="252" y="574"/>
      <point x="242" y="657"/>
      <point x="214" y="727" type="curve"/>
      <point x="111" y="727" type="line"/>
      <point x="134" y="661"/>
      <point x="141" y="567"/>
      <point x="141" y="485" type="curve" smooth="yes"/>
      <point x="141" y="259"/>
      <point x="46" y="9"/>
    </contour>
  </outline>
</glyph>
<glyph name="asterisk" format="2">
  <advance width="397"/>
  <unicode hex="002A"/>
  <outline>
    <contour>
      <point x="297" y="363" type="line"/>
      <point x="393" y="420" type="line"/>
      <point x="318" y="538" type="line"/>
      <point x="440" y="541" type="line"/>
      <point x="430" y="651" type="line"/>
      <point x="310" y="619" type="line"/>
      <point x="342" y="753" type="line"/>
      <point x="231" y="767" type="line"/>
      <point x="227" y="628" type="line"/>
      <point x="119" y="690" type="line"/>
      <point x="82" y="586" type="line"/>
      <point x="199" y="552" type="line"/>
      <point x="97" y="457" type="line"/>
      <point x="177" y="378" type="line"/>
      <point x="253" y="490" type="line"/>
    </contour>
  </outline>
</glyph>
<glyph name="plus" format="2">
  <advance width="462"/>
  <unicode hex="002B"/>
  <outline>
    <contour>
      <point x="306" y="406" type="line"/>
      <point x="306" y="594" type="line"/>
      <point x="197" y="594" type="line"/>
      <point x="197" y="406" type="line"/>
      <point x="52" y="406" type="line"/>
      <point x="52" y="300" type="line"/>
      <point x="197" y="300" type="line"/>
      <point x="197" y="114" type="line"/>
      <point x="306" y="114" type="line"/>
      <point x="306" y="300" type="line"/>
      <point x="450" y="300" type="line"/>
      <point x="450" y="406" type="line"/>
    </contour>
  </outline>
</glyph>
<glyph name="comma" format="2">
  <advance width="229"/>
  <unicode hex="002C"/>
  <outline>
    <contour>
      <point x="-52" y="-135" type="curve"/>
      <point x="46" y="-135" type="line"/>
      <point x="88" y="-63"/>
      <point x="128" y="25"/>
      <point x="161" y="119" type="curve"/>
      <point x="158" y="130" type="line"/>
      <point x="39" y="130" type="line"/>
      <point x="18" y="51"/>
      <point x="-22" y="-58"/>
    </contour>
  </outline>
</glyph>
<glyph name="hyphen" format="2">
  <advance width="280"/>
  <unicode hex="002D"/>
  <outline>
    <contour>
      <point x="12" y="211" type="line"/>
      <point x="242" y="211" type="line"/>
      <point x="267" y="326" type="line"/>
      <point x="36" y="326" type="line"/>
    </contour>
  </outline>
</glyph>
<glyph name="period" format="2">
  <advance width="229"/>
  <unicode hex="002E"/>
  <outline>
    <contour>
      <point x="64" y="-10" type="curve" smooth="yes"/>
      <point x="108" y="-10"/>
      <point x="150" y="31"/>
      <point x="150" y="90" type="curve" smooth="yes"/>
      <point x="150" y="125"/>
      <point x="129" y="146"/>
      <point x="93" y="146" type="curve" smooth="yes"/>
      <point x="35" y="146"/>
      <point x="3" y="98"/>
      <point x="3" y="46" type="curve" smooth="yes"/>
      <point x="3" y="9"/>
      <point x="25" y="-10"/>
    </contour>
  </outline>
</glyph>
<glyph name="slash" format="2">
  <advance width="362"/>
  <unicode hex="002F"/>
  <outline>
    <contour>
      <point x="-52" y="-6" type="line"/>
      <point x="59" y="-6" type="line"/>
      <point x="448" y="720" type="line"/>
      <point x="336" y="720" type="line"/>
    </contour>
  </outline>
</glyph>
<glyph name="zero" format="2">
  <advance width="428"/>
  <unicode hex="0030"/>
  <outline>
    <contour>
      <point x="162" y="-10" type="curve" smooth="yes"/>
      <point x="347" y="-10"/>
      <point x="431" y="353"/>
      <point x="431" y="537" type="curve" smooth="yes"/>
      <point x="431" y="667"/>
      <point x="387" y="724"/>
      <point x="296" y="724" type="curve" smooth="yes"/>
      <point x="101" y="724"/>
      <point x="28" y="332"/>
      <point x="28" y="175" type="curve" smooth="yes"/>
      <point x="28" y="47"/>
      <point x="71" y="-10"/>
    </contour>
    <contour>
      <point x="176" y="101" type="curve" smooth="yes"/>
      <point x="153" y="101"/>
      <point x="144" y="123"/>
      <point x="144" y="172" type="curve" smooth="yes"/>
      <point x="144" y="267"/>
      <point x="209" y="613"/>
      <point x="283" y="613" type="curve" smooth="yes"/>
      <point x="306" y="613"/>
      <point x="314" y="590"/>
      <point x="314" y="544" type="curve" smooth="yes"/>
      <point x="314" y="435"/>
      <point x="250" y="101"/>
    </contour>
  </outline>
</glyph>
<glyph name="one" format="2">
  <advance width="428"/>
  <unicode hex="0031"/>
  <outline>
    <contour>
      <point x="232" y="437" type="curve" smooth="yes"/>
      <point x="140" y="0" type="line"/>
      <point x="263" y="0" type="line"/>
      <point x="415" y="714" type="line"/>
      <point x="304" y="714" type="line"/>
      <point x="96" y="521" type="line"/>
      <point x="152" y="443" type="line"/>
      <point x="224" y="510" type="line" smooth="yes"/>
      <point x="237" y="521"/>
      <point x="248" y="534"/>
      <point x="259" y="546" type="curve"/>
      <point x="246" y="499"/>
      <point x="241" y="480"/>
    </contour>
  </outline>
</glyph>
<glyph name="two" format="2">
  <advance width="428"/>
  <unicode hex="0032"/>
  <outline>
    <contour>
      <point x="-29" y="0" type="line"/>
      <point x="318" y="0" type="line"/>
      <point x="342" y="110" type="line"/>
      <point x="137" y="110" type="line"/>
      <point x="137" y="113" type="line"/>
      <point x="266" y="259" type="line" smooth="yes"/>
      <point x="358" y="363"/>
      <point x="428" y="464"/>
      <point x="428" y="579" type="curve" smooth="yes"/>
      <point x="428" y="667"/>
      <point x="370" y="724"/>
      <point x="285" y="724" type="curve" smooth="yes"/>
      <point x="216" y="724"/>
      <point x="157" y="694"/>
      <point x="102" y="633" type="curve"/>
      <point x="143" y="545" type="line"/>
      <point x="177" y="576"/>
      <point x="217" y="614"/>
      <point x="256" y="614" type="curve" smooth="yes"/>
      <point x="286" y="614"/>
      <point x="300" y="592"/>
      <point x="300" y="554" type="curve" smooth="yes"/>
      <point x="300" y="466"/>
      <point x="232" y="378"/>
      <point x="160" y="292" type="curve" smooth="yes"/>
      <point x="-11" y="89" type="line"/>
    </contour>
  </outline>
</glyph>
<glyph name="three" format="2">
  <advance width="428"/>
  <unicode hex="0033"/>
  <outline>
    <contour>
      <point x="124" y="-10" type="curve" smooth="yes"/>
      <point x="276" y="-10"/>
      <point x="372" y="99"/>
      <point x="372" y="235" type="curve" smooth="yes"/>
      <point x="372" y="309"/>
      <point x="338" y="355"/>
      <point x="280" y="371" type="curve"/>
      <point x="280" y="374" type="line"/>
      <point x="374" y="405"/>
      <point x="435" y="486"/>
      <point x="435" y="586" type="curve" smooth="yes"/>
      <point x="435" y="681"/>
      <point x="367" y="724"/>
      <point x="282" y="724" type="curve" smooth="yes"/>
      <point x="219" y="724"/>
      <point x="169" y="707"/>
      <point x="113" y="665" type="curve"/>
      <point x="139" y="570" type="line"/>
      <point x="181" y="601"/>
      <point x="220" y="616"/>
      <point x="253" y="616" type="curve" smooth="yes"/>
      <point x="290" y="616"/>
      <point x="307" y="594"/>
      <point x="307" y="554" type="curve" smooth="yes"/>
      <point x="307" y="473"/>
      <point x="253" y="420"/>
      <point x="170" y="420" type="curve" smooth="yes"/>
      <point x="135" y="420" type="line"/>
      <point x="113" y="314" type="line"/>
      <point x="148" y="314" type="line" smooth="yes"/>
      <point x="213" y="314"/>
      <point x="242" y="285"/>
      <point x="242" y="228" type="curve" smooth="yes"/>
      <point x="242" y="151"/>
      <point x="198" y="98"/>
      <point x="124" y="98" type="curve" smooth="yes"/>
      <point x="86" y="98"/>
      <point x="31" y="110"/>
      <point x="-8" y="142" type="curve"/>
      <point x="-9" y="23" type="line"/>
      <point x="35" y="-1"/>
      <point x="68" y="-10"/>
    </contour>
  </outline>
</glyph>
<glyph name="four" format="2">
  <advance width="428"/>
  <unicode hex="0034"/>
  <outline>
    <contour>
      <point x="167" y="0" type="line"/>
      <point x="288" y="0" type="line"/>
      <point x="318" y="147" type="line"/>
      <point x="382" y="147" type="line"/>
      <point x="405" y="251" type="line"/>
      <point x="341" y="251" type="line"/>
      <point x="440" y="717" type="line"/>
      <point x="318" y="717" type="line"/>
      <point x="9" y="245" type="line"/>
      <point x="-12" y="147" type="line"/>
      <point x="197" y="147" type="line"/>
    </contour>
    <contour>
      <point x="107" y="251" type="line"/>
      <point x="246" y="478" type="line" smooth="yes"/>
      <point x="255" y="492"/>
      <point x="263" y="508"/>
      <point x="283" y="545" type="curve"/>
      <point x="286" y="545" type="line"/>
      <point x="280" y="522"/>
      <point x="270" y="492"/>
      <point x="266" y="471" type="curve" smooth="yes"/>
      <point x="220" y="251" type="line"/>
    </contour>
  </outline>
</glyph>
<glyph name="five" format="2">
  <advance width="428"/>
  <unicode hex="0035"/>
  <outline>
    <contour>
      <point x="133" y="-10" type="curve" smooth="yes"/>
      <point x="317" y="-10"/>
      <point x="384" y="147"/>
      <point x="384" y="282" type="curve" smooth="yes"/>
      <point x="384" y="391"/>
      <point x="335" y="454"/>
      <point x="256" y="454" type="curve" smooth="yes"/>
      <point x="240" y="454"/>
      <point x="224" y="452"/>
      <point x="204" y="447" type="curve"/>
      <point x="246" y="603" type="line"/>
      <point x="419" y="603" type="line"/>
      <point x="444" y="714" type="line"/>
      <point x="164" y="714" type="line"/>
      <point x="71" y="365" type="line"/>
      <point x="106" y="330" type="line"/>
      <point x="132" y="340"/>
      <point x="155" y="348"/>
      <point x="180" y="348" type="curve" smooth="yes"/>
      <point x="230" y="348"/>
      <point x="254" y="316"/>
      <point x="254" y="258" type="curve" smooth="yes"/>
      <point x="254" y="177"/>
      <point x="211" y="98"/>
      <point x="134" y="98" type="curve" smooth="yes"/>
      <point x="84" y="98"/>
      <point x="38" y="116"/>
      <point x="7" y="144" type="curve"/>
      <point x="6" y="17" type="line"/>
      <point x="35" y="1"/>
      <point x="77" y="-10"/>
    </contour>
  </outline>
</glyph>
<glyph name="six" format="2">
  <advance width="428"/>
  <unicode hex="0036"/>
  <outline>
    <contour>
      <point x="179" y="-10" type="curve" smooth="yes"/>
      <point x="335" y="-10"/>
      <point x="400" y="175"/>
      <point x="400" y="305" type="curve" smooth="yes"/>
      <point x="400" y="397"/>
      <point x="369" y="464"/>
      <point x="293" y="464" type="curve" smooth="yes"/>
      <point x="247" y="464"/>
      <point x="208" y="438"/>
      <point x="180" y="396" type="curve"/>
      <point x="178" y="396" type="line"/>
      <point x="225" y="533"/>
      <point x="281" y="618"/>
      <point x="363" y="618" type="curve" smooth="yes"/>
      <point x="386" y="618"/>
      <point x="410" y="614"/>
      <point x="435" y="606" type="curve"/>
      <point x="459" y="714" type="line"/>
      <point x="432" y="721"/>
      <point x="404" y="724"/>
      <point x="371" y="724" type="curve" smooth="yes"/>
      <point x="272" y="724"/>
      <point x="215" y="676"/>
      <point x="167" y="617" type="curve" smooth="yes"/>
      <point x="79" y="509"/>
      <point x="28" y="331"/>
      <point x="28" y="188" type="curve" smooth="yes"/>
      <point x="28" y="67"/>
      <point x="72" y="-10"/>
    </contour>
    <contour>
      <point x="187" y="99" type="curve" smooth="yes"/>
      <point x="164" y="99"/>
      <point x="150" y="126"/>
      <point x="150" y="177" type="curve" smooth="yes"/>
      <point x="150" y="221"/>
      <point x="160" y="278"/>
      <point x="178" y="309" type="curve" smooth="yes"/>
      <point x="193" y="335"/>
      <point x="212" y="358"/>
      <point x="238" y="358" type="curve" smooth="yes"/>
      <point x="262" y="358"/>
      <point x="275" y="335"/>
      <point x="275" y="294" type="curve" smooth="yes"/>
      <point x="275" y="233"/>
      <point x="252" y="99"/>
    </contour>
  </outline>
</glyph>
<glyph name="seven" format="2">
  <advance width="428"/>
  <unicode hex="0037"/>
  <outline>
    <contour>
      <point x="28" y="0" type="line"/>
      <point x="156" y="0" type="line"/>
      <point x="460" y="628" type="line"/>
      <point x="479" y="713" type="line"/>
      <point x="122" y="713" type="line"/>
      <point x="99" y="602" type="line"/>
      <point x="330" y="602" type="line"/>
    </contour>
  </outline>
</glyph>
<glyph name="eight" format="2">
  <advance width="428"/>
  <unicode hex="0038"/>
  <outline>
    <contour>
      <point x="174" y="-10" type="curve" smooth="yes"/>
      <point x="296" y="-10"/>
      <point x="380" y="94"/>
      <point x="380" y="208" type="curve" smooth="yes"/>
      <point x="380" y="271"/>
      <point x="358" y="323"/>
      <point x="306" y="374" type="curve"/>
      <point x="392" y="424"/>
      <point x="443" y="495"/>
      <point x="443" y="584" type="curve" smooth="yes"/>
      <point x="443" y="673"/>
      <point x="385" y="724"/>
      <point x="296" y="724" type="curve" smooth="yes"/>
      <point x="172" y="724"/>
      <point x="99" y="636"/>
      <point x="99" y="520" type="curve" smooth="yes"/>
      <point x="99" y="469"/>
      <point x="116" y="418"/>
      <point x="153" y="375" type="curve"/>
      <point x="57" y="317"/>
      <point x="3" y="248"/>
      <point x="3" y="147" type="curve" smooth="yes"/>
      <point x="3" y="48"/>
      <point x="66" y="-10"/>
    </contour>
    <contour>
      <point x="176" y="91" type="curve" smooth="yes"/>
      <point x="142" y="91"/>
      <point x="122" y="119"/>
      <point x="122" y="157" type="curve" smooth="yes"/>
      <point x="122" y="229"/>
      <point x="163" y="278"/>
      <point x="215" y="312" type="curve"/>
      <point x="244" y="279"/>
      <point x="262" y="242"/>
      <point x="262" y="201" type="curve" smooth="yes"/>
      <point x="262" y="145"/>
      <point x="234" y="91"/>
    </contour>
    <contour>
      <point x="246" y="437" type="curve"/>
      <point x="227" y="462"/>
      <point x="214" y="492"/>
      <point x="214" y="527" type="curve" smooth="yes"/>
      <point x="214" y="585"/>
      <point x="239" y="623"/>
      <point x="279" y="623" type="curve" smooth="yes"/>
      <point x="306" y="623"/>
      <point x="323" y="604"/>
      <point x="323" y="565" type="curve" smooth="yes"/>
      <point x="323" y="515"/>
      <point x="299" y="471"/>
    </contour>
  </outline>
</glyph>
<glyph name="nine" format="2">
  <advance width="428"/>
  <unicode hex="0039"/>
  <outline>
    <contour>
      <point x="102" y="-10" type="curve" smooth="yes"/>
      <point x="236" y="-10"/>
      <point x="317" y="96"/>
      <point x="365" y="212" type="curve" smooth="yes"/>
      <point x="407" y="314"/>
      <point x="430" y="439"/>
      <point x="430" y="528" type="curve" smooth="yes"/>
      <point x="430" y="654"/>
      <point x="379" y="724"/>
      <point x="283" y="724" type="curve" smooth="yes"/>
      <point x="123" y="724"/>
      <point x="58" y="531"/>
      <point x="58" y="403" type="curve" smooth="yes"/>
      <point x="58" y="316"/>
      <point x="89" y="250"/>
      <point x="165" y="250" type="curve" smooth="yes"/>
      <point x="210" y="250"/>
      <point x="249" y="277"/>
      <point x="277" y="318" type="curve"/>
      <point x="280" y="318" type="line"/>
      <point x="243" y="174"/>
      <point x="183" y="96"/>
      <point x="97" y="96" type="curve" smooth="yes"/>
      <point x="64" y="96"/>
      <point x="30" y="101"/>
      <point x="6" y="110" type="curve"/>
      <point x="6" y="2" type="line"/>
      <point x="33" y="-5"/>
      <point x="61" y="-10"/>
    </contour>
    <contour>
      <point x="220" y="356" type="curve" smooth="yes"/>
      <point x="197" y="356"/>
      <point x="184" y="380"/>
      <point x="184" y="422" type="curve" smooth="yes"/>
      <point x="184" y="486"/>
      <point x="213" y="615"/>
      <point x="272" y="615" type="curve" smooth="yes"/>
      <point x="296" y="615"/>
      <point x="309" y="589"/>
      <point x="309" y="537" type="curve" smooth="yes"/>
      <point x="309" y="487"/>
      <point x="298" y="434"/>
      <point x="277" y="399" type="curve" smooth="yes"/>
      <point x="262" y="375"/>
      <point x="244" y="356"/>
    </contour>
  </outline>
</glyph>
<glyph name="colon" format="2">
  <advance width="229"/>
  <unicode hex="003A"/>
  <outline>
    <contour>
      <point x="147" y="396" type="curve" smooth="yes"/>
      <point x="193" y="396"/>
      <point x="232" y="436"/>
      <point x="232" y="495" type="curve" smooth="yes"/>
      <point x="232" y="529"/>
      <point x="212" y="551"/>
      <point x="177" y="551" type="curve" smooth="yes"/>
      <point x="118" y="551"/>
      <point x="87" y="502"/>
      <point x="87" y="451" type="curve" smooth="yes"/>
      <point x="87" y="414"/>
      <point x="109" y="396"/>
    </contour>
    <contour>
      <point x="61" y="-10" type="curve" smooth="yes"/>
      <point x="105" y="-10"/>
      <point x="147" y="31"/>
      <point x="147" y="90" type="curve" smooth="yes"/>
      <point x="147" y="125"/>
      <point x="126" y="146"/>
      <point x="90" y="146" type="curve" smooth="yes"/>
      <point x="32" y="146"/>
      <point x="0" y="98"/>
      <point x="0" y="46" type="curve" smooth="yes"/>
      <point x="0" y="9"/>
      <point x="22" y="-10"/>
    </contour>
  </outline>
</glyph>
<glyph name="semicolon" format="2">
  <advance width="229"/>
  <unicode hex="003B"/>
  <outline>
    <contour>
      <point x="-54" y="-135" type="curve"/>
      <point x="43" y="-135" type="line"/>
      <point x="86" y="-62"/>
      <point x="125" y="26"/>
      <point x="159" y="119" type="curve"/>
      <point x="156" y="130" type="line"/>
      <point x="37" y="130" type="line"/>
      <point x="12" y="40"/>
      <point x="-19" y="-49"/>
    </contour>
    <contour>
      <point x="150" y="396" type="curve" smooth="yes"/>
      <point x="196" y="396"/>
      <point x="235" y="436"/>
      <point x="235" y="495" type="curve" smooth="yes"/>
      <point x="235" y="529"/>
      <point x="214" y="551"/>
      <point x="179" y="551" type="curve" smooth="yes"/>
      <point x="121" y="551"/>
      <point x="89" y="502"/>
      <point x="89" y="451" type="curve" smooth="yes"/>
      <point x="89" y="414"/>
      <point x="111" y="396"/>
    </contour>
  </outline>
</glyph>
<glyph name="equal" format="2">
  <advance width="462"/>
  <unicode hex="003D"/>
  <outline>
    <contour>
      <point x="52" y="409" type="line"/>
      <point x="450" y="409" type="line"/>
      <point x="450" y="515" type="line"/>
      <point x="52" y="515" type="line"/>
    </contour>
    <contour>
      <point x="52" y="189" type="line"/>
      <point x="450" y="189" type="line"/>
      <point x="450" y="296" type="line"/>
      <point x="52" y="296" type="line"/>
    </contour>
  </outline>
</glyph>
<glyph name="greater" format="2">
  <advance width="462"/>
  <unicode hex="003E"/>
  <outline>
    <contour>
      <point x="51" y="238" type="line"/>
      <point x="51" y="120" type="line"/>
      <point x="453" y="324" type="line"/>
      <point x="453" y="394" type="line"/>
      <point x="51" y="597" type="line"/>
      <point x="51" y="478" type="line"/>
      <point x="300" y="359" type="line"/>
    </contour>
  </outline>
</glyph>
<glyph name="question" format="2">
  <advance width="329"/>
  <unicode hex="003F"/>
  <outline>
    <contour>
      <point x="76" y="226" type="curve"/>
      <point x="178" y="226" type="line"/>
      <point x="193" y="298"/>
      <point x="201" y="315"/>
      <point x="258" y="373" type="curve" smooth="yes"/>
      <point x="320" y="436"/>
      <point x="376" y="502"/>
      <point x="376" y="597" type="curve" smooth="yes"/>
      <point x="376" y="676"/>
      <point x="329" y="724"/>
      <point x="241" y="724" type="curve" smooth="yes"/>
      <point x="189" y="724"/>
      <point x="136" y="705"/>
      <point x="84" y="665" type="curve"/>
      <point x="101" y="571" type="line"/>
      <point x="134" y="594"/>
      <point x="171" y="615"/>
      <point x="209" y="615" type="curve" smooth="yes"/>
      <point x="240" y="615"/>
      <point x="256" y="599"/>
      <point x="256" y="564" type="curve" smooth="yes"/>
      <point x="256" y="521"/>
      <point x="232" y="488"/>
      <point x="163" y="412" type="curve" smooth="yes"/>
      <point x="114" y="359"/>
      <point x="96" y="324"/>
    </contour>
    <contour>
      <point x="84" y="-10" type="curve" smooth="yes"/>
      <point x="129" y="-10"/>
      <point x="170" y="31"/>
      <point x="170" y="90" type="curve" smooth="yes"/>
      <point x="170" y="125"/>
      <point x="149" y="146"/>
      <point x="114" y="146" type="curve" smooth="yes"/>
      <point x="55" y="146"/>
      <point x="23" y="98"/>
      <point x="23" y="46" type="curve" smooth="yes"/>
      <point x="23" y="9"/>
      <point x="45" y="-10"/>
    </contour>
  </outline>
</glyph>
<glyph name="at" format="2">
  <advance width="639"/>
  <unicode hex="0040"/>
  <outline>
    <contour>
      <point x="259" y="-80" type="curve" smooth="yes"/>
      <point x="310" y="-80"/>
      <point x="373" y="-64"/>
      <point x="424" y="-39" type="curve"/>
      <point x="425" y="35" type="line"/>
      <point x="367" y="8"/>
      <point x="313" y="-4"/>
      <point x="258" y="-4" type="curve" smooth="yes"/>
      <point x="152" y="-4"/>
      <point x="107" y="67"/>
      <point x="107" y="173" type="curve" smooth="yes"/>
      <point x="107" y="396"/>
      <point x="226" y="646"/>
      <point x="415" y="646" type="curve" smooth="yes"/>
      <point x="503" y="646"/>
      <point x="554" y="588"/>
      <point x="554" y="472" type="curve" smooth="yes"/>
      <point x="554" y="388"/>
      <point x="519" y="188"/>
      <point x="449" y="188" type="curve" smooth="yes"/>
      <point x="439" y="188"/>
      <point x="433" y="198"/>
      <point x="433" y="219" type="curve" smooth="yes"/>
      <point x="433" y="228"/>
      <point x="436" y="244"/>
      <point x="440" y="262" type="curve" smooth="yes"/>
      <point x="500" y="510" type="line"/>
      <point x="470" y="525"/>
      <point x="432" y="535"/>
      <point x="383" y="535" type="curve" smooth="yes"/>
      <point x="246" y="535"/>
      <point x="178" y="339"/>
      <point x="178" y="226" type="curve" smooth="yes"/>
      <point x="178" y="152"/>
      <point x="207" y="114"/>
      <point x="271" y="114" type="curve" smooth="yes"/>
      <point x="302" y="114"/>
      <point x="335" y="140"/>
      <point x="361" y="183" type="curve"/>
      <point x="363" y="183" type="line"/>
      <point x="371" y="140"/>
      <point x="388" y="114"/>
      <point x="444" y="114" type="curve" smooth="yes"/>
      <point x="561" y="114"/>
      <point x="637" y="327"/>
      <point x="637" y="480" type="curve" smooth="yes"/>
      <point x="637" y="628"/>
      <point x="552" y="722"/>
      <point x="422" y="722" type="curve" smooth="yes"/>
      <point x="182" y="722"/>
      <point x="23" y="443"/>
      <point x="23" y="165" type="curve" smooth="yes"/>
      <point x="23" y="15"/>
      <point x="105" y="-80"/>
    </contour>
    <contour>
      <point x="292" y="189" type="curve" smooth="yes"/>
      <point x="275" y="189"/>
      <point x="267" y="203"/>
      <point x="267" y="236" type="curve" smooth="yes"/>
      <point x="267" y="314"/>
      <point x="308" y="460"/>
      <point x="373" y="460" type="curve" smooth="yes"/>
      <point x="385" y="460"/>
      <point x="392" y="459"/>
      <point x="401" y="456" type="curve"/>
      <point x="366" y="319" type="line" smooth="yes"/>
      <point x="344" y="232"/>
      <point x="319" y="189"/>
    </contour>
  </outline>
</glyph>
<glyph name="A" format="2">
  <advance width="464"/>
  <unicode hex="0041"/>
  <anchor x="177" y="0" name="bottom"/>
  <anchor x="324" y="716" name="top"/>
  <anchor x="541" y="714" name="topright"/>
  <outline>
    <contour>
      <point x="-61" y="0" type="line"/>
      <point x="76" y="0" type="line"/>
      <point x="146" y="182" type="line"/>
      <point x="275" y="182" type="line"/>
      <point x="271" y="0" type="line"/>
      <point x="403" y="0" type="line"/>
      <point x="399" y="717" type="line"/>
      <point x="240" y="717" type="line"/>
    </contour>
    <contour>
      <point x="189" y="292" type="line"/>
      <point x="265" y="511" type="line" smooth="yes"/>
      <point x="276" y="544"/>
      <point x="286" y="572"/>
      <point x="291" y="601" type="curve"/>
      <point x="294" y="601" type="line"/>
      <point x="291" y="570"/>
      <point x="290" y="541"/>
      <point x="289" y="509" type="curve" smooth="yes"/>
      <point x="282" y="292" type="line"/>
    </contour>
  </outline>
</glyph>
<glyph name="B" format="2">
  <advance width="468"/>
  <unicode hex="0042"/>
  <anchor x="189" y="0" name="bottom"/>
  <anchor x="331" y="714" name="top"/>
  <anchor x="545" y="714" name="topright"/>
  <outline>
    <contour>
      <point x="-3" y="0" type="line"/>
      <point x="188" y="0" type="line" smooth="yes"/>
      <point x="342" y="0"/>
      <point x="423" y="115"/>
      <point x="423" y="242" type="curve" smooth="yes"/>
      <point x="423" y="304"/>
      <point x="396" y="354"/>
      <point x="350" y="371" type="curve"/>
      <point x="351" y="375" type="line"/>
      <point x="440" y="402"/>
      <point x="480" y="482"/>
      <point x="480" y="568" type="curve" smooth="yes"/>
      <point x="480" y="672"/>
      <point x="401" y="714"/>
      <point x="311" y="714" type="curve" smooth="yes"/>
      <point x="148" y="714" type="line"/>
    </contour>
    <contour>
      <point x="189" y="107" type="curve" smooth="yes"/>
      <point x="145" y="107" type="line"/>
      <point x="190" y="320" type="line"/>
      <point x="233" y="320" type="line" smooth="yes"/>
      <point x="271" y="320"/>
      <point x="294" y="296"/>
      <point x="294" y="248" type="curve" smooth="yes"/>
      <point x="294" y="172"/>
      <point x="261" y="107"/>
    </contour>
    <contour>
      <point x="251" y="422" type="curve" smooth="yes"/>
      <point x="212" y="422" type="line"/>
      <point x="252" y="609" type="line"/>
      <point x="287" y="609" type="line" smooth="yes"/>
      <point x="328" y="609"/>
      <point x="348" y="588"/>
      <point x="348" y="547" type="curve" smooth="yes"/>
      <point x="348" y="483"/>
      <point x="312" y="422"/>
    </contour>
  </outline>
</glyph>
<glyph name="C" format="2">
  <advance width="424"/>
  <unicode hex="0043"/>
  <anchor x="190" y="0" name="bottom"/>
  <anchor x="342" y="714" name="top"/>
  <anchor x="501" y="714" name="topright"/>
  <outline>
    <contour>
      <point x="203" y="-10" type="curve" smooth="yes"/>
      <point x="250" y="-10"/>
      <point x="304" y="-1"/>
      <point x="347" y="20" type="curve"/>
      <point x="348" y="132" type="line"/>
      <point x="310" y="114"/>
      <point x="274" y="101"/>
      <point x="237" y="101" type="curve" smooth="yes"/>
      <point x="190" y="101"/>
      <point x="167" y="138"/>
      <point x="167" y="225" type="curve" smooth="yes"/>
      <point x="167" y="336"/>
      <point x="225" y="614"/>
      <point x="352" y="614" type="curve" smooth="yes"/>
      <point x="379" y="614"/>
      <point x="405" y="603"/>
      <point x="432" y="581" type="curve"/>
      <point x="493" y="681" type="line"/>
      <point x="452" y="712"/>
      <point x="402" y="724"/>
      <point x="349" y="724" type="curve" smooth="yes"/>
      <point x="147" y="724"/>
      <point x="35" y="436"/>
      <point x="35" y="218" type="curve" smooth="yes"/>
      <point x="35" y="73"/>
      <point x="93" y="-10"/>
    </contour>
  </outline>
</glyph>
<glyph name="D" format="2">
  <advance width="497"/>
  <unicode hex="0044"/>
  <anchor x="194" y="0" name="bottom"/>
  <anchor x="281" y="357" name="center"/>
  <anchor x="335" y="714" name="top"/>
  <anchor x="574" y="714" name="topright"/>
  <outline>
    <contour>
      <point x="-2" y="0" type="line"/>
      <point x="149" y="0" type="line" smooth="yes"/>
      <point x="394" y="0"/>
      <point x="494" y="277"/>
      <point x="494" y="496" type="curve" smooth="yes"/>
      <point x="494" y="635"/>
      <point x="422" y="714"/>
      <point x="289" y="714" type="curve" smooth="yes"/>
      <point x="149" y="714" type="line"/>
    </contour>
    <contour>
      <point x="167" y="112" type="curve" smooth="yes"/>
      <point x="146" y="112" type="line"/>
      <point x="250" y="603" type="line"/>
      <point x="276" y="603" type="line" smooth="yes"/>
      <point x="333" y="603"/>
      <point x="362" y="566"/>
      <point x="362" y="484" type="curve" smooth="yes"/>
      <point x="362" y="348"/>
      <point x="307" y="112"/>
    </contour>
  </outline>
</glyph>
<glyph name="E" format="2">
  <advance width="388"/>
  <unicode hex="0045"/>
  <anchor x="139" y="0" name="bottom"/>
  <anchor x="294" y="714" name="top"/>
  <anchor x="464" y="714" name="topright"/>
  <outline>
    <contour>
      <point x="-2" y="0" type="line"/>
      <point x="287" y="0" type="line"/>
      <point x="310" y="110" type="line"/>
      <point x="146" y="110" type="line"/>
      <point x="190" y="316" type="line"/>
      <point x="342" y="316" type="line"/>
      <point x="365" y="425" type="line"/>
      <point x="213" y="425" type="line"/>
      <point x="251" y="605" type="line"/>
      <point x="415" y="605" type="line"/>
      <point x="438" y="714" type="line"/>
      <point x="149" y="714" type="line"/>
    </contour>
  </outline>
</glyph>
<glyph name="F" format="2">
  <advance width="371"/>
  <unicode hex="0046"/>
  <anchor x="131" y="0" name="bottom"/>
  <anchor x="292" y="714" name="top"/>
  <anchor x="448" y="714" name="topright"/>
  <outline>
    <contour>
      <point x="-2" y="0" type="line"/>
      <point x="123" y="0" type="line"/>
      <point x="184" y="290" type="line"/>
      <point x="335" y="290" type="line"/>
      <point x="359" y="399" type="line"/>
      <point x="207" y="399" type="line"/>
      <point x="251" y="605" type="line"/>
      <point x="415" y="605" type="line"/>
      <point x="437" y="714" type="line"/>
      <point x="149" y="714" type="line"/>
    </contour>
  </outline>
</glyph>
<glyph name="G" format="2">
  <advance width="511"/>
  <unicode hex="0047"/>
  <anchor x="231" y="0" name="bottom"/>
  <anchor x="377" y="714" name="top"/>
  <anchor x="589" y="714" name="topright"/>
  <outline>
    <contour>
      <point x="238" y="-10" type="curve" smooth="yes"/>
      <point x="285" y="-10"/>
      <point x="348" y="3"/>
      <point x="413" y="28" type="curve"/>
      <point x="491" y="398" type="line"/>
      <point x="291" y="398" type="line"/>
      <point x="269" y="291" type="line"/>
      <point x="344" y="291" type="line"/>
      <point x="307" y="110" type="line"/>
      <point x="288" y="104"/>
      <point x="268" y="101"/>
      <point x="249" y="101" type="curve" smooth="yes"/>
      <point x="194" y="101"/>
      <point x="166" y="142"/>
      <point x="166" y="230" type="curve" smooth="yes"/>
      <point x="166" y="400"/>
      <point x="247" y="614"/>
      <point x="370" y="614" type="curve" smooth="yes"/>
      <point x="411" y="614"/>
      <point x="449" y="600"/>
      <point x="485" y="573" type="curve"/>
      <point x="542" y="679" type="line"/>
      <point x="504" y="706"/>
      <point x="446" y="724"/>
      <point x="382" y="724" type="curve" smooth="yes"/>
      <point x="158" y="724"/>
      <point x="36" y="468"/>
      <point x="36" y="218" type="curve" smooth="yes"/>
      <point x="36" y="71"/>
      <point x="101" y="-10"/>
    </contour>
  </outline>
</glyph>
<glyph name="I" format="2">
  <advance width="313"/>
  <unicode hex="0049"/>
  <anchor x="102" y="0" name="bottom"/>
  <anchor x="251" y="714" name="top"/>
  <anchor x="391" y="714" name="topright"/>
  <outline>
    <contour>
      <point x="-42" y="0" type="line"/>
      <point x="238" y="0" type="line"/>
      <point x="253" y="66" type="line"/>
      <point x="180" y="95" type="line"/>
      <point x="290" y="619" type="line"/>
      <point x="375" y="648" type="line"/>
      <point x="389" y="714" type="line"/>
      <point x="108" y="714" type="line"/>
      <point x="95" y="648" type="line"/>
      <point x="166" y="619" type="line"/>
      <point x="55" y="95" type="line"/>
      <point x="-28" y="66" type="line"/>
    </contour>
  </outline>
</glyph>
<glyph name="J" format="2">
  <advance width="237"/>
  <unicode hex="004A"/>
  <anchor x="-71" y="-208" name="bottom"/>
  <anchor x="215" y="714" name="top"/>
  <anchor x="314" y="714" name="topright"/>
  <outline>
    <contour>
      <point x="-71" y="-208" type="curve" smooth="yes"/>
      <point x="25" y="-208"/>
      <point x="93" y="-147"/>
      <point x="125" y="5" type="curve" smooth="yes"/>
      <point x="275" y="714" type="line"/>
      <point x="150" y="714" type="line"/>
      <point x="4" y="24" type="line" smooth="yes"/>
      <point x="-9" y="-37"/>
      <point x="-27" y="-99"/>
      <point x="-77" y="-99" type="curve" smooth="yes"/>
      <point x="-93" y="-99"/>
      <point x="-109" y="-95"/>
      <point x="-126" y="-87" type="curve"/>
      <point x="-151" y="-196" type="line"/>
      <point x="-130" y="-204"/>
      <point x="-107" y="-208"/>
    </contour>
  </outline>
</glyph>
<glyph name="K" format="2">
  <advance width="455"/>
  <unicode hex="004B"/>
  <anchor x="182" y="0" name="bottom"/>
  <anchor x="344" y="714" name="top"/>
  <anchor x="531" y="714" name="topright"/>
  <outline>
    <contour>
      <point x="-2" y="0" type="line"/>
      <point x="123" y="0" type="line"/>
      <point x="177" y="255" type="line"/>
      <point x="217" y="292" type="line"/>
      <point x="263" y="0" type="line"/>
      <point x="400" y="0" type="line"/>
      <point x="327" y="382" type="line"/>
      <point x="549" y="714" type="line"/>
      <point x="412" y="714" type="line"/>
      <point x="250" y="470" type="line"/>
      <point x="206" y="394" type="line"/>
      <point x="274" y="714" type="line"/>
      <point x="149" y="714" type="line"/>
    </contour>
  </outline>
</glyph>
<glyph name="L" format="2">
  <advance width="365"/>
  <unicode hex="004C"/>
  <anchor x="137" y="0" name="bottom"/>
  <anchor x="135" y="357" name="center"/>
  <anchor x="210" y="714" name="top"/>
  <anchor x="381" y="714" name="topright"/>
  <outline>
    <contour>
      <point x="-2" y="0" type="line"/>
      <point x="291" y="0" type="line"/>
      <point x="314" y="110" type="line"/>
      <point x="146" y="110" type="line"/>
      <point x="274" y="714" type="line"/>
      <point x="149" y="714" type="line"/>
    </contour>
  </outline>
</glyph>
<glyph name="M" format="2">
  <advance width="685"/>
  <unicode hex="004D"/>
  <anchor x="288" y="0" name="bottom"/>
  <anchor x="429" y="714" name="top"/>
  <anchor x="761" y="714" name="topright"/>
  <outline>
    <contour>
      <point x="-2" y="0" type="line"/>
      <point x="116" y="0" type="line"/>
      <point x="194" y="373" type="line" smooth="yes"/>
      <point x="201" y="405"/>
      <point x="206" y="440"/>
      <point x="213" y="481" type="curve"/>
      <point x="216" y="481" type="line"/>
      <point x="227" y="0" type="line"/>
      <point x="336" y="0" type="line"/>
      <point x="549" y="484" type="line"/>
      <point x="551" y="484" type="line"/>
      <point x="544" y="455"/>
      <point x="536" y="428"/>
      <point x="530" y="401" type="curve" smooth="yes"/>
      <point x="446" y="0" type="line"/>
      <point x="568" y="0" type="line"/>
      <point x="720" y="714" type="line"/>
      <point x="543" y="714" type="line"/>
      <point x="330" y="219" type="line"/>
      <point x="327" y="219" type="line"/>
      <point x="315" y="714" type="line"/>
      <point x="149" y="714" type="line"/>
    </contour>
  </outline>
</glyph>
<glyph name="N" format="2">
  <advance width="552"/>
  <unicode hex="004E"/>
  <anchor x="222" y="0" name="bottom"/>
  <anchor x="373" y="714" name="top"/>
  <anchor x="629" y="714" name="topright"/>
  <outline>
    <contour>
      <point x="-2" y="0" type="line"/>
      <point x="115" y="0" type="line"/>
      <point x="183" y="321" type="line"/>
      <point x="190" y="358"/>
      <point x="204" y="429"/>
      <point x="213" y="496" type="curve"/>
      <point x="216" y="496" type="line"/>
      <point x="296" y="0" type="line"/>
      <point x="436" y="0" type="line"/>
      <point x="587" y="714" type="line"/>
      <point x="470" y="714" type="line"/>
      <point x="400" y="388" type="line"/>
      <point x="393" y="351"/>
      <point x="382" y="290"/>
      <point x="372" y="229" type="curve"/>
      <point x="369" y="229" type="line"/>
      <point x="290" y="714" type="line"/>
      <point x="149" y="714" type="line"/>
    </contour>
  </outline>
</glyph>
<glyph name="O" format="2">
  <advance width="527"/>
  <unicode hex="004F"/>
  <anchor x="209" y="0" name="bottom"/>
  <anchor x="284" y="357" name="center"/>
  <anchor x="350" y="714" name="top"/>
  <anchor x="604" y="714" name="topright"/>
  <outline>
    <contour>
      <point x="215" y="-10" type="curve" smooth="yes"/>
      <point x="435" y="-10"/>
      <point x="523" y="315"/>
      <point x="523" y="504" type="curve" smooth="yes"/>
      <point x="523" y="651"/>
      <point x="469" y="725"/>
      <point x="346" y="725" type="curve" smooth="yes"/>
      <point x="143" y="725"/>
      <point x="35" y="435"/>
      <point x="35" y="215" type="curve" smooth="yes"/>
      <point x="35" y="60"/>
      <point x="93" y="-10"/>
    </contour>
    <contour>
      <point x="225" y="102" type="curve" smooth="yes"/>
      <point x="186" y="102"/>
      <point x="166" y="130"/>
      <point x="166" y="214" type="curve" smooth="yes"/>
      <point x="166" y="336"/>
      <point x="221" y="614"/>
      <point x="336" y="614" type="curve" smooth="yes"/>
      <point x="374" y="614"/>
      <point x="394" y="579"/>
      <point x="394" y="506" type="curve" smooth="yes"/>
      <point x="394" y="371"/>
      <point x="335" y="102"/>
    </contour>
  </outline>
</glyph>
<glyph name="P" format="2">
  <advance width="438"/>
  <unicode hex="0050"/>
  <anchor x="164" y="0" name="bottom"/>
  <anchor x="305" y="714" name="top"/>
  <anchor x="514" y="714" name="topright"/>
  <outline>
    <contour>
      <point x="-2" y="0" type="line"/>
      <point x="123" y="0" type="line"/>
      <point x="177" y="258" type="line"/>
      <point x="218" y="258" type="line" smooth="yes"/>
      <point x="386" y="258"/>
      <point x="465" y="404"/>
      <point x="465" y="551" type="curve" smooth="yes"/>
      <point x="465" y="649"/>
      <point x="411" y="714"/>
      <point x="290" y="714" type="curve" smooth="yes"/>
      <point x="149" y="714" type="line"/>
    </contour>
    <contour>
      <point x="219" y="367" type="curve" smooth="yes"/>
      <point x="200" y="367" type="line"/>
      <point x="251" y="605" type="line"/>
      <point x="269" y="605" type="line" smooth="yes"/>
      <point x="314" y="605"/>
      <point x="336" y="584"/>
      <point x="336" y="535" type="curve" smooth="yes"/>
      <point x="336" y="436"/>
      <point x="294" y="367"/>
    </contour>
  </outline>
</glyph>
<glyph name="Q" format="2">
  <advance width="527"/>
  <unicode hex="0051"/>
  <anchor x="173" y="-110" name="bottom"/>
  <anchor x="350" y="714" name="top"/>
  <anchor x="604" y="714" name="topright"/>
  <outline>
    <contour>
      <point x="196" y="-8" type="curve"/>
      <point x="239" y="-170" type="line"/>
      <point x="383" y="-170" type="line"/>
      <point x="320" y="18" type="line"/>
      <point x="464" y="96"/>
      <point x="523" y="348"/>
      <point x="523" y="504" type="curve" smooth="yes"/>
      <point x="523" y="651"/>
      <point x="469" y="725"/>
      <point x="346" y="725" type="curve" smooth="yes"/>
      <point x="143" y="725"/>
      <point x="35" y="435"/>
      <point x="35" y="215" type="curve" smooth="yes"/>
      <point x="35" y="74"/>
      <point x="82" y="4"/>
      <point x="181" y="-7" type="curve" smooth="yes"/>
      <point x="186" y="-8"/>
      <point x="190" y="-8"/>
    </contour>
    <contour>
      <point x="225" y="102" type="curve" smooth="yes"/>
      <point x="186" y="102"/>
      <point x="166" y="130"/>
      <point x="166" y="214" type="curve" smooth="yes"/>
      <point x="166" y="336"/>
      <point x="221" y="614"/>
      <point x="336" y="614" type="curve" smooth="yes"/>
      <point x="374" y="614"/>
      <point x="394" y="579"/>
      <point x="394" y="506" type="curve" smooth="yes"/>
      <point x="394" y="371"/>
      <point x="335" y="102"/>
    </contour>
  </outline>
</glyph>
<glyph name="R" format="2">
  <advance width="457"/>
  <unicode hex="0052"/>
  <anchor x="174" y="0" name="bottom"/>
  <anchor x="325" y="714" name="top"/>
  <anchor x="533" y="714" name="topright"/>
  <outline>
    <contour>
      <point x="-2" y="0" type="line"/>
      <point x="123" y="0" type="line"/>
      <point x="182" y="282" type="line"/>
      <point x="213" y="282" type="line"/>
      <point x="260" y="0" type="line"/>
      <point x="399" y="0" type="line"/>
      <point x="331" y="307" type="line"/>
      <point x="415" y="338"/>
      <point x="469" y="432"/>
      <point x="469" y="553" type="curve" smooth="yes"/>
      <point x="469" y="656"/>
      <point x="408" y="714"/>
      <point x="283" y="714" type="curve" smooth="yes"/>
      <point x="149" y="714" type="line"/>
    </contour>
    <contour>
      <point x="232" y="384" type="curve" smooth="yes"/>
      <point x="204" y="384" type="line"/>
      <point x="251" y="607" type="line"/>
      <point x="270" y="607" type="line" smooth="yes"/>
      <point x="314" y="607"/>
      <point x="337" y="583"/>
      <point x="337" y="536" type="curve" smooth="yes"/>
      <point x="337" y="463"/>
      <point x="304" y="384"/>
    </contour>
  </outline>
</glyph>
<glyph name="S" format="2">
  <advance width="401"/>
  <unicode hex="0053"/>
  <anchor x="146" y="0" name="bottom"/>
  <anchor x="297" y="714" name="top"/>
  <anchor x="477" y="714" name="topright"/>
  <outline>
    <contour>
      <point x="133" y="-10" type="curve" smooth="yes"/>
      <point x="283" y="-10"/>
      <point x="359" y="96"/>
      <point x="359" y="220" type="curve" smooth="yes"/>
      <point x="359" y="299"/>
      <point x="336" y="350"/>
      <point x="280" y="400" type="curve" smooth="yes"/>
      <point x="226" y="448"/>
      <point x="210" y="477"/>
      <point x="210" y="517" type="curve" smooth="yes"/>
      <point x="210" y="577"/>
      <point x="248" y="608"/>
      <point x="293" y="608" type="curve" smooth="yes"/>
      <point x="322" y="608"/>
      <point x="357" y="592"/>
      <point x="392" y="565" type="curve"/>
      <point x="449" y="678" type="line"/>
      <point x="409" y="708"/>
      <point x="351" y="724"/>
      <point x="301" y="724" type="curve" smooth="yes"/>
      <point x="156" y="724"/>
      <point x="79" y="631"/>
      <point x="79" y="504" type="curve" smooth="yes"/>
      <point x="79" y="423"/>
      <point x="106" y="375"/>
      <point x="163" y="322" type="curve" smooth="yes"/>
      <point x="215" y="273"/>
      <point x="226" y="246"/>
      <point x="226" y="206" type="curve" smooth="yes"/>
      <point x="226" y="136"/>
      <point x="183" y="108"/>
      <point x="134" y="108" type="curve" smooth="yes"/>
      <point x="89" y="108"/>
      <point x="39" y="132"/>
      <point x="6" y="159" type="curve"/>
      <point x="-20" y="30" type="line"/>
      <point x="19" y="2"/>
      <point x="69" y="-10"/>
    </contour>
  </outline>
</glyph>
<glyph name="T" format="2">
  <advance width="383"/>
  <unicode hex="0054"/>
  <anchor x="130" y="0" name="bottom"/>
  <anchor x="205" y="357" name="center"/>
  <anchor x="279" y="714" name="top"/>
  <anchor x="459" y="714" name="topright"/>
  <outline>
    <contour>
      <point x="69" y="0" type="line"/>
      <point x="194" y="0" type="line"/>
      <point x="322" y="603" type="line"/>
      <point x="438" y="603" type="line"/>
      <point x="462" y="714" type="line"/>
      <point x="105" y="714" type="line"/>
      <point x="80" y="603" type="line"/>
      <point x="197" y="603" type="line"/>
    </contour>
  </outline>
</glyph>
<glyph name="U" format="2">
  <advance width="501"/>
  <unicode hex="0055"/>
  <anchor x="188" y="0" name="bottom"/>
  <anchor x="337" y="714" name="top"/>
  <anchor x="577" y="714" name="topright"/>
  <outline>
    <contour>
      <point x="196" y="-10" type="curve" smooth="yes"/>
      <point x="335" y="-10"/>
      <point x="403" y="75"/>
      <point x="434" y="222" type="curve" smooth="yes"/>
      <point x="539" y="714" type="line"/>
      <point x="413" y="714" type="line"/>
      <point x="312" y="239" type="line" smooth="yes"/>
      <point x="291" y="142"/>
      <point x="265" y="102"/>
      <point x="214" y="102" type="curve" smooth="yes"/>
      <point x="179" y="102"/>
      <point x="161" y="124"/>
      <point x="161" y="171" type="curve" smooth="yes"/>
      <point x="161" y="188"/>
      <point x="164" y="210"/>
      <point x="169" y="234" type="curve" smooth="yes"/>
      <point x="271" y="714" type="line"/>
      <point x="146" y="714" type="line"/>
      <point x="44" y="237" type="line" smooth="yes"/>
      <point x="38" y="207"/>
      <point x="34" y="175"/>
      <point x="34" y="151" type="curve" smooth="yes"/>
      <point x="34" y="50"/>
      <point x="95" y="-10"/>
    </contour>
  </outline>
</glyph>
<glyph name="V" format="2">
  <advance width="457"/>
  <unicode hex="0056"/>
  <anchor x="164" y="0" name="bottom"/>
  <anchor x="314" y="714" name="top"/>
  <anchor x="534" y="714" name="topright"/>
  <outline>
    <contour>
      <point x="97" y="0" type="line"/>
      <point x="241" y="0" type="line"/>
      <point x="546" y="714" type="line"/>
      <point x="413" y="714" type="line"/>
      <point x="247" y="298" type="line" smooth="yes"/>
      <point x="228" y="251"/>
      <point x="215" y="209"/>
      <point x="204" y="170" type="curve"/>
      <point x="202" y="170" type="line"/>
      <point x="208" y="226"/>
      <point x="211" y="264"/>
      <point x="212" y="307" type="curve" smooth="yes"/>
      <point x="220" y="714" type="line"/>
      <point x="91" y="714" type="line"/>
    </contour>
  </outline>
</glyph>
<glyph name="W" format="2">
  <advance width="689"/>
  <unicode hex="0057"/>
  <anchor x="287" y="0" name="bottom"/>
  <anchor x="435" y="714" name="top"/>
  <anchor x="766" y="714" name="topright"/>
  <outline>
    <contour>
      <point x="67" y="0" type="line"/>
      <point x="208" y="0" type="line"/>
      <point x="343" y="357" type="line" smooth="yes"/>
      <point x="354" y="386"/>
      <point x="365" y="418"/>
      <point x="375" y="449" type="curve"/>
      <point x="377" y="449" type="line"/>
      <point x="374" y="413"/>
      <point x="371" y="377"/>
      <point x="370" y="348" type="curve" smooth="yes"/>
      <point x="359" y="0" type="line"/>
      <point x="503" y="0" type="line"/>
      <point x="777" y="714" type="line"/>
      <point x="650" y="714" type="line"/>
      <point x="513" y="347" type="line" smooth="yes"/>
      <point x="495" y="298"/>
      <point x="480" y="258"/>
      <point x="467" y="214" type="curve"/>
      <point x="465" y="214" type="line"/>
      <point x="468" y="257"/>
      <point x="470" y="293"/>
      <point x="472" y="349" type="curve" smooth="yes"/>
      <point x="487" y="714" type="line"/>
      <point x="381" y="714" type="line"/>
      <point x="237" y="343" type="line" smooth="yes"/>
      <point x="220" y="299"/>
      <point x="204" y="256"/>
      <point x="189" y="213" type="curve"/>
      <point x="187" y="213" type="line"/>
      <point x="191" y="245"/>
      <point x="195" y="288"/>
      <point x="197" y="343" type="curve" smooth="yes"/>
      <point x="213" y="714" type="line"/>
      <point x="92" y="714" type="line"/>
    </contour>
  </outline>
</glyph>
<glyph name="X" format="2">
  <advance width="432"/>
  <unicode hex="0058"/>
  <anchor x="161" y="0" name="bottom"/>
  <anchor x="313" y="714" name="top"/>
  <anchor x="509" y="714" name="topright"/>
  <outline>
    <contour>
      <point x="-57" y="0" type="line"/>
      <point x="76" y="0" type="line"/>
      <point x="209" y="236" type="line"/>
      <point x="236" y="0" type="line"/>
      <point x="371" y="0" type="line"/>
      <point x="304" y="364" type="line"/>
      <point x="507" y="714" type="line"/>
      <point x="373" y="714" type="line"/>
      <point x="261" y="495" type="line"/>
      <point x="236" y="714" type="line"/>
      <point x="106" y="714" type="line"/>
      <point x="163" y="366" type="line"/>
    </contour>
  </outline>
</glyph>
<glyph name="Y" format="2">
  <advance width="421"/>
  <unicode hex="0059"/>
  <anchor x="147" y="0" name="bottom"/>
  <anchor x="298" y="714" name="top"/>
  <anchor x="498" y="714" name="topright"/>
  <outline>
    <contour>
      <point x="88" y="0" type="line"/>
      <point x="213" y="0" type="line"/>
      <point x="272" y="276" type="line"/>
      <point x="512" y="714" type="line"/>
      <point x="378" y="714" type="line"/>
      <point x="241" y="436" type="line"/>
      <point x="220" y="714" type="line"/>
      <point x="90" y="714" type="line"/>
      <point x="145" y="272" type="line"/>
    </contour>
  </outline>
</glyph>
<glyph name="Z" format="2">
  <advance width="384"/>
  <unicode hex="005A"/>
  <anchor x="134" y="0" name="bottom"/>
  <anchor x="288" y="714" name="top"/>
  <anchor x="462" y="714" name="topright"/>
  <outline>
    <contour>
      <point x="-39" y="0" type="line"/>
      <point x="307" y="0" type="line"/>
      <point x="331" y="110" type="line"/>
      <point x="126" y="110" type="line"/>
      <point x="434" y="623" type="line"/>
      <point x="453" y="714" type="line"/>
      <point x="117" y="714" type="line"/>
      <point x="93" y="605" type="line"/>
      <point x="288" y="605" type="line"/>
      <point x="-20" y="90" type="line"/>
    </contour>
  </outline>
</glyph>
<glyph name="bracketleft" format="2">
  <advance width="280"/>
  <unicode hex="005B"/>
  <outline>
    <contour>
      <point x="-40" y="-165" type="line"/>
      <point x="166" y="-165" type="line"/>
      <point x="187" y="-70" type="line"/>
      <point x="90" y="-70" type="line"/>
      <point x="239" y="632" type="line"/>
      <point x="336" y="632" type="line"/>
      <point x="356" y="727" type="line"/>
      <point x="150" y="727" type="line"/>
    </contour>
  </outline>
</glyph>
<glyph name="backslash" format="2">
  <advance width="364"/>
  <unicode hex="005C"/>
  <outline>
    <contour>
      <point x="188" y="-7" type="line"/>
      <point x="295" y="-7" type="line"/>
      <point x="206" y="721" type="line"/>
      <point x="100" y="721" type="line"/>
    </contour>
  </outline>
</glyph>
<glyph name="bracketright" format="2">
  <advance width="279"/>
  <unicode hex="005D"/>
  <outline>
    <contour>
      <point x="-73" y="-165" type="line"/>
      <point x="133" y="-165" type="line"/>
      <point x="323" y="727" type="line"/>
      <point x="116" y="727" type="line"/>
      <point x="96" y="632" type="line"/>
      <point x="194" y="632" type="line"/>
      <point x="44" y="-70" type="line"/>
      <point x="-53" y="-70" type="line"/>
    </contour>
  </outline>
</glyph>
<glyph name="asciicircum" format="2">
  <advance width="427"/>
  <unicode hex="005E"/>
  <outline>
    <contour>
      <point x="-6" y="285" type="line"/>
      <point x="108" y="285" type="line"/>
      <point x="261" y="541" type="line"/>
      <point x="320" y="285" type="line"/>
      <point x="429" y="285" type="line"/>
      <point x="329" y="714" type="line"/>
      <point x="260" y="714" type="line"/>
    </contour>
  </outline>
</glyph>
<glyph name="underscore" format="2">
  <advance width="342"/>
  <unicode hex="005F"/>
  <outline>
    <contour>
      <point x="-91" y="-165" type="line"/>
      <point x="252" y="-165" type="line"/>
      <point x="271" y="-73" type="line"/>
      <point x="-73" y="-73" type="line"/>
    </contour>
  </outline>
</glyph>
<glyph name="grave" format="2">
  <advance width="289"/>
  <unicode hex="0060"/>
  <anchor x="251" y="530" name="_top"/>
  <outline>
    <contour>
      <point x="233" y="606" type="curve"/>
      <point x="320" y="606" type="line"/>
      <point x="321" y="618" type="line"/>
      <point x="302" y="674"/>
      <point x="289" y="723"/>
      <point x="280" y="766" type="curve"/>
      <point x="145" y="766" type="line"/>
      <point x="145" y="757" type="line"/>
      <point x="162" y="717"/>
      <point x="209" y="640"/>
    </contour>
  </outline>
</glyph>
<glyph name="c" format="2">
  <advance width="354"/>
  <unicode hex="0063"/>
  <anchor x="158" y="0" name="bottom"/>
  <anchor x="272" y="545" name="top"/>
  <anchor x="374" y="545" name="topright"/>
  <outline>
    <contour>
      <point x="163" y="-10" type="curve" smooth="yes"/>
      <point x="211" y="-10"/>
      <point x="259" y="8"/>
      <point x="289" y="29" type="curve"/>
      <point x="290" y="133" type="line"/>
      <point x="254" y="107"/>
      <point x="221" y="94"/>
      <point x="195" y="94" type="curve" smooth="yes"/>
      <point x="162" y="94"/>
      <point x="146" y="122"/>
      <point x="146" y="177" type="curve" smooth="yes"/>
      <point x="146" y="269"/>
      <point x="182" y="450"/>
      <point x="272" y="450" type="curve" smooth="yes"/>
      <point x="294" y="450"/>
      <point x="319" y="440"/>
      <point x="337" y="425" type="curve"/>
      <point x="387" y="521" type="line"/>
      <point x="353" y="544"/>
      <point x="316" y="555"/>
      <point x="272" y="555" type="curve" smooth="yes"/>
      <point x="90" y="555"/>
      <point x="22" y="322"/>
      <point x="22" y="160" type="curve" smooth="yes"/>
      <point x="22" y="53"/>
      <point x="72" y="-10"/>
    </contour>
  </outline>
</glyph>
<glyph name="e" format="2">
  <advance width="416"/>
  <unicode hex="0065"/>
  <anchor x="170" y="0" name="bottom"/>
  <anchor x="276" y="545" name="top"/>
  <anchor x="454" y="545" name="topright"/>
  <outline>
    <contour>
      <point x="179" y="-10" type="curve" smooth="yes"/>
      <point x="232" y="-10"/>
      <point x="279" y="0"/>
      <point x="327" y="31" type="curve"/>
      <point x="327" y="124" type="line"/>
      <point x="280" y="97"/>
      <point x="250" y="88"/>
      <point x="209" y="88" type="curve" smooth="yes"/>
      <point x="162" y="88"/>
      <point x="139" y="114"/>
      <point x="139" y="177" type="curve" smooth="yes"/>
      <point x="139" y="195"/>
      <point x="141" y="215"/>
      <point x="145" y="233" type="curve"/>
      <point x="153" y="233" type="line" smooth="yes"/>
      <point x="308" y="233"/>
      <point x="408" y="300"/>
      <point x="408" y="428" type="curve" smooth="yes"/>
      <point x="408" y="507"/>
      <point x="355" y="554"/>
      <point x="276" y="554" type="curve" smooth="yes"/>
      <point x="109" y="554"/>
      <point x="21" y="357"/>
      <point x="21" y="164" type="curve" smooth="yes"/>
      <point x="21" y="55"/>
      <point x="81" y="-10"/>
    </contour>
    <contour>
      <point x="165" y="320" type="curve"/>
      <point x="162" y="320" type="line"/>
      <point x="184" y="407"/>
      <point x="220" y="459"/>
      <point x="258" y="459" type="curve" smooth="yes"/>
      <point x="283" y="459"/>
      <point x="297" y="442"/>
      <point x="297" y="416" type="curve" smooth="yes"/>
      <point x="297" y="361"/>
      <point x="265" y="320"/>
    </contour>
  </outline>
</glyph>
<glyph name="f" format="2">
  <advance width="268"/>
  <unicode hex="0066"/>
  <anchor x="-52" y="-240" name="bottom"/>
  <anchor x="290" y="765" name="top"/>
  <anchor x="395" y="765" name="topright"/>
  <outline>
    <contour>
      <point x="-52" y="-240" type="curve" smooth="yes"/>
      <point x="53" y="-240"/>
      <point x="88" y="-166"/>
      <point x="112" y="-54" type="curve" smooth="yes"/>
      <point x="218" y="444" type="line"/>
      <point x="295" y="444" type="line"/>
      <point x="316" y="545" type="line"/>
      <point x="240" y="545" type="line"/>
      <point x="250" y="590" type="line" smooth="yes"/>
      <point x="260" y="634"/>
      <point x="271" y="663"/>
      <point x="301" y="663" type="curve" smooth="yes"/>
      <point x="313" y="663"/>
      <point x="329" y="658"/>
      <point x="342" y="651" type="curve"/>
      <point x="384" y="743" type="line"/>
      <point x="352" y="759"/>
      <point x="319" y="765"/>
      <point x="287" y="765" type="curve" smooth="yes"/>
      <point x="179" y="765"/>
      <point x="148" y="677"/>
      <point x="129" y="589" type="curve" smooth="yes"/>
      <point x="119" y="543" type="line"/>
      <point x="57" y="508" type="line"/>
      <point x="44" y="444" type="line"/>
      <point x="98" y="444" type="line"/>
      <point x="-5" y="-44" type="line" smooth="yes"/>
      <point x="-16" y="-97"/>
      <point x="-24" y="-134"/>
      <point x="-68" y="-134" type="curve" smooth="yes"/>
      <point x="-81" y="-134"/>
      <point x="-103" y="-131"/>
      <point x="-115" y="-126" type="curve"/>
      <point x="-115" y="-231" type="line"/>
      <point x="-93" y="-239"/>
      <point x="-73" y="-240"/>
    </contour>
  </outline>
</glyph>
<glyph name="h" format="2">
  <advance width="445"/>
  <unicode hex="0068"/>
  <anchor x="168" y="0" name="bottom"/>
  <anchor x="230" y="265" name="center"/>
  <anchor x="211" y="760" name="top"/>
  <anchor x="503" y="760" name="topright"/>
  <outline>
    <contour>
      <point x="-6" y="0" type="line"/>
      <point x="114" y="0" type="line"/>
      <point x="178" y="303" type="line" smooth="yes"/>
      <point x="201" y="409"/>
      <point x="230" y="446"/>
      <point x="265" y="446" type="curve" smooth="yes"/>
      <point x="289" y="446"/>
      <point x="300" y="429"/>
      <point x="300" y="405" type="curve" smooth="yes"/>
      <point x="300" y="379"/>
      <point x="295" y="348"/>
      <point x="288" y="317" type="curve" smooth="yes"/>
      <point x="221" y="0" type="line"/>
      <point x="341" y="0" type="line"/>
      <point x="414" y="346" type="line" smooth="yes"/>
      <point x="421" y="376"/>
      <point x="426" y="412"/>
      <point x="426" y="438" type="curve" smooth="yes"/>
      <point x="426" y="511"/>
      <point x="388" y="555"/>
      <point x="324" y="555" type="curve" smooth="yes"/>
      <point x="275" y="555"/>
      <point x="240" y="530"/>
      <point x="211" y="484" type="curve"/>
      <point x="209" y="484" type="line"/>
      <point x="220" y="519"/>
      <point x="232" y="558"/>
      <point x="239" y="592" type="curve" smooth="yes"/>
      <point x="275" y="760" type="line"/>
      <point x="155" y="760" type="line"/>
    </contour>
  </outline>
</glyph>
<glyph name="j" format="2">
  <advance width="222"/>
  <unicode hex="006A"/>
  <anchor x="-63" y="-240" name="bottom"/>
  <anchor x="216" y="757" name="top"/>
  <anchor x="307" y="757" name="topright"/>
  <outline>
    <contour>
      <point x="-63" y="-240" type="curve" smooth="yes"/>
      <point x="43" y="-240"/>
      <point x="79" y="-167"/>
      <point x="104" y="-47" type="curve" smooth="yes"/>
      <point x="229" y="545" type="line"/>
      <point x="110" y="545" type="line"/>
      <point x="-13" y="-38" type="line" smooth="yes"/>
      <point x="-28" y="-109"/>
      <point x="-40" y="-134"/>
      <point x="-79" y="-134" type="curve" smooth="yes"/>
      <point x="-92" y="-134"/>
      <point x="-113" y="-131"/>
      <point x="-125" y="-125" type="curve"/>
      <point x="-125" y="-231" type="line"/>
      <point x="-104" y="-239"/>
      <point x="-84" y="-240"/>
    </contour>
    <contour>
      <point x="189" y="616" type="curve" smooth="yes"/>
      <point x="237" y="616"/>
      <point x="269" y="657"/>
      <point x="269" y="707" type="curve" smooth="yes"/>
      <point x="269" y="741"/>
      <point x="248" y="757"/>
      <point x="212" y="757" type="curve" smooth="yes"/>
      <point x="157" y="757"/>
      <point x="132" y="709"/>
      <point x="132" y="667" type="curve" smooth="yes"/>
      <point x="132" y="633"/>
      <point x="151" y="616"/>
    </contour>
  </outline>
</glyph>
<glyph name="k" format="2">
  <advance width="420"/>
  <unicode hex="006B"/>
  <anchor x="178" y="0" name="bottom"/>
  <anchor x="209" y="760" name="top"/>
  <anchor x="458" y="860" name="topright"/>
  <outline>
    <contour>
      <point x="-7" y="0" type="line"/>
      <point x="113" y="0" type="line"/>
      <point x="147" y="169" type="line"/>
      <point x="195" y="219" type="line"/>
      <point x="237" y="0" type="line"/>
      <point x="367" y="0" type="line"/>
      <point x="300" y="316" type="line"/>
      <point x="472" y="545" type="line"/>
      <point x="341" y="545" type="line"/>
      <point x="178" y="321" type="line"/>
      <point x="176" y="321" type="line"/>
      <point x="188" y="362"/>
      <point x="197" y="398"/>
      <point x="204" y="431" type="curve" smooth="yes"/>
      <point x="274" y="760" type="line"/>
      <point x="155" y="760" type="line"/>
    </contour>
  </outline>
</glyph>
<glyph name="l" format="2">
  <advance width="219"/>
  <unicode hex="006C"/>
  <anchor x="52" y="0" name="bottom"/>
  <anchor x="110" y="273" name="center"/>
  <anchor x="214" y="760" name="top"/>
  <anchor x="303" y="760" name="topright"/>
  <outline>
    <contour>
      <point x="-7" y="0" type="line"/>
      <point x="113" y="0" type="line"/>
      <point x="275" y="760" type="line"/>
      <point x="155" y="760" type="line"/>
    </contour>
  </outline>
</glyph>
<glyph name="o" format="2">
  <advance width="437"/>
  <unicode hex="006F"/>
  <anchor x="161" y="0" name="bottom"/>
  <anchor x="219" y="273" name="center"/>
  <anchor x="277" y="545" name="top"/>
  <anchor x="475" y="545" name="topright"/>
  <outline>
    <contour>
      <point x="171" y="-10" type="curve" smooth="yes"/>
      <point x="345" y="-10"/>
      <point x="418" y="219"/>
      <point x="418" y="378" type="curve" smooth="yes"/>
      <point x="418" y="488"/>
      <point x="363" y="555"/>
      <point x="271" y="555" type="curve" smooth="yes"/>
      <point x="87" y="555"/>
      <point x="21" y="306"/>
      <point x="21" y="166" type="curve" smooth="yes"/>
      <point x="21" y="55"/>
      <point x="76" y="-10"/>
    </contour>
    <contour>
      <point x="185" y="92" type="curve" smooth="yes"/>
      <point x="156" y="92"/>
      <point x="142" y="119"/>
      <point x="142" y="165" type="curve" smooth="yes"/>
      <point x="142" y="257"/>
      <point x="181" y="453"/>
      <point x="255" y="453" type="curve" smooth="yes"/>
      <point x="285" y="453"/>
      <point x="297" y="426"/>
      <point x="297" y="379" type="curve" smooth="yes"/>
      <point x="297" y="278"/>
      <point x="254" y="92"/>
    </contour>
  </outline>
</glyph>
<glyph name="p" format="2">
  <advance width="447"/>
  <unicode hex="0070"/>
  <anchor x="2" y="-236" name="bottom"/>
  <anchor x="282" y="545" name="top"/>
  <anchor x="485" y="545" name="topright"/>
  <outline>
    <contour>
      <point x="-56" y="-236" type="line"/>
      <point x="63" y="-236" type="line"/>
      <point x="106" y="-31" type="line" smooth="yes"/>
      <point x="111" y="-8"/>
      <point x="117" y="26"/>
      <point x="122" y="62" type="curve"/>
      <point x="125" y="62" type="line"/>
      <point x="140" y="17"/>
      <point x="172" y="-10"/>
      <point x="216" y="-10" type="curve" smooth="yes"/>
      <point x="359" y="-10"/>
      <point x="432" y="242"/>
      <point x="432" y="397" type="curve" smooth="yes"/>
      <point x="432" y="504"/>
      <point x="391" y="555"/>
      <point x="325" y="555" type="curve" smooth="yes"/>
      <point x="279" y="555"/>
      <point x="242" y="530"/>
      <point x="205" y="471" type="curve"/>
      <point x="201" y="471" type="line"/>
      <point x="207" y="545" type="line"/>
      <point x="109" y="545" type="line"/>
    </contour>
    <contour>
      <point x="195" y="95" type="curve" smooth="yes"/>
      <point x="169" y="95"/>
      <point x="155" y="117"/>
      <point x="155" y="161" type="curve" smooth="yes"/>
      <point x="155" y="246"/>
      <point x="200" y="453"/>
      <point x="274" y="453" type="curve" smooth="yes"/>
      <point x="296" y="453"/>
      <point x="308" y="430"/>
      <point x="308" y="382" type="curve" smooth="yes"/>
      <point x="308" y="283"/>
      <point x="263" y="95"/>
    </contour>
  </outline>
</glyph>
<glyph name="q" format="2">
  <advance width="448"/>
  <unicode hex="0071"/>
  <anchor x="230" y="-239" name="bottom"/>
  <anchor x="282" y="545" name="top"/>
  <anchor x="476" y="545" name="topright"/>
  <outline>
    <contour>
      <point x="216" y="-24" type="curve" smooth="yes"/>
      <point x="170" y="-239" type="line"/>
      <point x="290" y="-239" type="line"/>
      <point x="457" y="545" type="line"/>
      <point x="352" y="545" type="line"/>
      <point x="331" y="477" type="line"/>
      <point x="329" y="477" type="line"/>
      <point x="315" y="530"/>
      <point x="289" y="555"/>
      <point x="237" y="555" type="curve" smooth="yes"/>
      <point x="88" y="555"/>
      <point x="18" y="285"/>
      <point x="18" y="142" type="curve" smooth="yes"/>
      <point x="18" y="44"/>
      <point x="58" y="-10"/>
      <point x="123" y="-10" type="curve" smooth="yes"/>
      <point x="167" y="-10"/>
      <point x="202" y="10"/>
      <point x="235" y="58" type="curve"/>
      <point x="238" y="58" type="line"/>
      <point x="228" y="26"/>
      <point x="220" y="-6"/>
    </contour>
    <contour>
      <point x="178" y="95" type="curve" smooth="yes"/>
      <point x="154" y="95"/>
      <point x="143" y="117"/>
      <point x="143" y="164" type="curve" smooth="yes"/>
      <point x="143" y="261"/>
      <point x="188" y="450"/>
      <point x="254" y="450" type="curve" smooth="yes"/>
      <point x="281" y="450"/>
      <point x="295" y="428"/>
      <point x="295" y="391" type="curve" smooth="yes"/>
      <point x="295" y="294"/>
      <point x="254" y="95"/>
    </contour>
  </outline>
</glyph>
<glyph name="r" format="2">
  <advance width="311"/>
  <unicode hex="0072"/>
  <anchor x="57" y="0" name="bottom"/>
  <anchor x="228" y="545" name="top"/>
  <anchor x="352" y="545" name="topright"/>
  <outline>
    <contour>
      <point x="-7" y="0" type="line"/>
      <point x="113" y="0" type="line"/>
      <point x="172" y="279" type="line" smooth="yes"/>
      <point x="187" y="351"/>
      <point x="221" y="426"/>
      <point x="282" y="426" type="curve" smooth="yes"/>
      <point x="298" y="426"/>
      <point x="312" y="423"/>
      <point x="325" y="418" type="curve"/>
      <point x="362" y="548" type="line"/>
      <point x="346" y="553"/>
      <point x="334" y="555"/>
      <point x="321" y="555" type="curve" smooth="yes"/>
      <point x="267" y="555"/>
      <point x="233" y="526"/>
      <point x="200" y="461" type="curve"/>
      <point x="196" y="461" type="line"/>
      <point x="203" y="545" type="line"/>
      <point x="109" y="545" type="line"/>
    </contour>
  </outline>
</glyph>
<glyph name="s" format="2">
  <advance width="347"/>
  <unicode hex="0073"/>
  <anchor x="116" y="0" name="bottom"/>
  <anchor x="232" y="545" name="top"/>
  <anchor x="375" y="545" name="topright"/>
  <outline>
    <contour>
      <point x="121" y="-10" type="curve" smooth="yes"/>
      <point x="234" y="-10"/>
      <point x="300" y="68"/>
      <point x="300" y="170" type="curve" smooth="yes"/>
      <point x="300" y="243"/>
      <point x="275" y="277"/>
      <point x="227" y="322" type="curve" smooth="yes"/>
      <point x="185" y="360"/>
      <point x="178" y="377"/>
      <point x="178" y="403" type="curve" smooth="yes"/>
      <point x="178" y="436"/>
      <point x="197" y="456"/>
      <point x="228" y="456" type="curve" smooth="yes"/>
      <point x="251" y="456"/>
      <point x="288" y="445"/>
      <point x="316" y="421" type="curve"/>
      <point x="364" y="513" type="line"/>
      <point x="330" y="538"/>
      <point x="279" y="555"/>
      <point x="222" y="555" type="curve" smooth="yes"/>
      <point x="113" y="555"/>
      <point x="55" y="480"/>
      <point x="55" y="385" type="curve" smooth="yes"/>
      <point x="55" y="335"/>
      <point x="71" y="294"/>
      <point x="121" y="247" type="curve" smooth="yes"/>
      <point x="164" y="207"/>
      <point x="173" y="184"/>
      <point x="173" y="157" type="curve" smooth="yes"/>
      <point x="173" y="116"/>
      <point x="145" y="95"/>
      <point x="107" y="95" type="curve" smooth="yes"/>
      <point x="72" y="95"/>
      <point x="26" y="110"/>
      <point x="-6" y="134" type="curve"/>
      <point x="-6" y="19" type="line"/>
      <point x="25" y="1"/>
      <point x="62" y="-10"/>
    </contour>
  </outline>
</glyph>
<glyph name="t" format="2">
  <advance width="289"/>
  <unicode hex="0074"/>
  <anchor x="117" y="0" name="bottom"/>
  <anchor x="125" y="273" name="center"/>
  <anchor x="204" y="661" name="top"/>
  <anchor x="312" y="860" name="topright"/>
  <outline>
    <contour>
      <point x="129" y="-10" type="curve" smooth="yes"/>
      <point x="159" y="-10"/>
      <point x="203" y="-4"/>
      <point x="233" y="11" type="curve"/>
      <point x="234" y="108" type="line"/>
      <point x="214" y="99"/>
      <point x="191" y="96"/>
      <point x="181" y="96" type="curve" smooth="yes"/>
      <point x="161" y="96"/>
      <point x="153" y="105"/>
      <point x="153" y="127" type="curve" smooth="yes"/>
      <point x="153" y="137"/>
      <point x="156" y="151"/>
      <point x="159" y="166" type="curve" smooth="yes"/>
      <point x="217" y="444" type="line"/>
      <point x="301" y="444" type="line"/>
      <point x="323" y="545" type="line"/>
      <point x="239" y="545" type="line"/>
      <point x="264" y="661" type="line"/>
      <point x="179" y="661" type="line"/>
      <point x="129" y="542" type="line"/>
      <point x="63" y="508" type="line"/>
      <point x="49" y="444" type="line"/>
      <point x="97" y="444" type="line"/>
      <point x="42" y="181" type="line" smooth="yes"/>
      <point x="34" y="146"/>
      <point x="32" y="121"/>
      <point x="32" y="99" type="curve" smooth="yes"/>
      <point x="32" y="35"/>
      <point x="59" y="-10"/>
    </contour>
  </outline>
</glyph>
<glyph name="v" format="2">
  <advance width="395"/>
  <unicode hex="0076"/>
  <anchor x="140" y="0" name="bottom"/>
  <anchor x="256" y="545" name="top"/>
  <anchor x="433" y="545" name="topright"/>
  <outline>
    <contour>
      <point x="75" y="0" type="line"/>
      <point x="204" y="0" type="line"/>
      <point x="449" y="545" type="line"/>
      <point x="322" y="545" type="line"/>
      <point x="203" y="252" type="line" smooth="yes"/>
      <point x="193" y="228"/>
      <point x="183" y="202"/>
      <point x="176" y="176" type="curve"/>
      <point x="172" y="176" type="line"/>
      <point x="177" y="208"/>
      <point x="177" y="256"/>
      <point x="178" y="289" type="curve" smooth="yes"/>
      <point x="181" y="545" type="line"/>
      <point x="61" y="545" type="line"/>
    </contour>
  </outline>
</glyph>
<glyph name="x" format="2">
  <advance width="400"/>
  <unicode hex="0078"/>
  <anchor x="142" y="0" name="bottom"/>
  <anchor x="258" y="545" name="top"/>
  <anchor x="438" y="545" name="topright"/>
  <outline>
    <contour>
      <point x="-48" y="0" type="line"/>
      <point x="83" y="0" type="line"/>
      <point x="181" y="174" type="line"/>
      <point x="207" y="0" type="line"/>
      <point x="336" y="0" type="line"/>
      <point x="277" y="277" type="line"/>
      <point x="446" y="545" type="line"/>
      <point x="312" y="545" type="line"/>
      <point x="223" y="384" type="line"/>
      <point x="201" y="545" type="line"/>
      <point x="72" y="545" type="line"/>
      <point x="128" y="281" type="line"/>
    </contour>
  </outline>
</glyph>
<glyph name="y" format="2">
  <advance width="397"/>
  <unicode hex="0079"/>
  <anchor x="-11" y="-240" name="bottom"/>
  <anchor x="257" y="545" name="top"/>
  <anchor x="435" y="545" name="topright"/>
  <outline>
    <contour>
      <point x="-11" y="-240" type="curve" smooth="yes"/>
      <point x="83" y="-240"/>
      <point x="127" y="-175"/>
      <point x="170" y="-82" type="curve" smooth="yes"/>
      <point x="453" y="545" type="line"/>
      <point x="326" y="545" type="line"/>
      <point x="219" y="284" type="line" smooth="yes"/>
      <point x="209" y="261"/>
      <point x="196" y="220"/>
      <point x="185" y="183" type="curve"/>
      <point x="182" y="183" type="line"/>
      <point x="184" y="218"/>
      <point x="185" y="254"/>
      <point x="186" y="288" type="curve" smooth="yes"/>
      <point x="186" y="545" type="line"/>
      <point x="64" y="545" type="line"/>
      <point x="87" y="7" type="line"/>
      <point x="53" y="-68" type="line" smooth="yes"/>
      <point x="34" y="-109"/>
      <point x="19" y="-132"/>
      <point x="-13" y="-132" type="curve" smooth="yes"/>
      <point x="-26" y="-132"/>
      <point x="-40" y="-129"/>
      <point x="-54" y="-123" type="curve"/>
      <point x="-75" y="-231" type="line"/>
      <point x="-58" y="-237"/>
      <point x="-38" y="-240"/>
    </contour>
  </outline>
</glyph>
<glyph name="z" format="2">
  <advance width="335"/>
  <unicode hex="007A"/>
  <anchor x="110" y="0" name="bottom"/>
  <anchor x="226" y="545" name="top"/>
  <anchor x="373" y="545" name="topright"/>
  <outline>
    <contour>
      <point x="-38" y="0" type="line"/>
      <point x="260" y="0" type="line"/>
      <point x="283" y="102" type="line"/>
      <point x="126" y="102" type="line"/>
      <point x="352" y="464" type="line"/>
      <point x="369" y="545" type="line"/>
      <point x="88" y="545" type="line"/>
      <point x="65" y="443" type="line"/>
      <point x="211" y="443" type="line"/>
      <point x="-22" y="74" type="line"/>
    </contour>
  </outline>
</glyph>
<glyph name="braceleft" format="2">
  <advance width="330"/>
  <unicode hex="007B"/>
  <outline>
    <contour>
      <point x="223" y="-158" type="curve" smooth="yes"/>
      <point x="231" y="-158" type="line"/>
      <point x="232" y="-56" type="line"/>
      <point x="190" y="-55"/>
      <point x="177" y="-39"/>
      <point x="177" y="-4" type="curve" smooth="yes"/>
      <point x="177" y="5"/>
      <point x="178" y="16"/>
      <point x="181" y="29" type="curve" smooth="yes"/>
      <point x="201" y="128" type="line" smooth="yes"/>
      <point x="205" y="148"/>
      <point x="207" y="167"/>
      <point x="207" y="182" type="curve" smooth="yes"/>
      <point x="207" y="227"/>
      <point x="183" y="260"/>
      <point x="128" y="276" type="curve"/>
      <point x="129" y="279" type="line"/>
      <point x="207" y="290"/>
      <point x="247" y="333"/>
      <point x="260" y="397" type="curve" smooth="yes"/>
      <point x="289" y="535" type="line" smooth="yes"/>
      <point x="301" y="594"/>
      <point x="322" y="611"/>
      <point x="378" y="612" type="curve"/>
      <point x="402" y="714" type="line"/>
      <point x="399" y="714" type="line" smooth="yes"/>
      <point x="271" y="714"/>
      <point x="201" y="692"/>
      <point x="174" y="565" type="curve" smooth="yes"/>
      <point x="144" y="423" type="line" smooth="yes"/>
      <point x="131" y="360"/>
      <point x="98" y="333"/>
      <point x="35" y="332" type="curve"/>
      <point x="13" y="229" type="line"/>
      <point x="71" y="229"/>
      <point x="88" y="210"/>
      <point x="88" y="170" type="curve" smooth="yes"/>
      <point x="88" y="156"/>
      <point x="85" y="144"/>
      <point x="83" y="134" type="curve" smooth="yes"/>
      <point x="61" y="28" type="line" smooth="yes"/>
      <point x="57" y="9"/>
      <point x="54" y="-11"/>
      <point x="54" y="-30" type="curve" smooth="yes"/>
      <point x="54" y="-112"/>
      <point x="102" y="-158"/>
    </contour>
  </outline>
</glyph>
<glyph name="bar" format="2">
  <advance width="372"/>
  <unicode hex="007C"/>
  <outline>
    <contour>
      <point x="131" y="-233" type="line"/>
      <point x="237" y="-233" type="line"/>
      <point x="237" y="767" type="line"/>
      <point x="131" y="767" type="line"/>
    </contour>
  </outline>
</glyph>
<glyph name="braceright" format="2">
  <advance width="331"/>
  <unicode hex="007D"/>
  <outline>
    <contour>
      <point x="-58" y="-56" type="curve"/>
      <point x="-58" y="-158" type="line"/>
      <point x="-56" y="-158" type="line" smooth="yes"/>
      <point x="71" y="-158"/>
      <point x="130" y="-133"/>
      <point x="156" y="-9" type="curve" smooth="yes"/>
      <point x="186" y="133" type="line" smooth="yes"/>
      <point x="199" y="193"/>
      <point x="234" y="223"/>
      <point x="295" y="224" type="curve"/>
      <point x="318" y="327" type="line"/>
      <point x="259" y="327"/>
      <point x="243" y="346"/>
      <point x="243" y="386" type="curve" smooth="yes"/>
      <point x="243" y="400"/>
      <point x="245" y="411"/>
      <point x="247" y="422" type="curve" smooth="yes"/>
      <point x="269" y="527" type="line" smooth="yes"/>
      <point x="273" y="547"/>
      <point x="276" y="575"/>
      <point x="276" y="593" type="curve" smooth="yes"/>
      <point x="276" y="674"/>
      <point x="235" y="714"/>
      <point x="120" y="714" type="curve" smooth="yes"/>
      <point x="114" y="714" type="line"/>
      <point x="91" y="612" type="line"/>
      <point x="134" y="611"/>
      <point x="153" y="594"/>
      <point x="153" y="559" type="curve" smooth="yes"/>
      <point x="153" y="550"/>
      <point x="153" y="539"/>
      <point x="150" y="527" type="curve" smooth="yes"/>
      <point x="129" y="428" type="line" smooth="yes"/>
      <point x="125" y="408"/>
      <point x="123" y="390"/>
      <point x="123" y="374" type="curve" smooth="yes"/>
      <point x="123" y="329"/>
      <point x="147" y="296"/>
      <point x="202" y="280" type="curve"/>
      <point x="201" y="277" type="line"/>
      <point x="123" y="266"/>
      <point x="83" y="223"/>
      <point x="70" y="159" type="curve" smooth="yes"/>
      <point x="41" y="21" type="line" smooth="yes"/>
      <point x="29" y="-36"/>
      <point x="1" y="-56"/>
    </contour>
  </outline>
</glyph>
<glyph name="asciitilde" format="2">
  <advance width="463"/>
  <unicode hex="007E"/>
  <outline>
    <contour>
      <point x="237" y="301" type="curve" smooth="yes"/>
      <point x="276" y="281"/>
      <point x="309" y="271"/>
      <point x="349" y="271" type="curve" smooth="yes"/>
      <point x="391" y="271"/>
      <point x="426" y="288"/>
      <point x="455" y="322" type="curve"/>
      <point x="455" y="436" type="line"/>
      <point x="425" y="400"/>
      <point x="388" y="377"/>
      <point x="359" y="377" type="curve" smooth="yes"/>
      <point x="331" y="377"/>
      <point x="301" y="386"/>
      <point x="265" y="404" type="curve" smooth="yes"/>
      <point x="228" y="422"/>
      <point x="193" y="435"/>
      <point x="154" y="435" type="curve" smooth="yes"/>
      <point x="111" y="435"/>
      <point x="75" y="417"/>
      <point x="47" y="383" type="curve"/>
      <point x="47" y="269" type="line"/>
      <point x="80" y="307"/>
      <point x="113" y="328"/>
      <point x="143" y="328" type="curve" smooth="yes"/>
      <point x="171" y="328"/>
      <point x="202" y="319"/>
    </contour>
  </outline>
</glyph>
<glyph name="exclamdown" format="2">
  <advance width="243"/>
  <unicode hex="00A1"/>
  <outline>
    <contour>
      <point x="-41" y="-182" type="line"/>
      <point x="97" y="-182" type="line"/>
      <point x="186" y="317" type="line"/>
      <point x="83" y="317" type="line"/>
    </contour>
    <contour>
      <point x="152" y="398" type="curve" smooth="yes"/>
      <point x="211" y="398"/>
      <point x="242" y="445"/>
      <point x="242" y="497" type="curve" smooth="yes"/>
      <point x="242" y="534"/>
      <point x="220" y="553"/>
      <point x="181" y="553" type="curve" smooth="yes"/>
      <point x="135" y="553"/>
      <point x="96" y="512"/>
      <point x="96" y="453" type="curve" smooth="yes"/>
      <point x="96" y="418"/>
      <point x="117" y="398"/>
    </contour>
  </outline>
</glyph>
<glyph name="cent" format="2">
  <advance width="428"/>
  <unicode hex="00A2"/>
  <outline>
    <contour>
      <point x="160" y="87" type="curve"/>
      <point x="138" y="-10" type="line"/>
      <point x="211" y="-10" type="line"/>
      <point x="232" y="86" type="line"/>
      <point x="263" y="90"/>
      <point x="313" y="102"/>
      <point x="346" y="130" type="curve"/>
      <point x="315" y="215" type="line"/>
      <point x="286" y="197"/>
      <point x="259" y="186"/>
      <point x="234" y="186" type="curve" smooth="yes"/>
      <point x="201" y="186"/>
      <point x="186" y="212"/>
      <point x="186" y="268" type="curve" smooth="yes"/>
      <point x="186" y="377"/>
      <point x="233" y="542"/>
      <point x="316" y="542" type="curve" smooth="yes"/>
      <point x="333" y="542"/>
      <point x="360" y="531"/>
      <point x="376" y="516" type="curve"/>
      <point x="427" y="614" type="line"/>
      <point x="407" y="627"/>
      <point x="380" y="640"/>
      <point x="351" y="644" type="curve"/>
      <point x="367" y="724" type="line"/>
      <point x="295" y="724" type="line"/>
      <point x="278" y="644" type="line"/>
      <point x="128" y="619"/>
      <point x="62" y="401"/>
      <point x="62" y="260" type="curve" smooth="yes"/>
      <point x="62" y="156"/>
      <point x="91" y="102"/>
    </contour>
  </outline>
</glyph>
<glyph name="sterling" format="2">
  <advance width="428"/>
  <unicode hex="00A3"/>
  <outline>
    <contour>
      <point x="6" y="103" type="curve"/>
      <point x="-17" y="0" type="line"/>
      <point x="334" y="0" type="line"/>
      <point x="357" y="110" type="line"/>
      <point x="130" y="110" type="line"/>
      <point x="170" y="136"/>
      <point x="201" y="176"/>
      <point x="213" y="234" type="curve" smooth="yes"/>
      <point x="230" y="316" type="line"/>
      <point x="340" y="316" type="line"/>
      <point x="361" y="410" type="line"/>
      <point x="249" y="410" type="line"/>
      <point x="273" y="526" type="line" smooth="yes"/>
      <point x="285" y="584"/>
      <point x="304" y="613"/>
      <point x="344" y="613" type="curve" smooth="yes"/>
      <point x="368" y="613"/>
      <point x="394" y="602"/>
      <point x="417" y="583" type="curve"/>
      <point x="468" y="683" type="line"/>
      <point x="435" y="710"/>
      <point x="388" y="724"/>
      <point x="341" y="724" type="curve" smooth="yes"/>
      <point x="233" y="724"/>
      <point x="181" y="653"/>
      <point x="156" y="542" type="curve" smooth="yes"/>
      <point x="127" y="410" type="line"/>
      <point x="68" y="410" type="line"/>
      <point x="48" y="316" type="line"/>
      <point x="108" y="316" type="line"/>
      <point x="91" y="234" type="line" smooth="yes"/>
      <point x="77" y="166"/>
      <point x="52" y="129"/>
    </contour>
  </outline>
</glyph>
<glyph name="currency" format="2">
  <advance width="480"/>
  <unicode hex="00A4"/>
  <outline>
    <contour>
      <point x="358" y="193" type="curve"/>
      <point x="421" y="130" type="line"/>
      <point x="476" y="186" type="line"/>
      <point x="415" y="248" type="line"/>
      <point x="436" y="279"/>
      <point x="445" y="314"/>
      <point x="445" y="354" type="curve" smooth="yes"/>
      <point x="445" y="391"/>
      <point x="435" y="426"/>
      <point x="416" y="457" type="curve"/>
      <point x="479" y="521" type="line"/>
      <point x="423" y="576" type="line"/>
      <point x="359" y="512" type="line"/>
      <point x="329" y="533"/>
      <point x="295" y="544"/>
      <point x="259" y="544" type="curve" smooth="yes"/>
      <point x="224" y="544"/>
      <point x="188" y="534"/>
      <point x="158" y="512" type="curve"/>
      <point x="96" y="576" type="line"/>
      <point x="39" y="520" type="line"/>
      <point x="102" y="456" type="line"/>
      <point x="81" y="423"/>
      <point x="71" y="389"/>
      <point x="71" y="352" type="curve" smooth="yes"/>
      <point x="71" y="316"/>
      <point x="81" y="281"/>
      <point x="101" y="250" type="curve"/>
      <point x="39" y="187" type="line"/>
      <point x="94" y="131" type="line"/>
      <point x="156" y="194" type="line"/>
      <point x="184" y="174"/>
      <point x="219" y="163"/>
      <point x="257" y="163" type="curve" smooth="yes"/>
      <point x="292" y="163"/>
      <point x="327" y="174"/>
    </contour>
    <contour>
      <point x="257" y="242" type="curve" smooth="yes"/>
      <point x="198" y="242"/>
      <point x="150" y="292"/>
      <point x="150" y="353" type="curve" smooth="yes"/>
      <point x="150" y="414"/>
      <point x="200" y="465"/>
      <point x="258" y="465" type="curve" smooth="yes"/>
      <point x="317" y="465"/>
      <point x="368" y="413"/>
      <point x="368" y="353" type="curve" smooth="yes"/>
      <point x="368" y="293"/>
      <point x="319" y="242"/>
    </contour>
  </outline>
</glyph>
<glyph name="yen" format="2">
  <advance width="425"/>
  <unicode hex="00A5"/>
  <outline>
    <contour>
      <point x="91" y="0" type="line"/>
      <point x="213" y="0" type="line"/>
      <point x="237" y="117" type="line"/>
      <point x="342" y="117" type="line"/>
      <point x="360" y="198" type="line"/>
      <point x="255" y="198" type="line"/>
      <point x="270" y="270" type="line"/>
      <point x="374" y="270" type="line"/>
      <point x="392" y="350" type="line"/>
      <point x="305" y="350" type="line"/>
      <point x="497" y="714" type="line"/>
      <point x="368" y="714" type="line"/>
      <point x="246" y="445" type="line"/>
      <point x="235" y="714" type="line"/>
      <point x="109" y="714" type="line"/>
      <point x="148" y="350" type="line"/>
      <point x="63" y="350" type="line"/>
      <point x="45" y="270" type="line"/>
      <point x="148" y="270" type="line"/>
      <point x="134" y="198" type="line"/>
      <point x="30" y="198" type="line"/>
      <point x="13" y="117" type="line"/>
      <point x="116" y="117" type="line"/>
    </contour>
  </outline>
</glyph>
<glyph name="brokenbar" format="2">
  <advance width="372"/>
  <unicode hex="00A6"/>
  <outline>
    <contour>
      <point x="133" y="386" type="line"/>
      <point x="239" y="386" type="line"/>
      <point x="239" y="767" type="line"/>
      <point x="133" y="767" type="line"/>
    </contour>
    <contour>
      <point x="133" y="-233" type="line"/>
      <point x="239" y="-233" type="line"/>
      <point x="239" y="148" type="line"/>
      <point x="133" y="148" type="line"/>
    </contour>
  </outline>
</glyph>
<glyph name="section" format="2">
  <advance width="390"/>
  <unicode hex="00A7"/>
  <outline>
    <contour>
      <point x="141" y="5" type="curve" smooth="yes"/>
      <point x="244" y="5"/>
      <point x="312" y="80"/>
      <point x="312" y="174" type="curve" smooth="yes"/>
      <point x="312" y="216"/>
      <point x="298" y="246"/>
      <point x="279" y="267" type="curve"/>
      <point x="336" y="308"/>
      <point x="369" y="350"/>
      <point x="369" y="417" type="curve" smooth="yes"/>
      <point x="369" y="464"/>
      <point x="345" y="499"/>
      <point x="280" y="545" type="curve" smooth="yes"/>
      <point x="247" y="569"/>
      <point x="228" y="587"/>
      <point x="228" y="615" type="curve" smooth="yes"/>
      <point x="228" y="651"/>
      <point x="253" y="676"/>
      <point x="287" y="676" type="curve" smooth="yes"/>
      <point x="319" y="676"/>
      <point x="353" y="664"/>
      <point x="381" y="640" type="curve"/>
      <point x="425" y="722" type="line"/>
      <point x="386" y="747"/>
      <point x="339" y="761"/>
      <point x="283" y="761" type="curve" smooth="yes"/>
      <point x="179" y="761"/>
      <point x="121" y="684"/>
      <point x="121" y="611" type="curve" smooth="yes"/>
      <point x="121" y="567"/>
      <point x="133" y="539"/>
      <point x="159" y="512" type="curve"/>
      <point x="100" y="481"/>
      <point x="63" y="438"/>
      <point x="63" y="369" type="curve" smooth="yes"/>
      <point x="63" y="311"/>
      <point x="96" y="273"/>
      <point x="145" y="239" type="curve" smooth="yes"/>
      <point x="176" y="217"/>
      <point x="204" y="197"/>
      <point x="204" y="164" type="curve" smooth="yes"/>
      <point x="204" y="120"/>
      <point x="176" y="91"/>
      <point x="133" y="91" type="curve" smooth="yes"/>
      <point x="101" y="91"/>
      <point x="56" y="103"/>
      <point x="15" y="137" type="curve"/>
      <point x="15" y="39" type="line"/>
      <point x="45" y="17"/>
      <point x="90" y="5"/>
    </contour>
    <contour>
      <point x="227" y="310" type="curve"/>
      <point x="185" y="338"/>
      <point x="166" y="362"/>
      <point x="166" y="396" type="curve" smooth="yes"/>
      <point x="166" y="427"/>
      <point x="180" y="457"/>
      <point x="209" y="472" type="curve"/>
      <point x="252" y="442"/>
      <point x="263" y="422"/>
      <point x="263" y="391" type="curve" smooth="yes"/>
      <point x="263" y="358"/>
      <point x="249" y="328"/>
    </contour>
  </outline>
</glyph>
<glyph name="dieresis" format="2">
  <advance width="438"/>
  <unicode hex="00A8"/>
  <outline>
    <contour>
      <point x="367" y="622" type="curve" smooth="yes"/>
      <point x="405" y="622"/>
      <point x="437" y="656"/>
      <point x="437" y="705" type="curve" smooth="yes"/>
      <point x="437" y="734"/>
      <point x="420" y="750"/>
      <point x="392" y="750" type="curve" smooth="yes"/>
      <point x="345" y="750"/>
      <point x="319" y="711"/>
      <point x="319" y="669" type="curve" smooth="yes"/>
      <point x="319" y="638"/>
      <point x="336" y="622"/>
    </contour>
    <contour>
      <point x="200" y="622" type="curve" smooth="yes"/>
      <point x="237" y="622"/>
      <point x="269" y="656"/>
      <point x="269" y="705" type="curve" smooth="yes"/>
      <point x="269" y="734"/>
      <point x="252" y="750"/>
      <point x="224" y="750" type="curve" smooth="yes"/>
      <point x="177" y="750"/>
      <point x="151" y="711"/>
      <point x="151" y="669" type="curve" smooth="yes"/>
      <point x="151" y="638"/>
      <point x="168" y="622"/>
    </contour>
  </outline>
</glyph>
<glyph name="copyright" format="2">
  <advance width="810"/>
  <unicode hex="00A9"/>
  <outline>
    <contour>
      <point x="421" y="-10" type="curve" smooth="yes"/>
      <point x="616" y="-10"/>
      <point x="782" y="152"/>
      <point x="782" y="358" type="curve" smooth="yes"/>
      <point x="782" y="556"/>
      <point x="623" y="724"/>
      <point x="424" y="724" type="curve" smooth="yes"/>
      <point x="233" y="724"/>
      <point x="63" y="564"/>
      <point x="63" y="356" type="curve" smooth="yes"/>
      <point x="63" y="166"/>
      <point x="210" y="-10"/>
    </contour>
    <contour>
      <point x="438" y="131" type="curve" smooth="yes"/>
      <point x="483" y="131"/>
      <point x="523" y="141"/>
      <point x="561" y="159" type="curve"/>
      <point x="561" y="240" type="line"/>
      <point x="524" y="221"/>
      <point x="485" y="211"/>
      <point x="445" y="211" type="curve" smooth="yes"/>
      <point x="368" y="211"/>
      <point x="331" y="256"/>
      <point x="331" y="356" type="curve" smooth="yes"/>
      <point x="331" y="450"/>
      <point x="373" y="502"/>
      <point x="444" y="502" type="curve" smooth="yes"/>
      <point x="478" y="502"/>
      <point x="511" y="493"/>
      <point x="544" y="476" type="curve"/>
      <point x="579" y="548" type="line"/>
      <point x="535" y="570"/>
      <point x="487" y="582"/>
      <point x="438" y="582" type="curve" smooth="yes"/>
      <point x="309" y="582"/>
      <point x="233" y="495"/>
      <point x="233" y="356" type="curve" smooth="yes"/>
      <point x="233" y="212"/>
      <point x="297" y="131"/>
    </contour>
    <contour>
      <point x="421" y="52" type="curve" smooth="yes"/>
      <point x="265" y="52"/>
      <point x="124" y="180"/>
      <point x="124" y="356" type="curve" smooth="yes"/>
      <point x="124" y="518"/>
      <point x="254" y="662"/>
      <point x="424" y="662" type="curve" smooth="yes"/>
      <point x="584" y="662"/>
      <point x="720" y="527"/>
      <point x="720" y="358" type="curve" smooth="yes"/>
      <point x="720" y="197"/>
      <point x="591" y="52"/>
    </contour>
  </outline>
</glyph>
<glyph name="ordfeminine" format="2">
  <advance width="297"/>
  <unicode hex="00AA"/>
  <anchor x="169" y="369" name="bottom"/>
  <anchor x="241" y="719" name="top"/>
  <outline>
    <contour>
      <point x="157" y="369" type="curve" smooth="yes"/>
      <point x="195" y="369"/>
      <point x="219" y="391"/>
      <point x="237" y="420" type="curve"/>
      <point x="240" y="420" type="line"/>
      <point x="235" y="375" type="line"/>
      <point x="299" y="375" type="line"/>
      <point x="371" y="715" type="line"/>
      <point x="311" y="715" type="line"/>
      <point x="294" y="672" type="line"/>
      <point x="291" y="672" type="line"/>
      <point x="280" y="701"/>
      <point x="261" y="721"/>
      <point x="224" y="721" type="curve" smooth="yes"/>
      <point x="122" y="721"/>
      <point x="67" y="597"/>
      <point x="67" y="492" type="curve" smooth="yes"/>
      <point x="67" y="399"/>
      <point x="117" y="369"/>
    </contour>
    <contour>
      <point x="179" y="441" type="curve" smooth="yes"/>
      <point x="162" y="441"/>
      <point x="153" y="458"/>
      <point x="153" y="497" type="curve" smooth="yes"/>
      <point x="153" y="570"/>
      <point x="180" y="651"/>
      <point x="222" y="651" type="curve" smooth="yes"/>
      <point x="242" y="651"/>
      <point x="252" y="630"/>
      <point x="252" y="589" type="curve" smooth="yes"/>
      <point x="252" y="535"/>
      <point x="227" y="441"/>
    </contour>
  </outline>
</glyph>
<glyph name="logicalnot" format="2">
  <advance width="463"/>
  <unicode hex="00AC"/>
  <outline>
    <contour>
      <point x="445" y="406" type="line"/>
      <point x="52" y="406" type="line"/>
      <point x="52" y="300" type="line"/>
      <point x="336" y="300" type="line"/>
      <point x="336" y="118" type="line"/>
      <point x="445" y="118" type="line"/>
    </contour>
  </outline>
</glyph>
<glyph name="registered" format="2">
  <advance width="810"/>
  <unicode hex="00AE"/>
  <outline>
    <contour>
      <point x="277" y="149" type="line"/>
      <point x="372" y="149" type="line"/>
      <point x="372" y="313" type="line"/>
      <point x="419" y="313" type="line"/>
      <point x="496" y="149" type="line"/>
      <point x="600" y="149" type="line"/>
      <point x="504" y="331" type="line"/>
      <point x="552" y="353"/>
      <point x="575" y="391"/>
      <point x="575" y="449" type="curve" smooth="yes"/>
      <point x="575" y="535"/>
      <point x="519" y="577"/>
      <point x="411" y="577" type="curve" smooth="yes"/>
      <point x="277" y="577" type="line"/>
    </contour>
    <contour>
      <point x="404" y="381" type="curve" smooth="yes"/>
      <point x="372" y="381" type="line"/>
      <point x="372" y="502" type="line"/>
      <point x="404" y="502" type="line" smooth="yes"/>
      <point x="455" y="502"/>
      <point x="477" y="485"/>
      <point x="477" y="444" type="curve" smooth="yes"/>
      <point x="477" y="400"/>
      <point x="449" y="381"/>
    </contour>
    <contour>
      <point x="421" y="-10" type="curve" smooth="yes"/>
      <point x="616" y="-10"/>
      <point x="782" y="152"/>
      <point x="782" y="358" type="curve" smooth="yes"/>
      <point x="782" y="556"/>
      <point x="623" y="724"/>
      <point x="424" y="724" type="curve" smooth="yes"/>
      <point x="233" y="724"/>
      <point x="63" y="564"/>
      <point x="63" y="356" type="curve" smooth="yes"/>
      <point x="63" y="165"/>
      <point x="210" y="-10"/>
    </contour>
    <contour>
      <point x="421" y="52" type="curve" smooth="yes"/>
      <point x="264" y="52"/>
      <point x="124" y="180"/>
      <point x="124" y="356" type="curve" smooth="yes"/>
      <point x="124" y="518"/>
      <point x="254" y="662"/>
      <point x="424" y="662" type="curve" smooth="yes"/>
      <point x="584" y="662"/>
      <point x="720" y="527"/>
      <point x="720" y="358" type="curve" smooth="yes"/>
      <point x="720" y="197"/>
      <point x="591" y="52"/>
    </contour>
  </outline>
</glyph>
<glyph name="overscore" format="2">
  <advance width="422"/>
  <unicode hex="00AF"/>
  <outline>
    <contour>
      <point x="99" y="760" type="line"/>
      <point x="526" y="760" type="line"/>
      <point x="546" y="852" type="line"/>
      <point x="119" y="852" type="line"/>
    </contour>
  </outline>
</glyph>
<glyph name="degree" format="2">
  <advance width="389"/>
  <unicode hex="00B0"/>
  <outline>
    <contour>
      <point x="244" y="394" type="curve" smooth="yes"/>
      <point x="337" y="394"/>
      <point x="408" y="467"/>
      <point x="408" y="559" type="curve" smooth="yes"/>
      <point x="408" y="650"/>
      <point x="340" y="724"/>
      <point x="245" y="724" type="curve" smooth="yes"/>
      <point x="157" y="724"/>
      <point x="82" y="655"/>
      <point x="82" y="557" type="curve" smooth="yes"/>
      <point x="82" y="464"/>
      <point x="152" y="394"/>
    </contour>
    <contour>
      <point x="244" y="478" type="curve" smooth="yes"/>
      <point x="202" y="478"/>
      <point x="167" y="515"/>
      <point x="167" y="558" type="curve" smooth="yes"/>
      <point x="167" y="602"/>
      <point x="200" y="640"/>
      <point x="245" y="640" type="curve" smooth="yes"/>
      <point x="289" y="640"/>
      <point x="322" y="602"/>
      <point x="322" y="558" type="curve" smooth="yes"/>
      <point x="322" y="516"/>
      <point x="287" y="478"/>
    </contour>
  </outline>
</glyph>
<glyph name="twosuperior" format="2">
  <advance width="298"/>
  <unicode hex="00B2"/>
  <outline>
    <contour>
      <point x="57" y="416" type="line"/>
      <point x="293" y="416" type="line"/>
      <point x="311" y="497" type="line"/>
      <point x="171" y="497" type="line"/>
      <point x="252" y="580" type="line" smooth="yes"/>
      <point x="303" y="632"/>
      <point x="358" y="689"/>
      <point x="358" y="759" type="curve" smooth="yes"/>
      <point x="358" y="817"/>
      <point x="322" y="855"/>
      <point x="258" y="855" type="curve" smooth="yes"/>
      <point x="211" y="855"/>
      <point x="163" y="835"/>
      <point x="130" y="798" type="curve"/>
      <point x="160" y="736" type="line"/>
      <point x="180" y="756"/>
      <point x="206" y="778"/>
      <point x="230" y="778" type="curve" smooth="yes"/>
      <point x="250" y="778"/>
      <point x="261" y="764"/>
      <point x="261" y="742" type="curve" smooth="yes"/>
      <point x="261" y="701"/>
      <point x="230" y="665"/>
      <point x="181" y="611" type="curve" smooth="yes"/>
      <point x="73" y="493" type="line"/>
    </contour>
  </outline>
</glyph>
<glyph name="threesuperior" format="2">
  <advance width="298"/>
  <unicode hex="00B3"/>
  <outline>
    <contour>
      <point x="165" y="408" type="curve" smooth="yes"/>
      <point x="260" y="408"/>
      <point x="321" y="461"/>
      <point x="321" y="552" type="curve" smooth="yes"/>
      <point x="321" y="598"/>
      <point x="300" y="624"/>
      <point x="270" y="637" type="curve"/>
      <point x="271" y="641" type="line"/>
      <point x="329" y="662"/>
      <point x="357" y="704"/>
      <point x="357" y="758" type="curve" smooth="yes"/>
      <point x="357" y="813"/>
      <point x="325" y="854"/>
      <point x="251" y="854" type="curve" smooth="yes"/>
      <point x="209" y="854"/>
      <point x="165" y="840"/>
      <point x="127" y="807" type="curve"/>
      <point x="160" y="745" type="line"/>
      <point x="185" y="766"/>
      <point x="207" y="777"/>
      <point x="230" y="777" type="curve" smooth="yes"/>
      <point x="251" y="777"/>
      <point x="265" y="764"/>
      <point x="265" y="739" type="curve" smooth="yes"/>
      <point x="265" y="699"/>
      <point x="240" y="669"/>
      <point x="195" y="669" type="curve" smooth="yes"/>
      <point x="161" y="669" type="line"/>
      <point x="146" y="599" type="line"/>
      <point x="186" y="599" type="line" smooth="yes"/>
      <point x="215" y="599"/>
      <point x="233" y="582"/>
      <point x="233" y="553" type="curve" smooth="yes"/>
      <point x="233" y="513"/>
      <point x="207" y="488"/>
      <point x="168" y="488" type="curve" smooth="yes"/>
      <point x="127" y="488"/>
      <point x="93" y="501"/>
      <point x="69" y="524" type="curve"/>
      <point x="69" y="437" type="line"/>
      <point x="92" y="419"/>
      <point x="123" y="408"/>
    </contour>
  </outline>
</glyph>
<glyph name="acute" format="2">
  <advance width="289"/>
  <unicode hex="00B4"/>
  <anchor x="175" y="530" name="_top"/>
  <outline>
    <contour>
      <point x="113" y="616" type="curve"/>
      <point x="111" y="606" type="line"/>
      <point x="197" y="606" type="line"/>
      <point x="229" y="633"/>
      <point x="323" y="723"/>
      <point x="352" y="758" type="curve"/>
      <point x="353" y="766" type="line"/>
      <point x="217" y="766" type="line"/>
      <point x="189" y="718"/>
      <point x="153" y="667"/>
    </contour>
  </outline>
</glyph>
<glyph name="micro" format="2">
  <advance width="446"/>
  <unicode hex="00B5"/>
  <outline>
    <contour>
      <point x="-59" y="-240" type="line"/>
      <point x="61" y="-240" type="line"/>
      <point x="98" y="-63" type="line" smooth="yes"/>
      <point x="105" y="-33"/>
      <point x="107" y="-5"/>
      <point x="108" y="20" type="curve"/>
      <point x="110" y="20" type="line"/>
      <point x="120" y="1"/>
      <point x="135" y="-10"/>
      <point x="156" y="-10" type="curve" smooth="yes"/>
      <point x="188" y="-10"/>
      <point x="217" y="8"/>
      <point x="244" y="59" type="curve"/>
      <point x="246" y="59" type="line"/>
      <point x="245" y="0" type="line"/>
      <point x="339" y="0" type="line"/>
      <point x="454" y="545" type="line"/>
      <point x="335" y="545" type="line"/>
      <point x="272" y="250" type="line" smooth="yes"/>
      <point x="247" y="134"/>
      <point x="218" y="99"/>
      <point x="181" y="99" type="curve" smooth="yes"/>
      <point x="158" y="99"/>
      <point x="149" y="116"/>
      <point x="149" y="147" type="curve" smooth="yes"/>
      <point x="149" y="167"/>
      <point x="153" y="191"/>
      <point x="159" y="221" type="curve" smooth="yes"/>
      <point x="227" y="545" type="line"/>
      <point x="108" y="545" type="line"/>
    </contour>
  </outline>
</glyph>
<glyph name="paragraph" format="2">
  <advance width="491"/>
  <unicode hex="00B6"/>
  <outline>
    <contour>
      <point x="246" y="292" type="curve"/>
      <point x="246" y="-127" type="line"/>
      <point x="318" y="-127" type="line"/>
      <point x="318" y="695" type="line"/>
      <point x="376" y="695" type="line"/>
      <point x="376" y="-127" type="line"/>
      <point x="448" y="-127" type="line"/>
      <point x="448" y="760" type="line"/>
      <point x="232" y="760" type="line" smooth="yes"/>
      <point x="120" y="760"/>
      <point x="79" y="648"/>
      <point x="79" y="526" type="curve" smooth="yes"/>
      <point x="79" y="414"/>
      <point x="105" y="286"/>
      <point x="212" y="286" type="curve" smooth="yes"/>
      <point x="227" y="286"/>
      <point x="237" y="288"/>
    </contour>
  </outline>
</glyph>
<glyph name="cedilla" format="2">
  <advance width="160"/>
  <unicode hex="00B8"/>
  <outline>
    <contour>
      <point x="-32" y="-240" type="curve" smooth="yes"/>
      <point x="41" y="-240"/>
      <point x="99" y="-205"/>
      <point x="99" y="-121" type="curve" smooth="yes"/>
      <point x="99" y="-77"/>
      <point x="71" y="-50"/>
      <point x="31" y="-42" type="curve"/>
      <point x="57" y="0" type="line"/>
      <point x="-5" y="0" type="line"/>
      <point x="-55" y="-81" type="line"/>
      <point x="-16" y="-84"/>
      <point x="3" y="-99"/>
      <point x="3" y="-123" type="curve" smooth="yes"/>
      <point x="3" y="-151"/>
      <point x="-16" y="-168"/>
      <point x="-49" y="-168" type="curve" smooth="yes"/>
      <point x="-70" y="-168"/>
      <point x="-90" y="-165"/>
      <point x="-104" y="-161" type="curve"/>
      <point x="-104" y="-231" type="line"/>
      <point x="-80" y="-238"/>
      <point x="-57" y="-240"/>
    </contour>
  </outline>
</glyph>
<glyph name="onesuperior" format="2">
  <advance width="298"/>
  <unicode hex="00B9"/>
  <outline>
    <contour>
      <point x="211" y="680" type="curve" smooth="yes"/>
      <point x="154" y="416" type="line"/>
      <point x="246" y="416" type="line"/>
      <point x="337" y="844" type="line"/>
      <point x="260" y="844" type="line"/>
      <point x="112" y="727" type="line"/>
      <point x="150" y="671" type="line"/>
      <point x="204" y="712" type="line" smooth="yes"/>
      <point x="209" y="716"/>
      <point x="217" y="724"/>
      <point x="225" y="732" type="curve"/>
      <point x="220" y="716"/>
      <point x="215" y="701"/>
    </contour>
  </outline>
</glyph>
<glyph name="ordmasculine" format="2">
  <advance width="296"/>
  <unicode hex="00BA"/>
  <anchor x="170" y="368" name="bottom"/>
  <anchor x="236" y="721" name="top"/>
  <outline>
    <contour>
      <point x="174" y="368" type="curve" smooth="yes"/>
      <point x="277" y="368"/>
      <point x="337" y="489"/>
      <point x="337" y="598" type="curve" smooth="yes"/>
      <point x="337" y="684"/>
      <point x="292" y="722"/>
      <point x="233" y="722" type="curve" smooth="yes"/>
      <point x="125" y="722"/>
      <point x="69" y="602"/>
      <point x="69" y="493" type="curve" smooth="yes"/>
      <point x="69" y="417"/>
      <point x="104" y="368"/>
    </contour>
    <contour>
      <point x="186" y="443" type="curve" smooth="yes"/>
      <point x="164" y="443"/>
      <point x="155" y="459"/>
      <point x="155" y="498" type="curve" smooth="yes"/>
      <point x="155" y="568"/>
      <point x="178" y="648"/>
      <point x="221" y="648" type="curve" smooth="yes"/>
      <point x="243" y="648"/>
      <point x="252" y="628"/>
      <point x="252" y="591" type="curve" smooth="yes"/>
      <point x="252" y="522"/>
      <point x="229" y="443"/>
    </contour>
  </outline>
</glyph>
<glyph name="AE" format="2">
  <advance width="615"/>
  <unicode hex="00C6"/>
  <anchor x="252" y="0" name="bottom"/>
  <anchor x="413" y="714" name="top"/>
  <outline>
    <contour>
      <point x="-64" y="0" type="line"/>
      <point x="71" y="0" type="line"/>
      <point x="153" y="182" type="line"/>
      <point x="265" y="182" type="line"/>
      <point x="226" y="0" type="line"/>
      <point x="514" y="0" type="line"/>
      <point x="538" y="110" type="line"/>
      <point x="374" y="110" type="line"/>
      <point x="417" y="316" type="line"/>
      <point x="569" y="316" type="line"/>
      <point x="593" y="425" type="line"/>
      <point x="440" y="425" type="line"/>
      <point x="478" y="605" type="line"/>
      <point x="642" y="605" type="line"/>
      <point x="665" y="714" type="line"/>
      <point x="278" y="714" type="line"/>
    </contour>
    <contour>
      <point x="204" y="293" type="line"/>
      <point x="344" y="605" type="line"/>
      <point x="355" y="605" type="line"/>
      <point x="289" y="293" type="line"/>
    </contour>
  </outline>
</glyph>
<glyph name="multiply" format="2">
  <advance width="462"/>
  <unicode hex="00D7"/>
  <outline>
    <contour>
      <point x="374" y="555" type="line"/>
      <point x="250" y="428" type="line"/>
      <point x="126" y="554" type="line"/>
      <point x="54" y="480" type="line"/>
      <point x="175" y="353" type="line"/>
      <point x="54" y="226" type="line"/>
      <point x="125" y="152" type="line"/>
      <point x="250" y="279" type="line"/>
      <point x="373" y="152" type="line"/>
      <point x="446" y="225" type="line"/>
      <point x="324" y="353" type="line"/>
      <point x="448" y="482" type="line"/>
    </contour>
  </outline>
</glyph>
<glyph name="Oslash" format="2">
  <advance width="529"/>
  <unicode hex="00D8"/>
  <anchor x="198" y="-53" name="bottom"/>
  <anchor x="369" y="758" name="top"/>
  <outline>
    <contour>
      <point x="61" y="-53" type="line"/>
      <point x="109" y="23" type="line"/>
      <point x="135" y="1"/>
      <point x="170" y="-10"/>
      <point x="215" y="-10" type="curve" smooth="yes"/>
      <point x="436" y="-10"/>
      <point x="524" y="315"/>
      <point x="524" y="504" type="curve" smooth="yes"/>
      <point x="524" y="557"/>
      <point x="516" y="601"/>
      <point x="499" y="635" type="curve"/>
      <point x="555" y="724" type="line"/>
      <point x="498" y="758" type="line"/>
      <point x="455" y="689" type="line"/>
      <point x="428" y="713"/>
      <point x="392" y="725"/>
      <point x="346" y="725" type="curve" smooth="yes"/>
      <point x="142" y="725"/>
      <point x="36" y="435"/>
      <point x="36" y="215" type="curve" smooth="yes"/>
      <point x="36" y="156"/>
      <point x="44" y="110"/>
      <point x="62" y="75" type="curve"/>
      <point x="3" y="-19" type="line"/>
    </contour>
    <contour>
      <point x="225" y="102" type="curve" smooth="yes"/>
      <point x="204" y="102"/>
      <point x="188" y="112"/>
      <point x="178" y="134" type="curve"/>
      <point x="391" y="477" type="line"/>
      <point x="390" y="467"/>
      <point x="390" y="456"/>
      <point x="388" y="445" type="curve" smooth="yes"/>
      <point x="368" y="308"/>
      <point x="321" y="102"/>
    </contour>
    <contour>
      <point x="385" y="576" type="curve"/>
      <point x="169" y="230" type="line"/>
      <point x="169" y="243"/>
      <point x="169" y="258"/>
      <point x="171" y="274" type="curve" smooth="yes"/>
      <point x="186" y="397"/>
      <point x="235" y="614"/>
      <point x="335" y="614" type="curve" smooth="yes"/>
      <point x="359" y="614"/>
      <point x="376" y="602"/>
    </contour>
  </outline>
</glyph>
<glyph name="Thorn" format="2">
  <advance width="437"/>
  <unicode hex="00DE"/>
  <anchor x="163" y="0" name="bottom"/>
  <anchor x="315" y="714" name="top"/>
  <outline>
    <contour>
      <point x="-2" y="0" type="line"/>
      <point x="123" y="0" type="line"/>
      <point x="153" y="144" type="line"/>
      <point x="194" y="144" type="line" smooth="yes"/>
      <point x="360" y="144"/>
      <point x="441" y="292"/>
      <point x="441" y="438" type="curve" smooth="yes"/>
      <point x="441" y="536"/>
      <point x="386" y="601"/>
      <point x="266" y="601" type="curve" smooth="yes"/>
      <point x="250" y="601" type="line"/>
      <point x="274" y="714" type="line"/>
      <point x="149" y="714" type="line"/>
    </contour>
    <contour>
      <point x="195" y="253" type="curve" smooth="yes"/>
      <point x="175" y="253" type="line"/>
      <point x="226" y="491" type="line"/>
      <point x="244" y="491" type="line" smooth="yes"/>
      <point x="290" y="491"/>
      <point x="311" y="471"/>
      <point x="311" y="421" type="curve" smooth="yes"/>
      <point x="311" y="323"/>
      <point x="269" y="253"/>
    </contour>
  </outline>
</glyph>
<glyph name="germandbls" format="2">
  <advance width="477"/>
  <unicode hex="00DF"/>
  <anchor x="132" y="-240" name="bottom"/>
  <anchor x="345" y="765" name="top"/>
  <outline>
    <contour>
      <point x="-66" y="-240" type="curve" smooth="yes"/>
      <point x="40" y="-240"/>
      <point x="74" y="-167"/>
      <point x="98" y="-53" type="curve" smooth="yes"/>
      <point x="226" y="545" type="line" smooth="yes"/>
      <point x="243" y="623"/>
      <point x="269" y="662"/>
      <point x="313" y="662" type="curve" smooth="yes"/>
      <point x="342" y="662"/>
      <point x="357" y="643"/>
      <point x="357" y="614" type="curve" smooth="yes"/>
      <point x="357" y="565"/>
      <point x="332" y="537"/>
      <point x="293" y="498" type="curve" smooth="yes"/>
      <point x="250" y="455"/>
      <point x="223" y="411"/>
      <point x="223" y="360" type="curve" smooth="yes"/>
      <point x="223" y="323"/>
      <point x="235" y="295"/>
      <point x="262" y="255" type="curve" smooth="yes"/>
      <point x="293" y="209"/>
      <point x="305" y="190"/>
      <point x="305" y="161" type="curve" smooth="yes"/>
      <point x="305" y="123"/>
      <point x="285" y="95"/>
      <point x="248" y="95" type="curve" smooth="yes"/>
      <point x="222" y="95"/>
      <point x="191" y="104"/>
      <point x="161" y="130" type="curve"/>
      <point x="140" y="17" type="line"/>
      <point x="169" y="-2"/>
      <point x="207" y="-10"/>
      <point x="246" y="-10" type="curve" smooth="yes"/>
      <point x="356" y="-10"/>
      <point x="430" y="64"/>
      <point x="430" y="175" type="curve" smooth="yes"/>
      <point x="430" y="234"/>
      <point x="409" y="269"/>
      <point x="382" y="304" type="curve" smooth="yes"/>
      <point x="361" y="332"/>
      <point x="349" y="357"/>
      <point x="349" y="379" type="curve" smooth="yes"/>
      <point x="349" y="423"/>
      <point x="379" y="448"/>
      <point x="414" y="483" type="curve" smooth="yes"/>
      <point x="459" y="528"/>
      <point x="482" y="570"/>
      <point x="482" y="634" type="curve" smooth="yes"/>
      <point x="482" y="711"/>
      <point x="425" y="765"/>
      <point x="321" y="765" type="curve" smooth="yes"/>
      <point x="205" y="765"/>
      <point x="136" y="686"/>
      <point x="109" y="557" type="curve" smooth="yes"/>
      <point x="-19" y="-44" type="line" smooth="yes"/>
      <point x="-33" y="-110"/>
      <point x="-47" y="-134"/>
      <point x="-82" y="-134" type="curve" smooth="yes"/>
      <point x="-95" y="-134"/>
      <point x="-116" y="-130"/>
      <point x="-128" y="-125" type="curve"/>
      <point x="-128" y="-231" type="line"/>
      <point x="-107" y="-238"/>
      <point x="-87" y="-240"/>
    </contour>
  </outline>
</glyph>
<glyph name="ae" format="2">
  <advance width="654"/>
  <unicode hex="00E6"/>
  <anchor x="279" y="0" name="bottom"/>
  <anchor x="385" y="545" name="top"/>
  <outline>
    <contour>
      <point x="119" y="-10" type="curve" smooth="yes"/>
      <point x="170" y="-10"/>
      <point x="211" y="20"/>
      <point x="244" y="67" type="curve"/>
      <point x="246" y="67" type="line"/>
      <point x="236" y="0" type="line"/>
      <point x="320" y="0" type="line"/>
      <point x="330" y="43" type="line"/>
      <point x="342" y="11"/>
      <point x="373" y="-10"/>
      <point x="424" y="-10" type="curve" smooth="yes"/>
      <point x="474" y="-10"/>
      <point x="512" y="0"/>
      <point x="558" y="27" type="curve"/>
      <point x="579" y="130" type="line"/>
      <point x="527" y="101"/>
      <point x="489" y="88"/>
      <point x="448" y="88" type="curve" smooth="yes"/>
      <point x="399" y="88"/>
      <point x="378" y="118"/>
      <point x="378" y="177" type="curve" smooth="yes"/>
      <point x="378" y="195"/>
      <point x="379" y="214"/>
      <point x="383" y="233" type="curve"/>
      <point x="392" y="233" type="line" smooth="yes"/>
      <point x="546" y="233"/>
      <point x="647" y="299"/>
      <point x="647" y="428" type="curve" smooth="yes"/>
      <point x="647" y="504"/>
      <point x="600" y="554"/>
      <point x="525" y="554" type="curve" smooth="yes"/>
      <point x="476" y="554"/>
      <point x="444" y="530"/>
      <point x="418" y="501" type="curve"/>
      <point x="425" y="545" type="line"/>
      <point x="341" y="545" type="line"/>
      <point x="327" y="490" type="line"/>
      <point x="325" y="490" type="line"/>
      <point x="308" y="535"/>
      <point x="272" y="555"/>
      <point x="234" y="555" type="curve" smooth="yes"/>
      <point x="99" y="555"/>
      <point x="19" y="326"/>
      <point x="19" y="147" type="curve" smooth="yes"/>
      <point x="19" y="49"/>
      <point x="59" y="-10"/>
    </contour>
    <contour>
      <point x="177" y="92" type="curve" smooth="yes"/>
      <point x="154" y="92"/>
      <point x="143" y="116"/>
      <point x="143" y="162" type="curve" smooth="yes"/>
      <point x="143" y="280"/>
      <point x="194" y="450"/>
      <point x="255" y="450" type="curve" smooth="yes"/>
      <point x="279" y="450"/>
      <point x="293" y="428"/>
      <point x="293" y="386" type="curve" smooth="yes"/>
      <point x="293" y="353"/>
      <point x="288" y="314"/>
      <point x="274" y="252" type="curve" smooth="yes"/>
      <point x="258" y="181"/>
      <point x="230" y="92"/>
    </contour>
    <contour>
      <point x="405" y="320" type="curve" smooth="yes"/>
      <point x="402" y="320" type="line"/>
      <point x="419" y="389"/>
      <point x="450" y="459"/>
      <point x="497" y="459" type="curve" smooth="yes"/>
      <point x="522" y="459"/>
      <point x="537" y="442"/>
      <point x="537" y="416" type="curve" smooth="yes"/>
      <point x="537" y="361"/>
      <point x="504" y="320"/>
    </contour>
  </outline>
</glyph>
<glyph name="eth" format="2">
  <advance width="437"/>
  <unicode hex="00F0"/>
  <anchor x="164" y="0" name="bottom"/>
  <anchor x="327" y="767" name="top"/>
  <outline>
    <contour>
      <point x="165" y="-10" type="curve" smooth="yes"/>
      <point x="363" y="-10"/>
      <point x="418" y="257"/>
      <point x="418" y="430" type="curve" smooth="yes"/>
      <point x="418" y="512"/>
      <point x="399" y="588"/>
      <point x="360" y="652" type="curve"/>
      <point x="439" y="709" type="line"/>
      <point x="398" y="765" type="line"/>
      <point x="319" y="707" type="line"/>
      <point x="296" y="731"/>
      <point x="272" y="750"/>
      <point x="246" y="767" type="curve"/>
      <point x="185" y="700" type="line"/>
      <point x="206" y="682"/>
      <point x="224" y="664"/>
      <point x="237" y="648" type="curve"/>
      <point x="156" y="591" type="line"/>
      <point x="195" y="535" type="line"/>
      <point x="270" y="588" type="line"/>
      <point x="295" y="545"/>
      <point x="302" y="499"/>
      <point x="302" y="437" type="curve"/>
      <point x="301" y="437" type="line"/>
      <point x="288" y="463"/>
      <point x="268" y="485"/>
      <point x="235" y="485" type="curve" smooth="yes"/>
      <point x="84" y="485"/>
      <point x="13" y="290"/>
      <point x="13" y="161" type="curve" smooth="yes"/>
      <point x="13" y="52"/>
      <point x="67" y="-10"/>
    </contour>
    <contour>
      <point x="179" y="92" type="curve" smooth="yes"/>
      <point x="150" y="92"/>
      <point x="135" y="117"/>
      <point x="135" y="166" type="curve" smooth="yes"/>
      <point x="135" y="252"/>
      <point x="175" y="382"/>
      <point x="238" y="382" type="curve" smooth="yes"/>
      <point x="268" y="382"/>
      <point x="282" y="356"/>
      <point x="282" y="309" type="curve" smooth="yes"/>
      <point x="282" y="224"/>
      <point x="240" y="92"/>
    </contour>
  </outline>
</glyph>
<glyph name="divide" format="2">
  <advance width="462"/>
  <unicode hex="00F7"/>
  <outline>
    <contour>
      <point x="52" y="300" type="line"/>
      <point x="450" y="300" type="line"/>
      <point x="450" y="406" type="line"/>
      <point x="52" y="406" type="line"/>
    </contour>
    <contour>
      <point x="252" y="86" type="curve" smooth="yes"/>
      <point x="293" y="86"/>
      <point x="318" y="113"/>
      <point x="318" y="163" type="curve" smooth="yes"/>
      <point x="318" y="212"/>
      <point x="295" y="239"/>
      <point x="252" y="239" type="curve" smooth="yes"/>
      <point x="207" y="239"/>
      <point x="183" y="212"/>
      <point x="183" y="163" type="curve" smooth="yes"/>
      <point x="183" y="113"/>
      <point x="209" y="86"/>
    </contour>
    <contour>
      <point x="252" y="466" type="curve" smooth="yes"/>
      <point x="293" y="466"/>
      <point x="318" y="493"/>
      <point x="318" y="542" type="curve" smooth="yes"/>
      <point x="318" y="592"/>
      <point x="295" y="619"/>
      <point x="252" y="619" type="curve" smooth="yes"/>
      <point x="207" y="619"/>
      <point x="183" y="592"/>
      <point x="183" y="542" type="curve" smooth="yes"/>
      <point x="183" y="493"/>
      <point x="209" y="466"/>
    </contour>
  </outline>
</glyph>
<glyph name="oslash" format="2">
  <advance width="437"/>
  <unicode hex="00F8"/>
  <anchor x="151" y="-62" name="bottom"/>
  <anchor x="290" y="594" name="top"/>
  <outline>
    <contour>
      <point x="47" y="-62" type="line"/>
      <point x="94" y="11" type="line"/>
      <point x="115" y="-3"/>
      <point x="141" y="-10"/>
      <point x="171" y="-10" type="curve" smooth="yes"/>
      <point x="349" y="-10"/>
      <point x="419" y="232"/>
      <point x="419" y="378" type="curve" smooth="yes"/>
      <point x="419" y="420"/>
      <point x="410" y="454"/>
      <point x="396" y="482" type="curve"/>
      <point x="445" y="559" type="line"/>
      <point x="389" y="594" type="line"/>
      <point x="349" y="531" type="line"/>
      <point x="328" y="546"/>
      <point x="302" y="555"/>
      <point x="272" y="555" type="curve" smooth="yes"/>
      <point x="86" y="555"/>
      <point x="22" y="302"/>
      <point x="22" y="166" type="curve" smooth="yes"/>
      <point x="22" y="122"/>
      <point x="31" y="86"/>
      <point x="46" y="58" type="curve"/>
      <point x="-8" y="-28" type="line"/>
    </contour>
    <contour>
      <point x="184" y="88" type="curve" smooth="yes"/>
      <point x="169" y="88"/>
      <point x="158" y="95"/>
      <point x="149" y="108" type="curve"/>
      <point x="300" y="352" type="line"/>
      <point x="300" y="344"/>
      <point x="300" y="335"/>
      <point x="299" y="326" type="curve" smooth="yes"/>
      <point x="287" y="224"/>
      <point x="247" y="88"/>
    </contour>
    <contour>
      <point x="293" y="434" type="curve"/>
      <point x="139" y="186" type="line"/>
      <point x="139" y="195"/>
      <point x="140" y="205"/>
      <point x="141" y="215" type="curve" smooth="yes"/>
      <point x="151" y="315"/>
      <point x="195" y="457"/>
      <point x="255" y="457" type="curve" smooth="yes"/>
      <point x="273" y="457"/>
      <point x="284" y="449"/>
    </contour>
  </outline>
</glyph>
<glyph name="thorn" format="2">
  <advance width="447"/>
  <unicode hex="00FE"/>
  <anchor x="119" y="-236" name="bottom"/>
  <anchor x="330" y="761" name="top"/>
  <outline>
    <contour>
      <point x="-56" y="-236" type="line"/>
      <point x="63" y="-236" type="line"/>
      <point x="109" y="-18" type="line" smooth="yes"/>
      <point x="113" y="0"/>
      <point x="118" y="31"/>
      <point x="122" y="62" type="curve"/>
      <point x="125" y="62" type="line"/>
      <point x="139" y="18"/>
      <point x="172" y="-10"/>
      <point x="216" y="-10" type="curve" smooth="yes"/>
      <point x="359" y="-10"/>
      <point x="432" y="242"/>
      <point x="432" y="397" type="curve" smooth="yes"/>
      <point x="432" y="504"/>
      <point x="391" y="555"/>
      <point x="325" y="555" type="curve" smooth="yes"/>
      <point x="280" y="555"/>
      <point x="244" y="530"/>
      <point x="218" y="491" type="curve"/>
      <point x="214" y="491" type="line"/>
      <point x="219" y="505"/>
      <point x="223" y="518"/>
      <point x="226" y="535" type="curve" smooth="yes"/>
      <point x="274" y="761" type="line"/>
      <point x="155" y="761" type="line"/>
    </contour>
    <contour>
      <point x="195" y="95" type="curve" smooth="yes"/>
      <point x="168" y="95"/>
      <point x="155" y="117"/>
      <point x="155" y="161" type="curve" smooth="yes"/>
      <point x="155" y="192"/>
      <point x="161" y="241"/>
      <point x="173" y="291" type="curve" smooth="yes"/>
      <point x="192" y="370"/>
      <point x="227" y="453"/>
      <point x="274" y="453" type="curve" smooth="yes"/>
      <point x="296" y="453"/>
      <point x="308" y="430"/>
      <point x="308" y="382" type="curve" smooth="yes"/>
      <point x="308" y="292"/>
      <point x="266" y="95"/>
    </contour>
  </outline>
</glyph>
<glyph name="dcroat" format="2">
  <advance width="448"/>
  <unicode hex="0111"/>
  <anchor x="170" y="0" name="bottom"/>
  <anchor x="331" y="760" name="top"/>
  <outline>
    <contour>
      <point x="126" y="-10" type="curve" smooth="yes"/>
      <point x="175" y="-10"/>
      <point x="205" y="17"/>
      <point x="242" y="65" type="curve"/>
      <point x="245" y="65" type="line"/>
      <point x="244" y="0" type="line"/>
      <point x="341" y="0" type="line"/>
      <point x="467" y="592" type="line"/>
      <point x="522" y="592" type="line"/>
      <point x="541" y="680" type="line"/>
      <point x="486" y="680" type="line"/>
      <point x="503" y="760" type="line"/>
      <point x="383" y="760" type="line"/>
      <point x="366" y="680" type="line"/>
      <point x="287" y="680" type="line"/>
      <point x="267" y="592" type="line"/>
      <point x="347" y="592" type="line"/>
      <point x="342" y="567" type="line" smooth="yes"/>
      <point x="337" y="544"/>
      <point x="333" y="517"/>
      <point x="330" y="487" type="curve"/>
      <point x="327" y="487" type="line"/>
      <point x="310" y="533"/>
      <point x="272" y="555"/>
      <point x="227" y="555" type="curve" smooth="yes"/>
      <point x="87" y="555"/>
      <point x="19" y="287"/>
      <point x="19" y="147" type="curve" smooth="yes"/>
      <point x="19" y="49"/>
      <point x="59" y="-10"/>
    </contour>
    <contour>
      <point x="177" y="92" type="curve" smooth="yes"/>
      <point x="154" y="92"/>
      <point x="143" y="116"/>
      <point x="143" y="162" type="curve" smooth="yes"/>
      <point x="143" y="242"/>
      <point x="183" y="450"/>
      <point x="255" y="450" type="curve" smooth="yes"/>
      <point x="282" y="450"/>
      <point x="295" y="428"/>
      <point x="295" y="384" type="curve" smooth="yes"/>
      <point x="295" y="302"/>
      <point x="256" y="92"/>
    </contour>
  </outline>
</glyph>
<glyph name="eogonek" format="2">
  <advance width="416"/>
  <unicode hex="0119"/>
  <anchor x="123" y="-222" name="bottom"/>
  <anchor x="276" y="545" name="top"/>
  <outline>
    <contour>
      <point x="188" y="-222" type="curve" smooth="yes"/>
      <point x="210" y="-222"/>
      <point x="232" y="-221"/>
      <point x="253" y="-212" type="curve"/>
      <point x="271" y="-132" type="line"/>
      <point x="255" y="-135"/>
      <point x="240" y="-138"/>
      <point x="230" y="-138" type="curve" smooth="yes"/>
      <point x="216" y="-138"/>
      <point x="206" y="-129"/>
      <point x="206" y="-112" type="curve" smooth="yes"/>
      <point x="208" y="-76"/>
      <point x="234" y="-27"/>
      <point x="308" y="20" type="curve"/>
      <point x="205" y="10" type="line"/>
      <point x="144" y="-35"/>
      <point x="104" y="-84"/>
      <point x="104" y="-144" type="curve" smooth="yes"/>
      <point x="104" y="-189"/>
      <point x="132" y="-222"/>
    </contour>
    <component base="e"/>
  </outline>
</glyph>
<glyph name="Hbar" format="2">
  <advance width="515"/>
  <unicode hex="0126"/>
  <anchor x="203" y="0" name="bottom"/>
  <anchor x="354" y="714" name="top"/>
  <outline>
    <contour>
      <point x="-2" y="0" type="line"/>
      <point x="123" y="0" type="line"/>
      <point x="190" y="317" type="line"/>
      <point x="342" y="317" type="line"/>
      <point x="275" y="0" type="line"/>
      <point x="400" y="0" type="line"/>
      <point x="512" y="526" type="line"/>
      <point x="567" y="526" type="line"/>
      <point x="587" y="615" type="line"/>
      <point x="531" y="615" type="line"/>
      <point x="552" y="714" type="line"/>
      <point x="427" y="714" type="line"/>
      <point x="405" y="615" type="line"/>
      <point x="253" y="615" type="line"/>
      <point x="274" y="714" type="line"/>
      <point x="149" y="714" type="line"/>
      <point x="128" y="615" type="line"/>
      <point x="71" y="615" type="line"/>
      <point x="52" y="526" type="line"/>
      <point x="109" y="526" type="line"/>
    </contour>
    <contour>
      <point x="212" y="420" type="line"/>
      <point x="234" y="526" type="line"/>
      <point x="387" y="526" type="line"/>
      <point x="364" y="420" type="line"/>
    </contour>
  </outline>
</glyph>
<glyph name="hbar" format="2">
  <advance width="447"/>
  <unicode hex="0127"/>
  <anchor x="169" y="0" name="bottom"/>
  <anchor x="330" y="760" name="top"/>
  <outline>
    <contour>
      <point x="-6" y="0" type="line"/>
      <point x="114" y="0" type="line"/>
      <point x="175" y="288" type="line" smooth="yes"/>
      <point x="196" y="386"/>
      <point x="222" y="431"/>
      <point x="263" y="431" type="curve" smooth="yes"/>
      <point x="284" y="431"/>
      <point x="297" y="417"/>
      <point x="297" y="390" type="curve" smooth="yes"/>
      <point x="297" y="363"/>
      <point x="291" y="333"/>
      <point x="284" y="302" type="curve" smooth="yes"/>
      <point x="221" y="0" type="line"/>
      <point x="341" y="0" type="line"/>
      <point x="411" y="331" type="line" smooth="yes"/>
      <point x="418" y="361"/>
      <point x="423" y="397"/>
      <point x="423" y="423" type="curve" smooth="yes"/>
      <point x="423" y="495"/>
      <point x="385" y="540"/>
      <point x="321" y="540" type="curve" smooth="yes"/>
      <point x="272" y="540"/>
      <point x="237" y="515"/>
      <point x="208" y="470" type="curve"/>
      <point x="205" y="470" type="line"/>
      <point x="215" y="496"/>
      <point x="224" y="523"/>
      <point x="239" y="592" type="curve"/>
      <point x="324" y="592" type="line"/>
      <point x="342" y="680" type="line"/>
      <point x="258" y="680" type="line"/>
      <point x="275" y="760" type="line"/>
      <point x="155" y="760" type="line"/>
      <point x="138" y="680" type="line"/>
      <point x="83" y="680" type="line"/>
      <point x="65" y="592" type="line"/>
      <point x="119" y="592" type="line"/>
    </contour>
  </outline>
</glyph>
<glyph name="kgreenlandic" format="2">
  <advance width="420"/>
  <unicode hex="0138"/>
  <anchor x="156" y="0" name="bottom"/>
  <anchor x="271" y="545" name="top"/>
  <outline>
    <contour>
      <point x="-7" y="0" type="line"/>
      <point x="113" y="0" type="line"/>
      <point x="147" y="169" type="line"/>
      <point x="195" y="219" type="line"/>
      <point x="237" y="0" type="line"/>
      <point x="367" y="0" type="line"/>
      <point x="300" y="316" type="line"/>
      <point x="472" y="545" type="line"/>
      <point x="341" y="545" type="line"/>
      <point x="178" y="321" type="line"/>
      <point x="176" y="321" type="line"/>
      <point x="188" y="362"/>
      <point x="197" y="397"/>
      <point x="204" y="431" type="curve" smooth="yes"/>
      <point x="228" y="545" type="line"/>
      <point x="109" y="545" type="line"/>
    </contour>
  </outline>
</glyph>
<glyph name="Lslash" format="2">
  <advance width="378"/>
  <unicode hex="0141"/>
  <anchor x="135" y="0" name="bottom"/>
  <anchor x="286" y="714" name="top"/>
  <outline>
    <contour>
      <point x="12" y="0" type="line"/>
      <point x="306" y="0" type="line"/>
      <point x="328" y="110" type="line"/>
      <point x="160" y="110" type="line"/>
      <point x="212" y="351" type="line"/>
      <point x="365" y="460" type="line"/>
      <point x="315" y="531" type="line"/>
      <point x="239" y="480" type="line"/>
      <point x="288" y="714" type="line"/>
      <point x="163" y="714" type="line"/>
      <point x="92" y="378" type="line"/>
      <point x="-25" y="297" type="line"/>
      <point x="24" y="223" type="line"/>
      <point x="64" y="249" type="line"/>
    </contour>
  </outline>
</glyph>
<glyph name="lslash" format="2">
  <advance width="258"/>
  <unicode hex="0142"/>
  <anchor x="75" y="0" name="bottom"/>
  <anchor x="236" y="760" name="top"/>
  <outline>
    <contour>
      <point x="11" y="0" type="line"/>
      <point x="131" y="0" type="line"/>
      <point x="207" y="357" type="line"/>
      <point x="316" y="410" type="line"/>
      <point x="282" y="490" type="line"/>
      <point x="230" y="463" type="line"/>
      <point x="293" y="760" type="line"/>
      <point x="173" y="760" type="line"/>
      <point x="99" y="410" type="line"/>
      <point x="-5" y="361" type="line"/>
      <point x="29" y="280" type="line"/>
      <point x="76" y="304" type="line"/>
    </contour>
  </outline>
</glyph>
<glyph name="Eng" format="2">
  <advance width="552"/>
  <unicode hex="014A"/>
  <anchor x="178" y="-208" name="bottom"/>
  <anchor x="373" y="714" name="top"/>
  <outline>
    <contour>
      <point x="238" y="-208" type="curve" smooth="yes"/>
      <point x="364" y="-208"/>
      <point x="411" y="-117"/>
      <point x="441" y="23" type="curve" smooth="yes"/>
      <point x="588" y="714" type="line"/>
      <point x="470" y="714" type="line"/>
      <point x="402" y="390" type="line" smooth="yes"/>
      <point x="394" y="351"/>
      <point x="387" y="307"/>
      <point x="380" y="259" type="curve"/>
      <point x="377" y="259" type="line"/>
      <point x="295" y="714" type="line"/>
      <point x="149" y="714" type="line"/>
      <point x="-2" y="0" type="line"/>
      <point x="115" y="0" type="line"/>
      <point x="193" y="373" type="line" smooth="yes"/>
      <point x="202" y="414"/>
      <point x="212" y="468"/>
      <point x="217" y="516" type="curve"/>
      <point x="221" y="516" type="line"/>
      <point x="316" y="-1" type="line"/>
      <point x="304" y="-64"/>
      <point x="283" y="-98"/>
      <point x="243" y="-98" type="curve" smooth="yes"/>
      <point x="226" y="-98"/>
      <point x="209" y="-93"/>
      <point x="192" y="-85" type="curve"/>
      <point x="168" y="-196" type="line"/>
      <point x="188" y="-204"/>
      <point x="213" y="-208"/>
    </contour>
  </outline>
</glyph>
<glyph name="eng" format="2">
  <advance width="445"/>
  <unicode hex="014B"/>
  <anchor x="117" y="-240" name="bottom"/>
  <anchor x="285" y="555" name="top"/>
  <anchor x="483" y="545" name="topright"/>
  <outline>
    <contour>
      <point x="162" y="-240" type="curve" smooth="yes"/>
      <point x="255" y="-240"/>
      <point x="299" y="-193"/>
      <point x="330" y="-47" type="curve" smooth="yes"/>
      <point x="414" y="348" type="line" smooth="yes"/>
      <point x="422" y="383"/>
      <point x="426" y="416"/>
      <point x="426" y="440" type="curve" smooth="yes"/>
      <point x="426" y="525"/>
      <point x="375" y="555"/>
      <point x="319" y="555" type="curve" smooth="yes"/>
      <point x="273" y="555"/>
      <point x="233" y="526"/>
      <point x="203" y="477" type="curve"/>
      <point x="200" y="477" type="line"/>
      <point x="205" y="545" type="line"/>
      <point x="109" y="545" type="line"/>
      <point x="-7" y="0" type="line"/>
      <point x="114" y="0" type="line"/>
      <point x="178" y="301" type="line" smooth="yes"/>
      <point x="195" y="383"/>
      <point x="222" y="446"/>
      <point x="267" y="446" type="curve" smooth="yes"/>
      <point x="290" y="446"/>
      <point x="300" y="431"/>
      <point x="300" y="405" type="curve" smooth="yes"/>
      <point x="300" y="383"/>
      <point x="294" y="351"/>
      <point x="287" y="320" type="curve" smooth="yes"/>
      <point x="213" y="-38" type="line" smooth="yes"/>
      <point x="198" y="-111"/>
      <point x="186" y="-134"/>
      <point x="147" y="-134" type="curve" smooth="yes"/>
      <point x="134" y="-134"/>
      <point x="113" y="-131"/>
      <point x="101" y="-125" type="curve"/>
      <point x="101" y="-231" type="line"/>
      <point x="116" y="-237"/>
      <point x="136" y="-240"/>
    </contour>
  </outline>
</glyph>
<glyph name="OE" format="2">
  <advance width="632"/>
  <unicode hex="0152"/>
  <anchor x="261" y="0" name="bottom"/>
  <anchor x="412" y="714" name="top"/>
  <outline>
    <contour>
      <point x="201" y="-8" type="curve" smooth="yes"/>
      <point x="227" y="-8"/>
      <point x="251" y="0"/>
      <point x="265" y="0" type="curve" smooth="yes"/>
      <point x="532" y="0" type="line"/>
      <point x="555" y="110" type="line"/>
      <point x="391" y="110" type="line"/>
      <point x="434" y="316" type="line"/>
      <point x="587" y="316" type="line"/>
      <point x="610" y="425" type="line"/>
      <point x="458" y="425" type="line"/>
      <point x="496" y="605" type="line"/>
      <point x="659" y="605" type="line"/>
      <point x="683" y="714" type="line"/>
      <point x="416" y="714" type="line" smooth="yes"/>
      <point x="398" y="714"/>
      <point x="365" y="722"/>
      <point x="335" y="722" type="curve" smooth="yes"/>
      <point x="115" y="722"/>
      <point x="35" y="404"/>
      <point x="35" y="200" type="curve" smooth="yes"/>
      <point x="35" y="78"/>
      <point x="86" y="-8"/>
    </contour>
    <contour>
      <point x="227" y="105" type="curve" smooth="yes"/>
      <point x="184" y="105"/>
      <point x="166" y="138"/>
      <point x="166" y="216" type="curve" smooth="yes"/>
      <point x="166" y="354"/>
      <point x="225" y="612"/>
      <point x="336" y="612" type="curve" smooth="yes"/>
      <point x="350" y="612"/>
      <point x="362" y="607"/>
      <point x="372" y="602" type="curve"/>
      <point x="269" y="110" type="line"/>
      <point x="261" y="107"/>
      <point x="247" y="105"/>
    </contour>
  </outline>
</glyph>
<glyph name="oe" format="2">
  <advance width="664"/>
  <unicode hex="0153"/>
  <anchor x="277" y="0" name="bottom"/>
  <anchor x="395" y="555" name="top"/>
  <outline>
    <contour>
      <point x="160" y="-10" type="curve" smooth="yes"/>
      <point x="222" y="-10"/>
      <point x="269" y="23"/>
      <point x="304" y="75" type="curve"/>
      <point x="324" y="19"/>
      <point x="364" y="-10"/>
      <point x="427" y="-10" type="curve" smooth="yes"/>
      <point x="480" y="-10"/>
      <point x="528" y="4"/>
      <point x="575" y="32" type="curve"/>
      <point x="575" y="124" type="line"/>
      <point x="540" y="102"/>
      <point x="498" y="88"/>
      <point x="457" y="88" type="curve" smooth="yes"/>
      <point x="410" y="88"/>
      <point x="387" y="114"/>
      <point x="387" y="177" type="curve" smooth="yes"/>
      <point x="387" y="195"/>
      <point x="389" y="215"/>
      <point x="392" y="233" type="curve"/>
      <point x="401" y="233" type="line" smooth="yes"/>
      <point x="556" y="233"/>
      <point x="656" y="300"/>
      <point x="656" y="428" type="curve" smooth="yes"/>
      <point x="656" y="507"/>
      <point x="603" y="554"/>
      <point x="524" y="554" type="curve" smooth="yes"/>
      <point x="470" y="554"/>
      <point x="414" y="523"/>
      <point x="376" y="470" type="curve"/>
      <point x="358" y="525"/>
      <point x="328" y="555"/>
      <point x="264" y="555" type="curve" smooth="yes"/>
      <point x="79" y="555"/>
      <point x="21" y="292"/>
      <point x="21" y="167" type="curve" smooth="yes"/>
      <point x="21" y="55"/>
      <point x="76" y="-10"/>
    </contour>
    <contour>
      <point x="185" y="92" type="curve" smooth="yes"/>
      <point x="156" y="92"/>
      <point x="142" y="117"/>
      <point x="142" y="165" type="curve" smooth="yes"/>
      <point x="142" y="265"/>
      <point x="187" y="452"/>
      <point x="254" y="452" type="curve" smooth="yes"/>
      <point x="284" y="452"/>
      <point x="297" y="428"/>
      <point x="297" y="380" type="curve" smooth="yes"/>
      <point x="297" y="278"/>
      <point x="253" y="92"/>
    </contour>
    <contour>
      <point x="415" y="320" type="curve" smooth="yes"/>
      <point x="411" y="320" type="line"/>
      <point x="419" y="381"/>
      <point x="462" y="459"/>
      <point x="506" y="459" type="curve" smooth="yes"/>
      <point x="531" y="459"/>
      <point x="546" y="442"/>
      <point x="546" y="416" type="curve" smooth="yes"/>
      <point x="546" y="361"/>
      <point x="514" y="320"/>
    </contour>
  </outline>
</glyph>
<glyph name="Tbar" format="2">
  <advance width="383"/>
  <unicode hex="0166"/>
  <anchor x="137" y="0" name="bottom"/>
  <anchor x="288" y="714" name="top"/>
  <outline>
    <contour>
      <point x="69" y="0" type="line"/>
      <point x="194" y="0" type="line"/>
      <point x="259" y="308" type="line"/>
      <point x="340" y="308" type="line"/>
      <point x="359" y="403" type="line"/>
      <point x="279" y="403" type="line"/>
      <point x="321" y="603" type="line"/>
      <point x="438" y="603" type="line"/>
      <point x="462" y="714" type="line"/>
      <point x="104" y="714" type="line"/>
      <point x="80" y="603" type="line"/>
      <point x="196" y="603" type="line"/>
      <point x="154" y="403" type="line"/>
      <point x="76" y="403" type="line"/>
      <point x="56" y="308" type="line"/>
      <point x="134" y="308" type="line"/>
    </contour>
  </outline>
</glyph>
<glyph name="longs" format="2">
  <advance width="250"/>
  <unicode hex="017F"/>
  <anchor x="-71" y="-240" name="bottom"/>
  <anchor x="282" y="765" name="top"/>
  <outline>
    <contour>
      <point x="-54" y="-240" type="curve" smooth="yes"/>
      <point x="49" y="-240"/>
      <point x="86" y="-168"/>
      <point x="111" y="-54" type="curve"/>
      <point x="243" y="566" type="line"/>
      <point x="253" y="622"/>
      <point x="266" y="662"/>
      <point x="299" y="662" type="curve" smooth="yes"/>
      <point x="311" y="662"/>
      <point x="327" y="658"/>
      <point x="340" y="650" type="curve"/>
      <point x="382" y="743" type="line"/>
      <point x="350" y="759"/>
      <point x="317" y="765"/>
      <point x="285" y="765" type="curve" smooth="yes"/>
      <point x="185" y="765"/>
      <point x="147" y="686"/>
      <point x="128" y="589" type="curve"/>
      <point x="-7" y="-44" type="line"/>
      <point x="-19" y="-102"/>
      <point x="-28" y="-134"/>
      <point x="-70" y="-134" type="curve" smooth="yes"/>
      <point x="-83" y="-134"/>
      <point x="-105" y="-131"/>
      <point x="-116" y="-125" type="curve"/>
      <point x="-116" y="-231" type="line"/>
      <point x="-95" y="-239"/>
      <point x="-75" y="-240"/>
    </contour>
  </outline>
</glyph>
<glyph name="Ohorn" format="2">
  <advance width="543"/>
  <unicode hex="01A0"/>
  <anchor x="216" y="0" name="bottom"/>
  <anchor x="341" y="714" name="top"/>
  <outline>
    <contour>
      <point x="215" y="-10" type="curve" smooth="yes"/>
      <point x="413" y="-10"/>
      <point x="523" y="271"/>
      <point x="523" y="510" type="curve" smooth="yes"/>
      <point x="523" y="521"/>
      <point x="523" y="533"/>
      <point x="522" y="542" type="curve"/>
      <point x="609" y="580"/>
      <point x="653" y="653"/>
      <point x="671" y="750" type="curve"/>
      <point x="667" y="760" type="line"/>
      <point x="557" y="760" type="line"/>
      <point x="549" y="707"/>
      <point x="530" y="661"/>
      <point x="498" y="635" type="curve"/>
      <point x="471" y="695"/>
      <point x="421" y="725"/>
      <point x="346" y="725" type="curve" smooth="yes"/>
      <point x="147" y="725"/>
      <point x="35" y="443"/>
      <point x="35" y="215" type="curve" smooth="yes"/>
      <point x="35" y="60"/>
      <point x="93" y="-10"/>
    </contour>
    <contour>
      <point x="225" y="102" type="curve" smooth="yes"/>
      <point x="186" y="102"/>
      <point x="166" y="130"/>
      <point x="166" y="214" type="curve" smooth="yes"/>
      <point x="166" y="357"/>
      <point x="230" y="614"/>
      <point x="336" y="614" type="curve" smooth="yes"/>
      <point x="374" y="614"/>
      <point x="394" y="579"/>
      <point x="394" y="506" type="curve" smooth="yes"/>
      <point x="394" y="376"/>
      <point x="334" y="102"/>
    </contour>
  </outline>
</glyph>
<glyph name="ohorn" format="2">
  <advance width="480"/>
  <unicode hex="01A1"/>
  <anchor x="185" y="0" name="bottom"/>
  <anchor x="297" y="530" name="top"/>
  <outline>
    <contour>
      <point x="169" y="-10" type="curve" smooth="yes"/>
      <point x="327" y="-10"/>
      <point x="416" y="197"/>
      <point x="416" y="381" type="curve" smooth="yes"/>
      <point x="416" y="388"/>
      <point x="416" y="396"/>
      <point x="416" y="404" type="curve"/>
      <point x="508" y="429"/>
      <point x="556" y="503"/>
      <point x="578" y="615" type="curve"/>
      <point x="575" y="625" type="line"/>
      <point x="465" y="625" type="line"/>
      <point x="457" y="560"/>
      <point x="435" y="508"/>
      <point x="393" y="481" type="curve"/>
      <point x="368" y="529"/>
      <point x="326" y="555"/>
      <point x="269" y="555" type="curve" smooth="yes"/>
      <point x="107" y="555"/>
      <point x="19" y="344"/>
      <point x="19" y="166" type="curve" smooth="yes"/>
      <point x="19" y="55"/>
      <point x="75" y="-10"/>
    </contour>
    <contour>
      <point x="183" y="92" type="curve" smooth="yes"/>
      <point x="154" y="92"/>
      <point x="140" y="117"/>
      <point x="140" y="164" type="curve" smooth="yes"/>
      <point x="140" y="254"/>
      <point x="184" y="452"/>
      <point x="253" y="452" type="curve" smooth="yes"/>
      <point x="282" y="452"/>
      <point x="295" y="428"/>
      <point x="295" y="380" type="curve" smooth="yes"/>
      <point x="295" y="279"/>
      <point x="251" y="92"/>
    </contour>
  </outline>
</glyph>
<glyph name="Uhorn" format="2">
  <advance width="579"/>
  <unicode hex="01AF"/>
  <anchor x="195" y="0" name="bottom"/>
  <anchor x="335" y="714" name="top"/>
  <outline>
    <contour>
      <point x="196" y="-10" type="curve" smooth="yes"/>
      <point x="333" y="-10"/>
      <point x="403" y="74"/>
      <point x="434" y="222" type="curve" smooth="yes"/>
      <point x="499" y="529" type="line"/>
      <point x="618" y="536"/>
      <point x="686" y="620"/>
      <point x="711" y="750" type="curve"/>
      <point x="708" y="760" type="line"/>
      <point x="597" y="760" type="line"/>
      <point x="586" y="684"/>
      <point x="561" y="621"/>
      <point x="517" y="612" type="curve"/>
      <point x="539" y="714" type="line"/>
      <point x="413" y="714" type="line"/>
      <point x="312" y="239" type="line" smooth="yes"/>
      <point x="291" y="142"/>
      <point x="265" y="102"/>
      <point x="214" y="102" type="curve" smooth="yes"/>
      <point x="179" y="102"/>
      <point x="161" y="124"/>
      <point x="161" y="171" type="curve" smooth="yes"/>
      <point x="161" y="188"/>
      <point x="164" y="210"/>
      <point x="169" y="234" type="curve" smooth="yes"/>
      <point x="271" y="714" type="line"/>
      <point x="146" y="714" type="line"/>
      <point x="44" y="237" type="line" smooth="yes"/>
      <point x="38" y="207"/>
      <point x="34" y="175"/>
      <point x="34" y="151" type="curve" smooth="yes"/>
      <point x="34" y="50"/>
      <point x="95" y="-10"/>
    </contour>
  </outline>
</glyph>
<glyph name="uhorn" format="2">
  <advance width="527"/>
  <unicode hex="01B0"/>
  <anchor x="193" y="0" name="bottom"/>
  <anchor x="273" y="545" name="top"/>
  <outline>
    <contour>
      <point x="126" y="-10" type="curve" smooth="yes"/>
      <point x="173" y="-10"/>
      <point x="213" y="19"/>
      <point x="243" y="66" type="curve"/>
      <point x="246" y="66" type="line"/>
      <point x="242" y="0" type="line"/>
      <point x="338" y="0" type="line"/>
      <point x="421" y="394" type="line"/>
      <point x="550" y="403"/>
      <point x="608" y="497"/>
      <point x="632" y="615" type="curve"/>
      <point x="629" y="625" type="line"/>
      <point x="519" y="625" type="line"/>
      <point x="508" y="553"/>
      <point x="487" y="491"/>
      <point x="439" y="478" type="curve"/>
      <point x="453" y="545" type="line"/>
      <point x="333" y="545" type="line"/>
      <point x="272" y="259" type="line" smooth="yes"/>
      <point x="251" y="161"/>
      <point x="223" y="99"/>
      <point x="179" y="99" type="curve" smooth="yes"/>
      <point x="157" y="99"/>
      <point x="147" y="114"/>
      <point x="147" y="142" type="curve" smooth="yes"/>
      <point x="147" y="162"/>
      <point x="151" y="191"/>
      <point x="157" y="221" type="curve" smooth="yes"/>
      <point x="226" y="545" type="line"/>
      <point x="106" y="545" type="line"/>
      <point x="32" y="194" type="line" smooth="yes"/>
      <point x="25" y="163"/>
      <point x="21" y="131"/>
      <point x="21" y="106" type="curve" smooth="yes"/>
      <point x="21" y="33"/>
      <point x="58" y="-10"/>
    </contour>
  </outline>
</glyph>
<glyph name="Aringacute" format="2">
  <advance width="464"/>
  <unicode hex="01FA"/>
  <anchor x="177" y="0" name="bottom"/>
  <anchor x="380" y="958" name="top"/>
  <outline>
    <contour>
      <point x="220" y="656" type="curve"/>
      <point x="-60" y="0" type="line"/>
      <point x="77" y="0" type="line"/>
      <point x="147" y="177" type="line"/>
      <point x="273" y="177" type="line"/>
      <point x="273" y="0" type="line"/>
      <point x="405" y="0" type="line"/>
      <point x="394" y="639" type="line"/>
      <point x="415" y="654"/>
      <point x="426" y="680"/>
      <point x="426" y="713" type="curve" smooth="yes"/>
      <point x="426" y="774"/>
      <point x="381" y="821"/>
      <point x="315" y="821" type="curve" smooth="yes"/>
      <point x="246" y="821"/>
      <point x="202" y="777"/>
      <point x="202" y="711" type="curve" smooth="yes"/>
      <point x="202" y="688"/>
      <point x="209" y="669"/>
    </contour>
    <contour>
      <point x="190" y="288" type="line"/>
      <point x="263" y="490" type="line" smooth="yes"/>
      <point x="273" y="519"/>
      <point x="281" y="546"/>
      <point x="287" y="575" type="curve"/>
      <point x="289" y="575" type="line"/>
      <point x="286" y="544"/>
      <point x="286" y="516"/>
      <point x="286" y="488" type="curve" smooth="yes"/>
      <point x="281" y="288" type="line"/>
    </contour>
    <contour>
      <point x="314" y="661" type="curve" smooth="yes"/>
      <point x="281" y="661"/>
      <point x="267" y="680"/>
      <point x="267" y="710" type="curve" smooth="yes"/>
      <point x="267" y="739"/>
      <point x="285" y="759"/>
      <point x="315" y="759" type="curve" smooth="yes"/>
      <point x="344" y="759"/>
      <point x="362" y="739"/>
      <point x="362" y="710" type="curve" smooth="yes"/>
      <point x="362" y="680"/>
      <point x="343" y="661"/>
    </contour>
    <contour>
      <point x="282" y="854" type="curve"/>
      <point x="281" y="848" type="line"/>
      <point x="378" y="848" type="line"/>
      <point x="413" y="871"/>
      <point x="480" y="924"/>
      <point x="510" y="953" type="curve"/>
      <point x="511" y="958" type="line"/>
      <point x="369" y="958" type="line"/>
      <point x="344" y="921"/>
      <point x="312" y="886"/>
    </contour>
  </outline>
</glyph>
<glyph name="aringacute" format="2">
  <advance width="448"/>
  <unicode hex="01FB"/>
  <anchor x="170" y="0" name="bottom"/>
  <anchor x="373" y="958" name="top"/>
  <outline>
    <contour>
      <point x="127" y="-10" type="curve" smooth="yes"/>
      <point x="174" y="-10"/>
      <point x="207" y="22"/>
      <point x="241" y="70" type="curve"/>
      <point x="244" y="70" type="line"/>
      <point x="244" y="0" type="line"/>
      <point x="341" y="0" type="line"/>
      <point x="457" y="545" type="line"/>
      <point x="353" y="545" type="line"/>
      <point x="329" y="480" type="line"/>
      <point x="327" y="480" type="line"/>
      <point x="309" y="533"/>
      <point x="276" y="555"/>
      <point x="234" y="555" type="curve" smooth="yes"/>
      <point x="86" y="555"/>
      <point x="19" y="289"/>
      <point x="19" y="145" type="curve" smooth="yes"/>
      <point x="19" y="48"/>
      <point x="58" y="-10"/>
    </contour>
    <contour>
      <point x="176" y="93" type="curve" smooth="yes"/>
      <point x="153" y="93"/>
      <point x="143" y="116"/>
      <point x="143" y="160" type="curve" smooth="yes"/>
      <point x="143" y="257"/>
      <point x="188" y="450"/>
      <point x="255" y="450" type="curve" smooth="yes"/>
      <point x="281" y="450"/>
      <point x="296" y="427"/>
      <point x="296" y="385" type="curve" smooth="yes"/>
      <point x="296" y="352"/>
      <point x="292" y="317"/>
      <point x="276" y="253" type="curve" smooth="yes"/>
      <point x="258" y="181"/>
      <point x="229" y="93"/>
    </contour>
    <contour>
      <point x="304" y="586" type="curve" smooth="yes"/>
      <point x="373" y="586"/>
      <point x="416" y="632"/>
      <point x="415" y="699" type="curve" smooth="yes"/>
      <point x="414" y="765"/>
      <point x="369" y="808"/>
      <point x="305" y="808" type="curve" smooth="yes"/>
      <point x="236" y="808"/>
      <point x="193" y="764"/>
      <point x="193" y="696" type="curve" smooth="yes"/>
      <point x="193" y="629"/>
      <point x="235" y="586"/>
    </contour>
    <contour>
      <point x="305" y="648" type="curve" smooth="yes"/>
      <point x="272" y="648"/>
      <point x="257" y="665"/>
      <point x="257" y="697" type="curve" smooth="yes"/>
      <point x="257" y="726"/>
      <point x="275" y="747"/>
      <point x="305" y="747" type="curve" smooth="yes"/>
      <point x="335" y="747"/>
      <point x="354" y="726"/>
      <point x="354" y="697" type="curve" smooth="yes"/>
      <point x="354" y="667"/>
      <point x="333" y="648"/>
    </contour>
    <contour>
      <point x="280" y="847" type="curve"/>
      <point x="279" y="840" type="line"/>
      <point x="375" y="840" type="line"/>
      <point x="411" y="865"/>
      <point x="481" y="922"/>
      <point x="510" y="952" type="curve"/>
      <point x="511" y="958" type="line"/>
      <point x="367" y="958" type="line"/>
      <point x="340" y="916"/>
      <point x="309" y="880"/>
    </contour>
  </outline>
</glyph>
<glyph name="jdotless" format="2">
  <advance width="220"/>
  <unicode hex="0237"/>
  <anchor x="5" y="-240" name="bottom"/>
  <anchor x="171" y="545" name="top"/>
  <outline>
    <contour>
      <point x="-63" y="-240" type="curve" smooth="yes"/>
      <point x="43" y="-240"/>
      <point x="79" y="-167"/>
      <point x="104" y="-47" type="curve" smooth="yes"/>
      <point x="229" y="545" type="line"/>
      <point x="110" y="545" type="line"/>
      <point x="-13" y="-38" type="line" smooth="yes"/>
      <point x="-28" y="-109"/>
      <point x="-40" y="-134"/>
      <point x="-79" y="-134" type="curve" smooth="yes"/>
      <point x="-92" y="-134"/>
      <point x="-113" y="-131"/>
      <point x="-125" y="-125" type="curve"/>
      <point x="-125" y="-231" type="line"/>
      <point x="-104" y="-239"/>
      <point x="-84" y="-240"/>
    </contour>
  </outline>
</glyph>
<glyph name="Astroke" format="2">
  <advance width="464"/>
  <unicode hex="023A"/>
  <anchor x="161" y="-75" name="bottom"/>
  <anchor x="333" y="760" name="top"/>
  <outline>
    <contour>
      <point x="81" y="-75" type="line"/>
      <point x="150" y="-75" type="line"/>
      <point x="467" y="760" type="line"/>
      <point x="399" y="760" type="line"/>
    </contour>
    <component base="A"/>
  </outline>
</glyph>
<glyph name="Cstroke" format="2">
  <advance width="424"/>
  <unicode hex="023B"/>
  <anchor x="174" y="-75" name="bottom"/>
  <anchor x="352" y="760" name="top"/>
  <outline>
    <contour>
      <point x="105" y="-75" type="line"/>
      <point x="167" y="-75" type="line"/>
      <point x="444" y="760" type="line"/>
      <point x="383" y="760" type="line"/>
    </contour>
    <component base="C"/>
  </outline>
</glyph>
<glyph name="Estroke" format="2">
  <advance width="388"/>
  <unicode hex="0246"/>
  <anchor x="123" y="-75" name="bottom"/>
  <anchor x="304" y="760" name="top"/>
  <outline>
    <contour>
      <point x="108" y="-75" type="line"/>
      <point x="177" y="-75" type="line"/>
      <point x="425" y="760" type="line"/>
      <point x="357" y="760" type="line"/>
    </contour>
    <component base="E"/>
  </outline>
</glyph>
<glyph name="ystroke" format="2">
  <advance width="397"/>
  <unicode hex="024F"/>
  <anchor x="-11" y="-240" name="bottom"/>
  <anchor x="257" y="545" name="top"/>
  <outline>
    <contour>
      <point x="-4" y="232" type="line"/>
      <point x="392" y="232" type="line"/>
      <point x="413" y="327" type="line"/>
      <point x="17" y="327" type="line"/>
    </contour>
    <component base="y"/>
  </outline>
</glyph>
<glyph name="schwahook" format="2">
  <advance width="605"/>
  <unicode hex="025A"/>
  <anchor x="143" y="-10" name="bottom"/>
  <anchor x="239" y="554" name="top"/>
  <outline>
    <contour>
      <point x="143" y="-10" type="curve" smooth="yes"/>
      <point x="284" y="-10"/>
      <point x="371" y="135"/>
      <point x="393" y="294" type="curve"/>
      <point x="430" y="306" type="line"/>
      <point x="441" y="226"/>
      <point x="468" y="188"/>
      <point x="523" y="188" type="curve" smooth="yes"/>
      <point x="557" y="188"/>
      <point x="588" y="203"/>
      <point x="612" y="224" type="curve"/>
      <point x="587" y="291" type="line"/>
      <point x="572" y="280"/>
      <point x="561" y="274"/>
      <point x="540" y="274" type="curve" smooth="yes"/>
      <point x="517" y="274"/>
      <point x="508" y="294"/>
      <point x="502" y="365" type="curve" smooth="yes"/>
      <point x="498" y="411" type="line"/>
      <point x="397" y="380" type="line"/>
      <point x="394" y="495"/>
      <point x="336" y="554"/>
      <point x="239" y="554" type="curve" smooth="yes"/>
      <point x="188" y="554"/>
      <point x="140" y="544"/>
      <point x="93" y="513" type="curve"/>
      <point x="93" y="420" type="line"/>
      <point x="139" y="447"/>
      <point x="169" y="456"/>
      <point x="210" y="456" type="curve" smooth="yes"/>
      <point x="260" y="456"/>
      <point x="280" y="426"/>
      <point x="280" y="349" type="curve"/>
      <point x="263" y="343" type="line" smooth="yes"/>
      <point x="80" y="281"/>
      <point x="11" y="222"/>
      <point x="11" y="116" type="curve" smooth="yes"/>
      <point x="11" y="37"/>
      <point x="64" y="-10"/>
    </contour>
    <contour>
      <point x="162" y="86" type="curve" smooth="yes"/>
      <point x="137" y="86"/>
      <point x="122" y="102"/>
      <point x="122" y="128" type="curve" smooth="yes"/>
      <point x="122" y="175"/>
      <point x="150" y="221"/>
      <point x="257" y="258" type="curve" smooth="yes"/>
      <point x="278" y="265" type="line"/>
      <point x="258" y="160"/>
      <point x="205" y="86"/>
    </contour>
  </outline>
</glyph>
<glyph name="rfishhookreversed" format="2">
  <advance width="270"/>
  <unicode hex="027F"/>
  <anchor x="29" y="-240" name="bottom"/>
  <anchor x="197" y="555" name="top"/>
  <outline>
    <contour>
      <point x="126" y="392" type="curve" smooth="yes"/>
      <point x="-8" y="-240" type="line"/>
      <point x="111" y="-240" type="line"/>
      <point x="243" y="379" type="line" smooth="yes"/>
      <point x="249" y="404"/>
      <point x="253" y="435"/>
      <point x="253" y="456" type="curve" smooth="yes"/>
      <point x="253" y="518"/>
      <point x="219" y="555"/>
      <point x="156" y="555" type="curve" smooth="yes"/>
      <point x="127" y="555"/>
      <point x="91" y="546"/>
      <point x="63" y="530" type="curve"/>
      <point x="63" y="435" type="line"/>
      <point x="77" y="443"/>
      <point x="96" y="449"/>
      <point x="109" y="449" type="curve" smooth="yes"/>
      <point x="123" y="449"/>
      <point x="130" y="439"/>
      <point x="130" y="424" type="curve" smooth="yes"/>
      <point x="130" y="412"/>
      <point x="129" y="403"/>
    </contour>
  </outline>
</glyph>
<glyph name="eshcurl" format="2">
  <advance width="263"/>
  <unicode hex="0286"/>
  <anchor x="25" y="-240" name="bottom"/>
  <anchor x="238" y="765" name="top"/>
  <outline>
    <contour>
      <point x="-55" y="-240" type="curve" smooth="yes"/>
      <point x="47" y="-240"/>
      <point x="96" y="-174"/>
      <point x="118" y="-89" type="curve"/>
      <point x="186" y="-89" type="line"/>
      <point x="200" y="-18" type="line"/>
      <point x="134" y="-17" type="line"/>
      <point x="262" y="586" type="line" smooth="yes"/>
      <point x="274" y="641"/>
      <point x="286" y="662"/>
      <point x="323" y="662" type="curve" smooth="yes"/>
      <point x="334" y="662"/>
      <point x="355" y="658"/>
      <point x="368" y="651" type="curve"/>
      <point x="369" y="750" type="line"/>
      <point x="350" y="759"/>
      <point x="329" y="765"/>
      <point x="298" y="765" type="curve" smooth="yes"/>
      <point x="208" y="765"/>
      <point x="168" y="709"/>
      <point x="143" y="591" type="curve" smooth="yes"/>
      <point x="15" y="-17" type="line"/>
      <point x="-4" y="-17" type="line" smooth="yes"/>
      <point x="-104" y="-17"/>
      <point x="-164" y="-56"/>
      <point x="-164" y="-145" type="curve" smooth="yes"/>
      <point x="-164" y="-203"/>
      <point x="-123" y="-240"/>
    </contour>
    <contour>
      <point x="-57" y="-169" type="curve" smooth="yes"/>
      <point x="-74" y="-169"/>
      <point x="-83" y="-159"/>
      <point x="-83" y="-139" type="curve" smooth="yes"/>
      <point x="-83" y="-108"/>
      <point x="-65" y="-89"/>
      <point x="-22" y="-89" type="curve" smooth="yes"/>
      <point x="0" y="-89" type="line"/>
      <point x="-13" y="-149"/>
      <point x="-29" y="-169"/>
    </contour>
  </outline>
</glyph>
<glyph name="ubar" format="2">
  <advance width="445"/>
  <unicode hex="0289"/>
  <anchor x="134" y="0" name="bottom"/>
  <anchor x="281" y="545" name="top"/>
  <outline>
    <contour>
      <point x="-9" y="231" type="line"/>
      <point x="442" y="231" type="line"/>
      <point x="463" y="327" type="line"/>
      <point x="12" y="327" type="line"/>
    </contour>
    <component base="u"/>
  </outline>
</glyph>
<glyph name="ezhcurl" format="2">
  <advance width="399"/>
  <unicode hex="0293"/>
  <anchor x="94" y="-240" name="bottom"/>
  <anchor x="260" y="545" name="top"/>
  <outline>
    <contour>
      <point x="77" y="-240" type="curve" smooth="yes"/>
      <point x="150" y="-240"/>
      <point x="212" y="-205"/>
      <point x="254" y="-149" type="curve"/>
      <point x="269" y="-170"/>
      <point x="285" y="-195"/>
      <point x="299" y="-225" type="curve"/>
      <point x="362" y="-188" type="line"/>
      <point x="340" y="-146"/>
      <point x="318" y="-110"/>
      <point x="293" y="-81" type="curve"/>
      <point x="308" y="-38"/>
      <point x="316" y="9"/>
      <point x="316" y="57" type="curve" smooth="yes"/>
      <point x="316" y="150"/>
      <point x="281" y="218"/>
      <point x="196" y="237" type="curve"/>
      <point x="385" y="464" type="line"/>
      <point x="402" y="545" type="line"/>
      <point x="90" y="545" type="line"/>
      <point x="67" y="443" type="line"/>
      <point x="230" y="443" type="line"/>
      <point x="68" y="240" type="line"/>
      <point x="49" y="152" type="line"/>
      <point x="104" y="152" type="line" smooth="yes"/>
      <point x="166" y="152"/>
      <point x="196" y="122"/>
      <point x="196" y="47" type="curve" smooth="yes"/>
      <point x="196" y="30"/>
      <point x="194" y="9"/>
      <point x="190" y="-3" type="curve"/>
      <point x="159" y="13"/>
      <point x="126" y="22"/>
      <point x="92" y="22" type="curve" smooth="yes"/>
      <point x="-13" y="22"/>
      <point x="-69" y="-30"/>
      <point x="-69" y="-117" type="curve" smooth="yes"/>
      <point x="-69" y="-190"/>
      <point x="-22" y="-240"/>
    </contour>
    <contour>
      <point x="76" y="-151" type="curve" smooth="yes"/>
      <point x="32" y="-151"/>
      <point x="12" y="-132"/>
      <point x="12" y="-103" type="curve" smooth="yes"/>
      <point x="12" y="-73"/>
      <point x="33" y="-50"/>
      <point x="84" y="-50" type="curve" smooth="yes"/>
      <point x="113" y="-50"/>
      <point x="142" y="-57"/>
      <point x="174" y="-77" type="curve"/>
      <point x="152" y="-125"/>
      <point x="119" y="-151"/>
    </contour>
  </outline>
</glyph>
<glyph name="cstretched" format="2">
  <advance width="383"/>
  <unicode hex="0297"/>
  <anchor x="147" y="-240" name="bottom"/>
  <anchor x="296" y="545" name="top"/>
  <outline>
    <contour>
      <point x="157" y="-240" type="curve" smooth="yes"/>
      <point x="204" y="-240"/>
      <point x="251" y="-222"/>
      <point x="283" y="-201" type="curve"/>
      <point x="283" y="-97" type="line"/>
      <point x="247" y="-123"/>
      <point x="215" y="-136"/>
      <point x="188" y="-136" type="curve" smooth="yes"/>
      <point x="157" y="-136"/>
      <point x="127" y="-110"/>
      <point x="127" y="-8" type="curve" smooth="yes"/>
      <point x="127" y="197"/>
      <point x="208" y="450"/>
      <point x="305" y="450" type="curve" smooth="yes"/>
      <point x="327" y="450"/>
      <point x="352" y="440"/>
      <point x="371" y="425" type="curve"/>
      <point x="420" y="521" type="line"/>
      <point x="387" y="544"/>
      <point x="350" y="555"/>
      <point x="305" y="555" type="curve" smooth="yes"/>
      <point x="105" y="555"/>
      <point x="3" y="237"/>
      <point x="3" y="-5" type="curve" smooth="yes"/>
      <point x="3" y="-179"/>
      <point x="68" y="-240"/>
    </contour>
  </outline>
</glyph>
<glyph name="eopenclosed" format="2">
  <advance width="454"/>
  <unicode hex="029A"/>
  <anchor x="170" y="0" name="bottom"/>
  <anchor x="275" y="545" name="top"/>
  <outline>
    <contour>
      <point x="173" y="-10" type="curve" smooth="yes"/>
      <point x="351" y="-10"/>
      <point x="433" y="184"/>
      <point x="433" y="361" type="curve" smooth="yes"/>
      <point x="433" y="490"/>
      <point x="379" y="556"/>
      <point x="257" y="556" type="curve" smooth="yes"/>
      <point x="127" y="556"/>
      <point x="59" y="478"/>
      <point x="59" y="388" type="curve" smooth="yes"/>
      <point x="59" y="327"/>
      <point x="90" y="287"/>
      <point x="142" y="271" type="curve"/>
      <point x="142" y="269" type="line"/>
      <point x="72" y="257"/>
      <point x="12" y="204"/>
      <point x="12" y="122" type="curve" smooth="yes"/>
      <point x="12" y="32"/>
      <point x="82" y="-10"/>
    </contour>
    <contour>
      <point x="189" y="82" type="curve" smooth="yes"/>
      <point x="155" y="82"/>
      <point x="138" y="100"/>
      <point x="138" y="136" type="curve" smooth="yes"/>
      <point x="138" y="191"/>
      <point x="172" y="224"/>
      <point x="228" y="224" type="curve" smooth="yes"/>
      <point x="252" y="224" type="line"/>
      <point x="268" y="317" type="line"/>
      <point x="244" y="317" type="line" smooth="yes"/>
      <point x="201" y="317"/>
      <point x="179" y="341"/>
      <point x="179" y="380" type="curve" smooth="yes"/>
      <point x="179" y="427"/>
      <point x="207" y="463"/>
      <point x="254" y="463" type="curve" smooth="yes"/>
      <point x="292" y="463"/>
      <point x="313" y="440"/>
      <point x="313" y="371" type="curve" smooth="yes"/>
      <point x="313" y="249"/>
      <point x="273" y="82"/>
    </contour>
  </outline>
</glyph>
<glyph name="kturned" format="2">
  <advance width="419"/>
  <unicode hex="029E"/>
  <anchor x="106" y="-215" name="bottom"/>
  <anchor x="267.922" y="545" name="top"/>
  <anchor x="430" y="545" name="topright"/>
  <outline>
    <contour>
      <point x="218" y="114" type="curve" smooth="yes"/>
      <point x="148" y="-215" type="line"/>
      <point x="268" y="-215" type="line"/>
      <point x="430" y="545" type="line"/>
      <point x="309" y="545" type="line"/>
      <point x="276" y="376" type="line"/>
      <point x="228" y="326" type="line"/>
      <point x="186" y="545" type="line"/>
      <point x="56" y="545" type="line"/>
      <point x="123" y="229" type="line"/>
      <point x="-49" y="0" type="line"/>
      <point x="81" y="0" type="line"/>
      <point x="245" y="224" type="line"/>
      <point x="246" y="224" type="line"/>
      <point x="235" y="183"/>
      <point x="225" y="147"/>
    </contour>
  </outline>
</glyph>
<glyph name="qhook" format="2">
  <advance width="448"/>
  <unicode hex="02A0"/>
  <anchor x="119" y="-240" name="bottom"/>
  <anchor x="333" y="769" name="top"/>
  <outline>
    <contour>
      <point x="219" y="-9" type="curve" smooth="yes"/>
      <point x="171" y="-240" type="line"/>
      <point x="291" y="-240" type="line"/>
      <point x="472" y="617" type="line" smooth="yes"/>
      <point x="480" y="652"/>
      <point x="493" y="665"/>
      <point x="515" y="665" type="curve" smooth="yes"/>
      <point x="527" y="665"/>
      <point x="538" y="660"/>
      <point x="546" y="656" type="curve"/>
      <point x="546" y="759" type="line"/>
      <point x="532" y="764"/>
      <point x="507" y="769"/>
      <point x="481" y="769" type="curve" smooth="yes"/>
      <point x="411" y="769"/>
      <point x="376" y="733"/>
      <point x="360" y="654" type="curve" smooth="yes"/>
      <point x="343" y="570" type="line" smooth="yes"/>
      <point x="337" y="539"/>
      <point x="332" y="510"/>
      <point x="330" y="484" type="curve"/>
      <point x="327" y="484" type="line"/>
      <point x="313" y="532"/>
      <point x="287" y="555"/>
      <point x="238" y="555" type="curve"/>
      <point x="89" y="555"/>
      <point x="18" y="288"/>
      <point x="18" y="142" type="curve" smooth="yes"/>
      <point x="18" y="45"/>
      <point x="58" y="-10"/>
      <point x="123" y="-10" type="curve" smooth="yes"/>
      <point x="167" y="-10"/>
      <point x="201" y="9"/>
      <point x="235" y="58" type="curve"/>
      <point x="238" y="58" type="line"/>
      <point x="230" y="32"/>
      <point x="223" y="8"/>
    </contour>
    <contour>
      <point x="178" y="95" type="curve" smooth="yes"/>
      <point x="154" y="95"/>
      <point x="143" y="118"/>
      <point x="143" y="164" type="curve" smooth="yes"/>
      <point x="143" y="243"/>
      <point x="182" y="450"/>
      <point x="254" y="450" type="curve" smooth="yes"/>
      <point x="281" y="450"/>
      <point x="295" y="428"/>
      <point x="295" y="392" type="curve" smooth="yes"/>
      <point x="295" y="307"/>
      <point x="254" y="95"/>
    </contour>
  </outline>
</glyph>
<glyph name="circumflex" format="2">
  <advance width="359"/>
  <unicode hex="02C6"/>
  <outline>
    <contour>
      <point x="113" y="617" type="curve"/>
      <point x="111" y="606" type="line"/>
      <point x="186" y="606" type="line"/>
      <point x="209" y="625"/>
      <point x="237" y="652"/>
      <point x="267" y="686" type="curve"/>
      <point x="285" y="654"/>
      <point x="301" y="627"/>
      <point x="316" y="606" type="curve"/>
      <point x="389" y="606" type="line"/>
      <point x="392" y="618" type="line"/>
      <point x="373" y="657"/>
      <point x="347" y="728"/>
      <point x="338" y="766" type="curve"/>
      <point x="230" y="766" type="line"/>
      <point x="197" y="715"/>
      <point x="156" y="663"/>
    </contour>
  </outline>
</glyph>
<glyph name="caron" format="2">
  <advance width="358"/>
  <unicode hex="02C7"/>
  <outline>
    <contour>
      <point x="195" y="606" type="curve"/>
      <point x="303" y="606" type="line"/>
      <point x="326" y="644"/>
      <point x="389" y="722"/>
      <point x="421" y="755" type="curve"/>
      <point x="423" y="766" type="line"/>
      <point x="346" y="766" type="line"/>
      <point x="324" y="748"/>
      <point x="297" y="720"/>
      <point x="266" y="686" type="curve"/>
      <point x="248" y="721"/>
      <point x="231" y="748"/>
      <point x="217" y="766" type="curve"/>
      <point x="145" y="766" type="line"/>
      <point x="142" y="754" type="line"/>
      <point x="161" y="714"/>
      <point x="186" y="645"/>
    </contour>
  </outline>
</glyph>
<glyph name="breve" format="2">
  <advance width="342"/>
  <unicode hex="02D8"/>
  <outline>
    <contour>
      <point x="254" y="606" type="curve" smooth="yes"/>
      <point x="333" y="606"/>
      <point x="388" y="662"/>
      <point x="406" y="764" type="curve"/>
      <point x="330" y="764" type="line"/>
      <point x="317" y="712"/>
      <point x="296" y="693"/>
      <point x="261" y="693" type="curve" smooth="yes"/>
      <point x="227" y="693"/>
      <point x="218" y="719"/>
      <point x="218" y="764" type="curve"/>
      <point x="144" y="764" type="line"/>
      <point x="141" y="747"/>
      <point x="139" y="730"/>
      <point x="139" y="714" type="curve" smooth="yes"/>
      <point x="139" y="651"/>
      <point x="171" y="606"/>
    </contour>
  </outline>
</glyph>
<glyph name="ring" format="2">
  <advance width="309"/>
  <unicode hex="02DA"/>
  <outline>
    <contour>
      <point x="250" y="607" type="curve" smooth="yes"/>
      <point x="318" y="607"/>
      <point x="361" y="654"/>
      <point x="361" y="721" type="curve" smooth="yes"/>
      <point x="361" y="785"/>
      <point x="315" y="829"/>
      <point x="251" y="829" type="curve" smooth="yes"/>
      <point x="182" y="829"/>
      <point x="138" y="785"/>
      <point x="138" y="718" type="curve" smooth="yes"/>
      <point x="138" y="651"/>
      <point x="179" y="607"/>
    </contour>
    <contour>
      <point x="250" y="669" type="curve" smooth="yes"/>
      <point x="217" y="669"/>
      <point x="202" y="688"/>
      <point x="202" y="718" type="curve" smooth="yes"/>
      <point x="202" y="747"/>
      <point x="219" y="768"/>
      <point x="251" y="768" type="curve" smooth="yes"/>
      <point x="280" y="768"/>
      <point x="298" y="747"/>
      <point x="298" y="718" type="curve" smooth="yes"/>
      <point x="298" y="688"/>
      <point x="278" y="669"/>
    </contour>
  </outline>
</glyph>
<glyph name="ogonek" format="2">
  <advance width="245"/>
  <unicode hex="02DB"/>
  <outline>
    <contour>
      <point x="36" y="-232" type="curve" smooth="yes"/>
      <point x="57" y="-232"/>
      <point x="79" y="-231"/>
      <point x="100" y="-222" type="curve"/>
      <point x="117" y="-141" type="line"/>
      <point x="102" y="-145"/>
      <point x="88" y="-148"/>
      <point x="77" y="-148" type="curve" smooth="yes"/>
      <point x="64" y="-148"/>
      <point x="53" y="-139"/>
      <point x="53" y="-122" type="curve" smooth="yes"/>
      <point x="53" y="-89"/>
      <point x="71" y="-54"/>
      <point x="126" y="0" type="curve"/>
      <point x="52" y="0" type="line"/>
      <point x="-8" y="-46"/>
      <point x="-48" y="-94"/>
      <point x="-48" y="-154" type="curve" smooth="yes"/>
      <point x="-48" y="-200"/>
      <point x="-21" y="-232"/>
    </contour>
  </outline>
</glyph>
<glyph name="hungarumlaut" format="2">
  <advance width="424"/>
  <unicode hex="02DD"/>
  <outline>
    <contour>
      <point x="275" y="617" type="curve"/>
      <point x="273" y="606" type="line"/>
      <point x="338" y="606" type="line"/>
      <point x="386" y="645"/>
      <point x="461" y="719"/>
      <point x="487" y="758" type="curve"/>
      <point x="488" y="766" type="line"/>
      <point x="374" y="766" type="line"/>
      <point x="357" y="735"/>
      <point x="323" y="683"/>
    </contour>
    <contour>
      <point x="113" y="617" type="curve"/>
      <point x="111" y="606" type="line"/>
      <point x="170" y="606" type="line"/>
      <point x="226" y="648"/>
      <point x="301" y="718"/>
      <point x="325" y="758" type="curve"/>
      <point x="326" y="766" type="line"/>
      <point x="212" y="766" type="line"/>
      <point x="196" y="736"/>
      <point x="161" y="684"/>
    </contour>
  </outline>
</glyph>
<glyph name="rhotichookmod" format="2">
  <advance width="180"/>
  <unicode hex="02DE"/>
  <outline>
    <contour>
      <point x="97" y="185" type="curve" smooth="yes"/>
      <point x="132" y="185"/>
      <point x="163" y="200"/>
      <point x="186" y="221" type="curve"/>
      <point x="162" y="288" type="line"/>
      <point x="147" y="277"/>
      <point x="135" y="272"/>
      <point x="114" y="272" type="curve" smooth="yes"/>
      <point x="91" y="272"/>
      <point x="82" y="291"/>
      <point x="76" y="362" type="curve" smooth="yes"/>
      <point x="72" y="408" type="line"/>
      <point x="-80" y="355" type="line"/>
      <point x="-67" y="276" type="line"/>
      <point x="5" y="303" type="line"/>
      <point x="15" y="222"/>
      <point x="43" y="185"/>
    </contour>
  </outline>
</glyph>
<glyph name="endhightonemod" format="2">
  <advance width="329"/>
  <unicode hex="02FA"/>
  <outline>
    <contour>
      <point x="328" y="681" type="line"/>
      <point x="127" y="681" type="line"/>
      <point x="127" y="628" type="line"/>
      <point x="277" y="628" type="line"/>
      <point x="277" y="455" type="line"/>
      <point x="328" y="455" type="line"/>
    </contour>
  </outline>
</glyph>
<glyph name="dblverticallineabovecomb" format="2">
  <unicode hex="030E"/>
  <anchor x="57" y="530" name="_top"/>
  <anchor x="90" y="764" name="top"/>
  <outline>
    <contour>
      <point x="107" y="596" type="line"/>
      <point x="196" y="596" type="line"/>
      <point x="233" y="771" type="line"/>
      <point x="144" y="771" type="line"/>
    </contour>
    <contour>
      <point x="-53" y="596" type="line"/>
      <point x="36" y="596" type="line"/>
      <point x="74" y="771" type="line"/>
      <point x="-16" y="771" type="line"/>
    </contour>
  </outline>
</glyph>
<glyph name="dblgravecomb" format="2">
  <unicode hex="030F"/>
  <anchor x="-247" y="530" name="_top"/>
  <anchor x="-207" y="766" name="top"/>
  <outline>
    <contour>
      <point x="-125" y="606" type="curve"/>
      <point x="-65" y="606" type="line"/>
      <point x="-62" y="618" type="line"/>
      <point x="-79" y="680"/>
      <point x="-91" y="729"/>
      <point x="-98" y="766" type="curve"/>
      <point x="-210" y="766" type="line"/>
      <point x="-212" y="756" type="line"/>
      <point x="-202" y="718"/>
      <point x="-163" y="651"/>
    </contour>
    <contour>
      <point x="-281" y="606" type="curve"/>
      <point x="-217" y="606" type="line"/>
      <point x="-214" y="618" type="line"/>
      <point x="-229" y="661"/>
      <point x="-244" y="722"/>
      <point x="-251" y="766" type="curve"/>
      <point x="-363" y="766" type="line"/>
      <point x="-365" y="756" type="line"/>
      <point x="-357" y="720"/>
      <point x="-314" y="647"/>
    </contour>
  </outline>
</glyph>
<glyph name="candraBinducomb" format="2">
  <unicode hex="0310"/>
  <anchor x="63" y="530" name="_top"/>
  <anchor x="113" y="834" name="top"/>
  <outline>
    <contour>
      <point x="86" y="606" type="curve" smooth="yes"/>
      <point x="165" y="606"/>
      <point x="227" y="655"/>
      <point x="248" y="763" type="curve"/>
      <point x="187" y="763" type="line"/>
      <point x="171" y="706"/>
      <point x="143" y="675"/>
      <point x="88" y="675" type="curve" smooth="yes"/>
      <point x="45" y="675"/>
      <point x="24" y="705"/>
      <point x="24" y="763" type="curve"/>
      <point x="-37" y="763" type="line"/>
      <point x="-39" y="749"/>
      <point x="-41" y="735"/>
      <point x="-41" y="720" type="curve" smooth="yes"/>
      <point x="-41" y="655"/>
      <point x="-1" y="606"/>
    </contour>
    <contour>
      <point x="99" y="723" type="curve" smooth="yes"/>
      <point x="131" y="723"/>
      <point x="151" y="754"/>
      <point x="151" y="790" type="curve" smooth="yes"/>
      <point x="151" y="821"/>
      <point x="138" y="834"/>
      <point x="113" y="834" type="curve" smooth="yes"/>
      <point x="80" y="834"/>
      <point x="62" y="801"/>
      <point x="62" y="767" type="curve" smooth="yes"/>
      <point x="62" y="736"/>
      <point x="74" y="723"/>
    </contour>
  </outline>
</glyph>
<glyph name="breveinvertedcomb" format="2">
  <unicode hex="0311"/>
  <anchor x="43" y="530" name="_top"/>
  <anchor x="82" y="763" name="top"/>
  <outline>
    <contour>
      <point x="-57" y="607" type="curve"/>
      <point x="18" y="607" type="line"/>
      <point x="31" y="657"/>
      <point x="53" y="676"/>
      <point x="88" y="676" type="curve" smooth="yes"/>
      <point x="121" y="676"/>
      <point x="130" y="650"/>
      <point x="130" y="607" type="curve"/>
      <point x="204" y="607" type="line"/>
      <point x="207" y="624"/>
      <point x="209" y="641"/>
      <point x="209" y="657" type="curve" smooth="yes"/>
      <point x="209" y="719"/>
      <point x="177" y="763"/>
      <point x="95" y="763" type="curve" smooth="yes"/>
      <point x="16" y="763"/>
      <point x="-39" y="707"/>
    </contour>
  </outline>
</glyph>
<glyph name="lefttackbelowcomb" format="2">
  <unicode hex="0318"/>
  <anchor x="-44" y="19" name="_bottom"/>
  <anchor x="-79" y="-215" name="bottom"/>
  <outline>
    <contour>
      <point x="-86" y="-215" type="line"/>
      <point x="-34" y="-215" type="line"/>
      <point x="4" y="-31" type="line"/>
      <point x="-47" y="-31" type="line"/>
      <point x="-61" y="-97" type="line"/>
      <point x="-142" y="-97" type="line"/>
      <point x="-153" y="-149" type="line"/>
      <point x="-72" y="-149" type="line"/>
    </contour>
  </outline>
</glyph>
<glyph name="righttackbelowcomb" format="2">
  <unicode hex="0319"/>
  <anchor x="-44" y="19" name="_bottom"/>
  <anchor x="-79" y="-215" name="bottom"/>
  <outline>
    <contour>
      <point x="-153" y="-215" type="line"/>
      <point x="-102" y="-215" type="line"/>
      <point x="-88" y="-149" type="line"/>
      <point x="-6" y="-149" type="line"/>
      <point x="4" y="-97" type="line"/>
      <point x="-77" y="-97" type="line"/>
      <point x="-63" y="-31" type="line"/>
      <point x="-114" y="-31" type="line"/>
    </contour>
  </outline>
</glyph>
<glyph name="leftangleabovecomb" format="2">
  <unicode hex="031A"/>
  <anchor x="222" y="650" name="_topright"/>
  <outline>
    <contour>
      <point x="171" y="691" type="line"/>
      <point x="222" y="691" type="line"/>
      <point x="267" y="896" type="line"/>
      <point x="68" y="896" type="line"/>
      <point x="57" y="843" type="line"/>
      <point x="204" y="843" type="line"/>
    </contour>
  </outline>
</glyph>
<glyph name="uptackbelowcomb" format="2">
  <unicode hex="031D"/>
  <anchor x="-66" y="2" name="_bottom"/>
  <anchor x="-97" y="-204" name="bottom"/>
  <outline>
    <contour>
      <point x="-178" y="-204" type="line"/>
      <point x="-20" y="-204" type="line"/>
      <point x="-9" y="-151" type="line"/>
      <point x="-60" y="-151" type="line"/>
      <point x="-38" y="-48" type="line"/>
      <point x="-93" y="-48" type="line"/>
      <point x="-115" y="-151" type="line"/>
      <point x="-166" y="-151" type="line"/>
    </contour>
  </outline>
</glyph>
<glyph name="downtackbelowcomb" format="2">
  <unicode hex="031E"/>
  <anchor x="-58" y="0" name="_bottom"/>
  <anchor x="-101" y="-204" name="bottom"/>
  <outline>
    <contour>
      <point x="-128" y="-204" type="line"/>
      <point x="-73" y="-204" type="line"/>
      <point x="-51" y="-100" type="line"/>
      <point x="1" y="-100" type="line"/>
      <point x="12" y="-48" type="line"/>
      <point x="-146" y="-48" type="line"/>
      <point x="-157" y="-100" type="line"/>
      <point x="-106" y="-100" type="line"/>
    </contour>
  </outline>
</glyph>
<glyph name="plusbelowcomb" format="2">
  <unicode hex="031F"/>
  <anchor x="-52" y="12" name="_bottom"/>
  <anchor x="-86" y="-210" name="bottom"/>
  <outline>
    <contour>
      <point x="-126" y="-210" type="line"/>
      <point x="-72" y="-210" type="line"/>
      <point x="-59" y="-150" type="line"/>
      <point x="-7" y="-150" type="line"/>
      <point x="4" y="-98" type="line"/>
      <point x="-48" y="-98" type="line"/>
      <point x="-35" y="-38" type="line"/>
      <point x="-90" y="-38" type="line"/>
      <point x="-103" y="-98" type="line"/>
      <point x="-155" y="-98" type="line"/>
      <point x="-165" y="-150" type="line"/>
      <point x="-113" y="-150" type="line"/>
    </contour>
  </outline>
</glyph>
<glyph name="dotbelowcomb" format="2">
  <unicode hex="0323"/>
  <anchor x="-289" y="0" name="_bottom"/>
  <anchor x="-333" y="-206" name="bottom"/>
  <outline>
    <contour>
      <point x="-328" y="-206" type="curve" smooth="yes"/>
      <point x="-277" y="-206"/>
      <point x="-249" y="-166"/>
      <point x="-249" y="-119" type="curve" smooth="yes"/>
      <point x="-249" y="-83"/>
      <point x="-268" y="-64"/>
      <point x="-307" y="-64" type="curve" smooth="yes"/>
      <point x="-359" y="-64"/>
      <point x="-386" y="-105"/>
      <point x="-386" y="-150" type="curve" smooth="yes"/>
      <point x="-386" y="-185"/>
      <point x="-367" y="-206"/>
    </contour>
  </outline>
</glyph>
<glyph name="commaaccentcomb" format="2">
  <unicode hex="0326"/>
  <anchor x="132" y="0" name="_bottom"/>
  <anchor x="89" y="-221" name="bottom"/>
  <outline>
    <contour>
      <point x="26" y="-208" type="curve"/>
      <point x="26" y="-221" type="line"/>
      <point x="105" y="-221" type="line"/>
      <point x="137" y="-183"/>
      <point x="179" y="-116"/>
      <point x="198" y="-71" type="curve"/>
      <point x="198" y="-61" type="line"/>
      <point x="84" y="-61" type="line"/>
      <point x="72" y="-105"/>
      <point x="44" y="-171"/>
    </contour>
  </outline>
</glyph>
<glyph name="bridgebelowcomb" format="2">
  <unicode hex="032A"/>
  <anchor x="-54" y="2" name="_bottom"/>
  <anchor x="-86" y="-216" name="bottom"/>
  <outline>
    <contour>
      <point x="-239" y="-216" type="line"/>
      <point x="-182" y="-216" type="line"/>
      <point x="-158" y="-106" type="line"/>
      <point x="8" y="-106" type="line"/>
      <point x="-16" y="-216" type="line"/>
      <point x="41" y="-216" type="line"/>
      <point x="77" y="-48" type="line"/>
      <point x="-203" y="-48" type="line"/>
    </contour>
  </outline>
</glyph>
